# Created by Metasequoia

mtllib drive.mtl

v 123.415291 -0.000005 -27.455688
v 138.877975 -0.000001 8.440712
v 141.598755 0.000003 36.065262
v 138.877975 0.000007 63.689812
v 130.820206 0.000011 90.252769
v 117.735069 0.000015 114.733322
v 100.125443 0.000018 136.190704
v 78.668060 0.000021 153.800323
v 54.187504 0.000023 166.885468
v 27.624550 0.000024 174.943253
v 0.000002 0.000024 177.664032
v -27.624548 0.000024 174.943253
v -54.187504 0.000023 166.885468
v -78.668060 0.000021 153.800323
v -100.125443 0.000018 136.190704
v -117.735069 0.000015 114.733322
v -130.820206 0.000011 90.252769
v -138.877975 0.000007 63.689812
v -141.598755 0.000003 36.065262
v -138.877975 -0.000001 8.440712
v -123.415291 -0.000005 -27.455688
v 119.106331 -0.000002 -5.843674
v 112.195709 0.000001 16.937588
v 100.973473 0.000005 37.932919
v 85.870880 0.000007 56.335480
v 67.468323 0.000009 71.438072
v 46.472988 0.000011 82.660309
v 23.691725 0.000013 89.570930
v 0.000002 0.000013 91.904366
v -23.691723 0.000013 89.570930
v -46.472988 0.000011 82.660309
v -67.468323 0.000009 71.438072
v -85.870880 0.000007 56.335480
v -100.973473 0.000005 37.932919
v -112.195709 0.000001 16.937588
v -119.106331 -0.000002 -5.843674
v 135.162445 1.766105 13.815750
v 132.565323 2.226309 40.180626
v 124.873817 2.668828 65.532303
v 112.383461 3.076656 88.896553
v 95.574280 3.434120 109.375488
v 75.092239 3.727484 126.182114
v 51.724430 3.945472 138.670563
v 26.368887 4.079709 146.360901
v 0.000002 4.125035 148.957596
v -26.368883 4.079709 146.360901
v -51.724430 3.945472 138.670563
v -75.092239 3.727484 126.182114
v -95.574280 3.434120 109.375488
v -112.383461 3.076656 88.896553
v -124.873817 2.668828 65.532303
v -132.565323 2.226309 40.180626
v -135.162445 1.766105 13.815750
v 135.162445 -1.766101 13.815750
v 132.565323 -2.226293 40.180626
v 124.873817 -2.668802 65.532303
v 112.383461 -3.076618 88.896553
v 95.574280 -3.434073 109.375488
v 75.092239 -3.727429 126.182114
v 51.724430 -3.945412 138.670563
v 26.368887 -4.079645 146.360901
v 0.000002 -4.124969 148.957596
v -26.368883 -4.079645 146.360901
v -51.724430 -3.945412 138.670563
v -75.092239 -3.727429 126.182114
v -95.574280 -3.434073 109.375488
v -112.383461 -3.076618 88.896553
v -124.873817 -2.668802 65.532303
v -132.565323 -2.226293 40.180626
v -135.162445 -1.766101 13.815750
# 70 vertices

vt 0.41000 0.71358
vt 0.32345 0.68733
vt 0.31504 0.78348
vt 0.67656 0.68733
vt 0.65863 0.49604
vt 0.58087 0.51963
vt 0.96603 0.25437
vt 0.92126 0.12025
vt 0.98333 0.33702
vt 0.95250 0.35115
vt 0.97404 0.43130
vt 0.92624 0.43768
vt 0.94654 0.52195
vt 0.88361 0.51741
vt 0.90187 0.60549
vt 0.82623 0.58733
vt 0.84176 0.67872
vt 0.75632 0.64470
vt 0.76852 0.73883
vt 0.68496 0.78348
vt 0.59001 0.71358
vt 0.59429 0.81098
vt 0.50000 0.72240
vt 0.50000 0.82026
vt 0.40571 0.81098
vt 0.23148 0.73883
vt 0.24369 0.64471
vt 0.15823 0.67873
vt 0.17377 0.58734
vt 0.09813 0.60550
vt 0.11640 0.51742
vt 0.05346 0.52196
vt 0.07376 0.43769
vt 0.02596 0.43131
vt 0.04751 0.35115
vt 0.01667 0.33703
vt 0.03371 0.25400
vt 0.07874 0.12025
vt 0.84466 0.34341
vt 0.90655 0.19402
vt 0.88297 0.27176
vt 0.79311 0.40620
vt 0.34137 0.49605
vt 0.41913 0.51963
vt 0.50000 0.52759
vt 0.11704 0.27178
vt 0.09345 0.19403
vt 0.15534 0.34342
vt 0.73029 0.45774
vt 0.26971 0.45775
vt 0.20689 0.40622
# 51 texture vertices

vn 0.01170 -0.99912 -0.04030
vn 0.02314 -0.99905 -0.03705
vn 0.00000 -1.00000 -0.00000
vn -0.02314 -0.99905 -0.03705
vn 0.02742 -0.99744 0.06597
vn 0.01385 -0.99745 0.07005
vn -0.15816 -0.98654 0.04163
vn -0.00000 -1.00000 0.00000
vn 0.05709 -0.99830 0.01138
vn -0.00000 -1.00000 0.00000
vn -0.09396 -0.99557 0.00439
vn -0.00000 -1.00000 0.00000
vn -0.07090 -0.99745 -0.00843
vn -0.00000 -1.00000 -0.00000
vn -0.05681 -0.99822 -0.01806
vn -0.00000 -1.00000 -0.00000
vn -0.04519 -0.99864 -0.02592
vn -0.00000 -1.00000 -0.00000
vn -0.03422 -0.99889 -0.03223
vn -0.00000 -1.00000 -0.00000
vn -0.00000 -1.00000 -0.00000
vn -0.01170 -0.99912 -0.04030
vn -0.00000 -1.00000 -0.00000
vn -0.00000 -0.99914 -0.04151
vn 0.00000 -1.00000 -0.00000
vn 0.00000 -1.00000 -0.00000
vn 0.00000 -1.00000 -0.00000
vn 0.03422 -0.99889 -0.03223
vn 0.00000 -1.00000 -0.00000
vn 0.04519 -0.99864 -0.02592
vn 0.00000 -1.00000 -0.00000
vn 0.05681 -0.99822 -0.01806
vn 0.00000 -1.00000 -0.00000
vn 0.07090 -0.99745 -0.00843
vn 0.00000 -1.00000 0.00000
vn 0.09396 -0.99557 0.00439
vn 0.00000 -1.00000 0.00000
vn 0.15816 -0.98654 0.04163
vn 0.00000 -1.00000 0.00000
vn -0.05709 -0.99830 0.01138
vn -0.03164 0.99929 0.02056
vn -0.00000 1.00000 -0.00000
vn -0.00000 1.00000 -0.00000
vn -0.00000 1.00000 -0.00000
vn -0.03885 0.99921 0.00775
vn -0.04284 0.99903 0.00980
vn -0.03779 0.99918 0.01445
vn -0.02604 0.99933 0.02572
vn -0.00000 1.00000 -0.00000
vn -0.00000 1.00000 -0.00000
vn -0.00693 0.99936 0.03504
vn -0.00000 1.00000 -0.00000
vn -0.01372 0.99936 0.03300
vn -0.00000 1.00000 -0.00000
vn -0.00000 1.00000 -0.00000
vn 0.01372 0.99936 0.03300
vn 0.00000 1.00000 -0.00000
vn 0.00000 1.00000 -0.00000
vn 0.00693 0.99936 0.03504
vn 0.00000 1.00000 -0.00000
vn -0.00000 1.00000 -0.00000
vn 0.00000 0.99936 0.03579
vn -0.00000 1.00000 -0.00000
vn 0.03779 0.99918 0.01445
vn 0.01859 0.99981 0.00564
vn 0.00000 1.00000 -0.00000
vn 0.03164 0.99929 0.02056
vn 0.00000 1.00000 -0.00000
vn 0.00000 1.00000 -0.00000
vn -0.02014 0.99935 0.02987
vn 0.02014 0.99935 0.02987
vn 0.02604 0.99933 0.02572
vn 0.00000 1.00000 -0.00000
vn 0.00000 1.00000 -0.00000
vn 0.00000 1.00000 -0.00000
vn 0.00000 1.00000 -0.00000
vn 0.08559 -0.99614 0.01958
vn 0.07553 -0.99673 0.02888
vn 0.06325 -0.99715 0.04110
vn 0.05206 -0.99732 0.05141
vn 0.04026 -0.99740 0.05971
vn 0.00000 -0.99744 0.07154
vn -0.01385 -0.99745 0.07005
vn -0.02742 -0.99744 0.06597
vn -0.04026 -0.99740 0.05971
vn -0.05206 -0.99732 0.05141
vn -0.06325 -0.99715 0.04110
vn -0.07553 -0.99673 0.02888
vn -0.08559 -0.99614 0.01958
vn 0.01048 0.99739 0.07145
vn 0.08000 0.99649 0.02483
vn 0.07107 0.99689 0.03394
vn 0.06063 0.99718 0.04425
vn 0.05096 0.99731 0.05274
vn 0.04145 0.99735 0.05972
vn 0.03150 0.99737 0.06532
vn 0.02112 0.99738 0.06926
vn -0.00000 0.99740 0.07211
vn -0.01048 0.99739 0.07145
vn -0.02112 0.99738 0.06926
vn -0.03150 0.99737 0.06532
vn -0.04145 0.99735 0.05972
vn -0.05096 0.99731 0.05274
vn -0.06063 0.99718 0.04425
vn -0.07107 0.99689 0.03394
vn -0.08119 0.99642 0.02376
vn -0.00000 -0.98995 0.14141
vn -0.03116 -0.98986 0.13856
vn 0.34192 -0.93817 -0.05413
vn 0.23769 -0.97110 0.02184
vn 0.18594 -0.98103 0.05484
vn 0.15123 -0.98523 0.08035
vn 0.12117 -0.98745 0.10125
vn 0.09187 -0.98875 0.11802
vn 0.06198 -0.98950 0.13054
vn 0.03116 -0.98986 0.13856
vn -0.06198 -0.98950 0.13054
vn -0.09187 -0.98875 0.11802
vn -0.12117 -0.98745 0.10125
vn -0.15123 -0.98523 0.08035
vn -0.18594 -0.98103 0.05484
vn -0.23769 -0.97110 0.02184
vn -0.34192 -0.93817 -0.05413
# 123 normal vertices

g base
s 1
usemtl mat1
f 13/3/3 47/2/2 46/1/1
f 28/6/6 27/5/5 43/4/4
f 1/8/9 2/7/8 37/7/7
f 2/7/8 3/9/10 37/7/7
f 3/9/10 4/11/12 38/10/11
f 4/11/12 5/13/14 39/12/13
f 5/13/14 6/15/16 40/14/15
f 6/15/16 7/17/18 41/16/17
f 40/14/15 6/15/16 41/16/17
f 7/17/18 8/19/20 42/18/19
f 8/19/20 9/20/21 43/4/4
f 9/20/21 10/22/23 44/21/22
f 10/22/23 11/24/25 45/23/24
f 44/21/22 10/22/23 45/23/24
f 11/24/25 12/25/26 45/23/24
f 12/25/26 13/3/3 46/1/1
f 13/3/3 14/26/27 47/2/2
f 14/26/27 15/28/29 48/27/28
f 15/28/29 16/30/31 49/29/30
f 16/30/31 17/32/33 50/31/32
f 17/32/33 18/34/35 51/33/34
f 18/34/35 19/36/37 52/35/36
f 51/33/34 18/34/35 52/35/36
f 19/36/37 20/37/39 53/37/38
f 20/37/39 21/38/40 53/37/38
f 16/30/31 50/31/32 49/29/30
f 12/25/26 46/1/1 45/23/24
f 14/26/27 48/27/28 47/2/2
f 8/19/20 43/4/4 42/18/19
f 43/4/4 9/20/21 44/21/22
f 4/11/12 39/12/13 38/10/11
f 38/10/11 37/7/7 3/9/10
f 19/36/37 53/37/38 52/35/36
f 40/14/15 39/12/13 5/13/14
f 17/32/33 51/33/34 50/31/32
f 15/28/29 49/29/30 48/27/28
f 42/18/19 41/16/17 7/17/18
f 19/9/43 18/11/42 34/39/41
f 36/40/46 21/8/45 20/7/44
f 20/7/44 19/9/43 35/41/47
f 17/13/50 16/15/49 33/42/48
f 18/11/42 17/13/50 34/39/41
f 31/5/53 13/20/52 30/6/51
f 15/17/55 14/19/54 31/5/53
f 14/19/54 13/20/52 31/5/53
f 8/26/58 7/28/57 27/43/56
f 10/25/61 9/3/60 28/44/59
f 11/24/63 10/25/61 29/45/62
f 2/37/66 22/47/65 23/46/64
f 4/34/69 3/36/68 24/48/67
f 36/40/46 20/7/44 35/41/47
f 9/3/60 27/43/56 28/44/59
f 17/13/50 33/42/48 34/39/41
f 33/42/48 16/15/49 32/49/70
f 6/30/73 25/51/72 26/50/71
f 7/28/57 26/50/71 27/43/56
f 3/36/68 2/37/66 23/46/64
f 5/32/74 24/48/67 25/51/72
f 9/3/60 8/26/58 27/43/56
f 7/28/57 6/30/73 26/50/71
f 32/49/70 15/17/55 31/5/53
f 12/22/75 11/24/63 29/45/62
f 13/20/52 12/22/75 30/6/51
f 2/37/66 1/38/76 22/47/65
f 24/48/67 3/36/68 23/46/64
f 35/41/47 19/9/43 34/39/41
f 12/22/75 29/45/62 30/6/51
f 16/15/49 15/17/55 32/49/70
f 5/32/74 4/34/69 24/48/67
f 6/30/73 5/32/74 25/51/72
f 22/40/77 1/8/9 37/7/7
f 37/7/7 38/10/11 23/41/78
f 38/10/11 39/12/13 24/39/79
f 39/12/13 40/14/15 25/42/80
f 40/14/15 41/16/17 25/42/80
f 41/16/17 42/18/19 26/49/81
f 42/18/19 43/4/4 27/5/5
f 43/4/4 44/21/22 28/6/6
f 44/21/22 45/23/24 29/45/82
f 45/23/24 46/1/1 29/45/82
f 46/1/1 47/2/2 30/44/83
f 29/45/82 46/1/1 30/44/83
f 47/2/2 48/27/28 31/43/84
f 48/27/28 49/29/30 32/50/85
f 31/43/84 48/27/28 32/50/85
f 49/29/30 50/31/32 33/51/86
f 50/31/32 51/33/34 33/51/86
f 51/33/34 52/35/36 34/48/87
f 52/35/36 53/37/38 35/46/88
f 53/37/38 21/38/40 36/47/89
f 53/37/38 36/47/89 35/46/88
f 52/35/36 35/46/88 34/48/87
f 42/18/19 27/5/5 26/49/81
f 44/21/22 29/45/82 28/6/6
f 38/10/11 24/39/79 23/41/78
f 24/39/79 39/12/13 25/42/80
f 23/41/78 22/40/77 37/7/7
f 51/33/34 34/48/87 33/51/86
f 49/29/30 33/51/86 32/50/85
f 26/49/81 25/42/80 41/16/17
f 31/43/84 30/44/83 47/2/2
f 10/25/61 28/44/59 29/45/62
f 61/1/90 28/44/59 29/45/62
f 55/35/92 54/37/91 23/46/64
f 54/37/91 22/47/65 23/46/64
f 57/31/94 56/33/93 25/51/72
f 56/33/93 55/35/92 24/48/67
f 59/27/96 58/29/95 26/50/71
f 58/29/95 57/31/94 25/51/72
f 26/50/71 58/29/95 25/51/72
f 61/1/90 60/2/97 28/44/59
f 60/2/97 59/27/96 27/43/56
f 28/44/59 60/2/97 27/43/56
f 63/21/99 62/23/98 29/45/62
f 62/23/98 61/1/90 29/45/62
f 65/18/101 64/4/100 31/5/53
f 64/4/100 63/21/99 30/6/51
f 67/14/103 66/16/102 33/42/48
f 66/16/102 65/18/101 32/49/70
f 33/42/48 66/16/102 32/49/70
f 69/10/105 68/12/104 34/39/41
f 68/12/104 67/14/103 33/42/48
f 34/39/41 68/12/104 33/42/48
f 21/8/45 70/7/106 36/40/46
f 70/7/106 69/10/105 35/41/47
f 36/40/46 70/7/106 35/41/47
f 64/4/100 30/6/51 31/5/53
f 56/33/93 24/48/67 25/51/72
f 55/35/92 23/46/64 24/48/67
f 63/21/99 29/45/62 30/6/51
f 34/39/41 35/41/47 69/10/105
f 26/50/71 27/43/56 59/27/96
f 31/5/53 32/49/70 65/18/101
f 12/25/26 63/1/108 62/23/107
f 54/7/109 1/8/9 2/7/8
f 2/7/8 3/9/10 54/7/109
f 3/9/10 4/11/12 55/10/110
f 54/7/109 3/9/10 55/10/110
f 4/11/12 5/13/14 56/12/111
f 5/13/14 6/15/16 57/14/112
f 6/15/16 7/17/18 58/16/113
f 7/17/18 8/19/20 59/18/114
f 58/16/113 7/17/18 59/18/114
f 8/19/20 9/20/21 60/4/115
f 9/20/21 10/22/23 61/21/116
f 60/4/115 9/20/21 61/21/116
f 10/22/23 11/24/25 62/23/107
f 11/24/25 12/25/26 62/23/107
f 12/25/26 13/3/3 63/1/108
f 13/3/3 14/26/27 64/2/117
f 14/26/27 15/28/29 65/27/118
f 15/28/29 16/30/31 66/29/119
f 16/30/31 17/32/33 67/31/120
f 17/32/33 18/34/35 68/33/121
f 18/34/35 19/36/37 69/35/122
f 19/36/37 20/37/39 70/37/123
f 69/35/122 19/36/37 70/37/123
f 20/37/39 21/38/40 70/37/123
f 17/32/33 68/33/121 67/31/120
f 13/3/3 64/2/117 63/1/108
f 15/28/29 66/29/119 65/27/118
f 5/13/14 57/14/112 56/12/111
f 57/14/112 6/15/16 58/16/113
f 18/34/35 69/35/122 68/33/121
f 56/12/111 55/10/110 4/11/12
f 16/30/31 67/31/120 66/29/119
f 14/26/27 65/27/118 64/2/117
f 60/4/115 59/18/114 8/19/20
f 61/21/116 10/22/23 62/23/107
# 169 elements

