# Blender 4.5.0
# www.blender.org
mtllib slashdim.mtl
o base
v -57.735001 57.735004 57.734997
v -42.640099 63.960205 63.960197
v -22.941601 68.824707 68.824692
v 0.000000 70.710709 70.710693
v 22.941601 68.824707 68.824692
v 42.640099 63.960205 63.960197
v -63.960201 42.640102 63.960197
v -48.507099 48.507103 72.760696
v -26.726101 53.452309 80.178391
v 0.000000 55.470009 83.204994
v 26.726101 53.452309 80.178391
v 48.507099 48.507103 72.760696
v -68.824699 22.941607 68.824699
v -53.452301 26.726107 80.178398
v -30.151100 30.151108 90.453400
v 0.000000 31.622808 94.868301
v 30.151100 30.151108 90.453400
v 53.452301 26.726107 80.178398
v -70.710701 0.000005 70.710701
v -55.470001 0.000006 83.205002
v -31.622801 0.000007 94.868301
v 0.000000 0.000008 100.000000
v 31.622801 0.000007 94.868301
v 55.470001 0.000006 83.205002
v -68.824699 -22.941595 68.824699
v -53.452301 -26.726095 80.178398
v -30.151100 -30.151093 90.453400
v 0.000000 -31.622793 94.868301
v 30.151100 -30.151093 90.453400
v 53.452301 -26.726095 80.178398
v -63.960201 -42.640095 63.960205
v -48.507099 -48.507095 72.760696
v -26.726101 -53.452293 80.178406
v 0.000000 -55.469994 83.205009
v 26.726101 -53.452293 80.178406
v 48.507099 -48.507095 72.760696
v -57.735001 -57.734997 57.735004
v -42.640099 -63.960197 63.960205
v -22.941601 -68.824692 68.824707
v 0.000000 -70.710693 70.710709
v 22.941601 -68.824692 68.824707
v 42.640099 -63.960197 63.960205
v 57.735001 57.735004 57.734997
v 63.960201 63.960205 42.640095
v 68.824699 68.824699 22.941595
v 70.710701 70.710701 -0.000005
v 68.824699 68.824699 -22.941607
v 63.960201 63.960197 -42.640102
v 63.960201 42.640102 63.960197
v 72.760696 48.507103 48.507095
v 80.178398 53.452305 26.726097
v 83.205002 55.470001 -0.000004
v 80.178398 53.452297 -26.726105
v 72.760696 48.507095 -48.507103
v 68.824699 22.941607 68.824699
v 80.178398 26.726105 53.452297
v 90.453400 30.151102 30.151098
v 94.868301 31.622801 -0.000002
v 90.453400 30.151098 -30.151102
v 80.178398 26.726097 -53.452305
v 70.710701 0.000005 70.710701
v 83.205002 0.000004 55.470001
v 94.868301 0.000002 31.622801
v 100.000000 0.000000 0.000000
v 94.868301 -0.000002 -31.622801
v 83.205002 -0.000004 -55.470001
v 68.824699 -22.941595 68.824699
v 80.178398 -26.726097 53.452305
v 90.453400 -30.151098 30.151102
v 94.868301 -31.622801 0.000002
v 90.453400 -30.151102 -30.151098
v 80.178398 -26.726105 -53.452297
v 63.960201 -42.640095 63.960205
v 72.760696 -48.507095 48.507103
v 80.178398 -53.452297 26.726105
v 83.205002 -55.470001 0.000004
v 80.178398 -53.452305 -26.726097
v 72.760696 -48.507103 -48.507095
v 57.735001 -57.734997 57.735004
v 63.960201 -63.960197 42.640102
v 68.824699 -68.824699 22.941607
v 70.710701 -70.710701 0.000005
v 68.824699 -68.824699 -22.941595
v 63.960201 -63.960205 -42.640095
v 57.735001 57.734997 -57.735004
v 42.640099 63.960197 -63.960205
v 22.941601 68.824692 -68.824707
v 0.000000 70.710693 -70.710709
v -22.941601 68.824692 -68.824707
v -42.640099 63.960197 -63.960205
v 63.960201 42.640095 -63.960205
v 48.507099 48.507095 -72.760696
v 26.726101 53.452293 -80.178406
v 0.000000 55.469994 -83.205009
v -26.726101 53.452293 -80.178406
v -48.507099 48.507095 -72.760696
v 68.824699 22.941595 -68.824699
v 53.452301 26.726095 -80.178398
v 30.151100 30.151093 -90.453400
v 0.000000 31.622793 -94.868301
v -30.151100 30.151093 -90.453400
v -53.452301 26.726095 -80.178398
v 70.710701 -0.000005 -70.710701
v 55.470001 -0.000006 -83.205002
v 31.622801 -0.000007 -94.868301
v 0.000000 -0.000008 -100.000000
v -31.622801 -0.000007 -94.868301
v -55.470001 -0.000006 -83.205002
v 68.824699 -22.941607 -68.824699
v 53.452301 -26.726107 -80.178398
v 30.151100 -30.151108 -90.453400
v 0.000000 -31.622808 -94.868301
v -30.151100 -30.151108 -90.453400
v -53.452301 -26.726107 -80.178398
v 63.960201 -42.640102 -63.960197
v 48.507099 -48.507103 -72.760696
v 26.726101 -53.452309 -80.178391
v 0.000000 -55.470009 -83.204994
v -26.726101 -53.452309 -80.178391
v -48.507099 -48.507103 -72.760696
v 57.735001 -57.735004 -57.734997
v 42.640099 -63.960205 -63.960197
v 22.941601 -68.824707 -68.824692
v 0.000000 -70.710709 -70.710693
v -22.941601 -68.824707 -68.824692
v -42.640099 -63.960205 -63.960197
v -57.735001 57.734997 -57.735004
v -63.960201 63.960197 -42.640102
v -68.824699 68.824699 -22.941607
v -70.710701 70.710701 -0.000005
v -68.824699 68.824699 22.941595
v -63.960201 63.960205 42.640095
v -63.960201 42.640095 -63.960205
v -72.760696 48.507095 -48.507103
v -80.178398 53.452297 -26.726105
v -83.205002 55.470001 -0.000004
v -80.178398 53.452305 26.726097
v -72.760696 48.507103 48.507095
v -68.824699 22.941595 -68.824699
v -80.178398 26.726097 -53.452305
v -90.453400 30.151098 -30.151102
v -94.868301 31.622801 -0.000002
v -90.453400 30.151102 30.151098
v -80.178398 26.726105 53.452297
v -70.710701 -0.000005 -70.710701
v -83.205002 -0.000004 -55.470001
v -94.868301 -0.000002 -31.622801
v -100.000000 0.000000 0.000000
v -94.868301 0.000002 31.622801
v -83.205002 0.000004 55.470001
v -68.824699 -22.941607 -68.824699
v -80.178398 -26.726105 -53.452297
v -90.453400 -30.151102 -30.151098
v -94.868301 -31.622801 0.000002
v -90.453400 -30.151098 30.151102
v -80.178398 -26.726097 53.452305
v -63.960201 -42.640102 -63.960197
v -72.760696 -48.507103 -48.507095
v -80.178398 -53.452305 -26.726097
v -83.205002 -55.470001 0.000004
v -80.178398 -53.452297 26.726105
v -72.760696 -48.507095 48.507103
v -57.735001 -57.735004 -57.734997
v -63.960201 -63.960205 -42.640095
v -68.824699 -68.824699 -22.941595
v -70.710701 -70.710701 0.000005
v -68.824699 -68.824699 22.941607
v -63.960201 -63.960197 42.640102
v -48.507099 72.760696 -48.507103
v -26.726101 80.178391 -53.452309
v 0.000000 83.204994 -55.470009
v 26.726101 80.178391 -53.452309
v 48.507099 72.760696 -48.507103
v -53.452301 80.178398 -26.726107
v -30.151100 90.453400 -30.151108
v 0.000000 94.868301 -31.622808
v 30.151100 90.453400 -30.151108
v 53.452301 80.178398 -26.726107
v -55.470001 83.205002 -0.000006
v -31.622801 94.868301 -0.000007
v 0.000000 100.000000 -0.000008
v 31.622801 94.868301 -0.000007
v 55.470001 83.205002 -0.000006
v -53.452301 80.178398 26.726095
v -30.151100 90.453400 30.151093
v 0.000000 94.868301 31.622793
v 30.151100 90.453400 30.151093
v 53.452301 80.178398 26.726095
v -48.507099 72.760696 48.507095
v -26.726101 80.178406 53.452293
v 0.000000 83.205009 55.469994
v 26.726101 80.178406 53.452293
v 48.507099 72.760696 48.507095
v -48.507099 -72.760696 -48.507095
v -26.726101 -80.178406 -53.452293
v 0.000000 -83.205009 -55.469994
v 26.726101 -80.178406 -53.452293
v 48.507099 -72.760696 -48.507095
v -53.452301 -80.178398 -26.726095
v -30.151100 -90.453400 -30.151093
v 0.000000 -94.868301 -31.622793
v 30.151100 -90.453400 -30.151093
v 53.452301 -80.178398 -26.726095
v -55.470001 -83.205002 0.000006
v -31.622801 -94.868301 0.000007
v 0.000000 -100.000000 0.000008
v 31.622801 -94.868301 0.000007
v 55.470001 -83.205002 0.000006
v -53.452301 -80.178398 26.726107
v -30.151100 -90.453400 30.151108
v 0.000000 -94.868301 31.622808
v 30.151100 -90.453400 30.151108
v 53.452301 -80.178398 26.726107
v -48.507099 -72.760696 48.507103
v -26.726101 -80.178391 53.452309
v 0.000000 -83.204994 55.470009
v 26.726101 -80.178391 53.452309
v 48.507099 -72.760696 48.507103
vn -0.4714 0.4714 0.7453
vn -0.4062 0.6461 0.6461
vn -0.5774 0.5774 0.5774
vn -0.6461 0.4062 0.6461
vn -0.2537 0.5159 0.8182
vn -0.1947 0.6936 0.6936
vn -0.0000 0.5661 0.8244
vn -0.0000 0.7071 0.7071
vn 0.2537 0.5160 0.8182
vn 0.1947 0.6936 0.6936
vn 0.4715 0.4715 0.7452
vn 0.4062 0.6461 0.6461
vn 0.6461 0.4062 0.6461
vn 0.5774 0.5774 0.5774
vn -0.5159 0.2537 0.8182
vn -0.6936 0.1947 0.6936
vn -0.2841 0.2841 0.9157
vn -0.0000 0.3438 0.9391
vn 0.2841 0.2841 0.9157
vn 0.5159 0.2537 0.8182
vn 0.6936 0.1947 0.6936
vn -0.5661 -0.0000 0.8244
vn -0.7071 -0.0000 0.7071
vn -0.3438 -0.0000 0.9391
vn -0.0000 -0.0000 1.0000
vn 0.3438 -0.0000 0.9391
vn 0.5661 -0.0000 0.8244
vn 0.7071 -0.0000 0.7071
vn -0.6936 -0.1947 0.6936
vn -0.5159 -0.2537 0.8182
vn -0.2841 -0.2841 0.9157
vn -0.0000 -0.3438 0.9391
vn 0.2841 -0.2841 0.9157
vn 0.5160 -0.2537 0.8182
vn 0.6936 -0.1947 0.6936
vn -0.6461 -0.4062 0.6461
vn -0.4715 -0.4715 0.7452
vn -0.2537 -0.5160 0.8182
vn -0.0000 -0.5661 0.8244
vn 0.2537 -0.5160 0.8182
vn 0.4715 -0.4715 0.7452
vn 0.6461 -0.4062 0.6461
vn -0.5774 -0.5774 0.5774
vn -0.4062 -0.6461 0.6461
vn -0.1947 -0.6936 0.6936
vn -0.0000 -0.7071 0.7071
vn 0.1947 -0.6936 0.6936
vn 0.4062 -0.6461 0.6461
vn 0.5774 -0.5774 0.5774
vn 0.7452 0.4715 0.4715
vn 0.6461 0.6461 0.4062
vn 0.8182 0.5160 0.2537
vn 0.6936 0.6936 0.1947
vn 0.8244 0.5661 -0.0000
vn 0.7071 0.7071 -0.0000
vn 0.8182 0.5159 -0.2537
vn 0.6936 0.6936 -0.1947
vn 0.7454 0.4714 -0.4714
vn 0.6461 0.6461 -0.4062
vn 0.6461 0.4062 -0.6461
vn 0.5774 0.5774 -0.5774
vn 0.8182 0.2537 0.5159
vn 0.9157 0.2842 0.2842
vn 0.9391 0.3438 -0.0000
vn 0.9157 0.2842 -0.2842
vn 0.8182 0.2537 -0.5160
vn 0.6936 0.1947 -0.6936
vn 0.8244 -0.0000 0.5661
vn 0.9391 -0.0000 0.3438
vn 1.0000 -0.0000 -0.0000
vn 0.9391 -0.0000 -0.3438
vn 0.8244 -0.0000 -0.5661
vn 0.7071 -0.0000 -0.7071
vn 0.8182 -0.2537 0.5159
vn 0.9157 -0.2842 0.2842
vn 0.9391 -0.3438 -0.0000
vn 0.9157 -0.2841 -0.2841
vn 0.8182 -0.2537 -0.5159
vn 0.6936 -0.1947 -0.6936
vn 0.7452 -0.4715 0.4715
vn 0.8182 -0.5160 0.2537
vn 0.8244 -0.5661 -0.0000
vn 0.8182 -0.5159 -0.2537
vn 0.7454 -0.4714 -0.4714
vn 0.6461 -0.4062 -0.6461
vn 0.6461 -0.6461 0.4062
vn 0.6936 -0.6936 0.1947
vn 0.7071 -0.7071 -0.0000
vn 0.6936 -0.6936 -0.1947
vn 0.6461 -0.6461 -0.4062
vn 0.5774 -0.5774 -0.5774
vn 0.4714 0.4714 -0.7453
vn 0.4062 0.6461 -0.6461
vn 0.2537 0.5159 -0.8182
vn 0.1947 0.6936 -0.6936
vn -0.0000 0.5661 -0.8244
vn -0.0000 0.7071 -0.7071
vn -0.2537 0.5160 -0.8182
vn -0.1947 0.6936 -0.6936
vn -0.4715 0.4715 -0.7452
vn -0.4062 0.6461 -0.6461
vn -0.6461 0.4062 -0.6461
vn -0.5774 0.5774 -0.5774
vn 0.5159 0.2537 -0.8182
vn 0.2841 0.2841 -0.9157
vn -0.0000 0.3438 -0.9391
vn -0.2841 0.2841 -0.9157
vn -0.5159 0.2537 -0.8182
vn -0.6936 0.1947 -0.6936
vn 0.5661 -0.0000 -0.8244
vn 0.3438 -0.0000 -0.9391
vn -0.0000 -0.0000 -1.0000
vn -0.3438 -0.0000 -0.9391
vn -0.5661 -0.0000 -0.8244
vn -0.7071 -0.0000 -0.7071
vn 0.5159 -0.2537 -0.8182
vn 0.2841 -0.2841 -0.9157
vn -0.0000 -0.3438 -0.9391
vn -0.2841 -0.2841 -0.9157
vn -0.5160 -0.2537 -0.8182
vn -0.6936 -0.1947 -0.6936
vn 0.4715 -0.4715 -0.7452
vn 0.2537 -0.5160 -0.8182
vn -0.0000 -0.5661 -0.8244
vn -0.2537 -0.5160 -0.8182
vn -0.4715 -0.4715 -0.7452
vn -0.6461 -0.4062 -0.6461
vn 0.4062 -0.6461 -0.6461
vn 0.1947 -0.6936 -0.6936
vn -0.0000 -0.7071 -0.7071
vn -0.1947 -0.6936 -0.6936
vn -0.4062 -0.6461 -0.6461
vn -0.5774 -0.5774 -0.5774
vn -0.7452 0.4715 -0.4715
vn -0.6461 0.6461 -0.4062
vn -0.8182 0.5160 -0.2537
vn -0.6936 0.6936 -0.1947
vn -0.8244 0.5661 -0.0000
vn -0.7071 0.7071 -0.0000
vn -0.8182 0.5159 0.2537
vn -0.6936 0.6936 0.1947
vn -0.7454 0.4714 0.4714
vn -0.6461 0.6461 0.4062
vn -0.8182 0.2537 -0.5159
vn -0.9157 0.2842 -0.2842
vn -0.9391 0.3438 -0.0000
vn -0.9157 0.2842 0.2842
vn -0.8182 0.2537 0.5160
vn -0.8244 -0.0000 -0.5661
vn -0.9391 -0.0000 -0.3438
vn -1.0000 -0.0000 -0.0000
vn -0.9391 -0.0000 0.3438
vn -0.8244 -0.0000 0.5661
vn -0.8182 -0.2537 -0.5159
vn -0.9157 -0.2842 -0.2842
vn -0.9391 -0.3438 -0.0000
vn -0.9157 -0.2841 0.2841
vn -0.8182 -0.2537 0.5159
vn -0.7452 -0.4715 -0.4715
vn -0.8182 -0.5160 -0.2537
vn -0.8244 -0.5661 -0.0000
vn -0.8182 -0.5159 0.2537
vn -0.7454 -0.4714 0.4714
vn -0.6461 -0.6461 -0.4062
vn -0.6936 -0.6936 -0.1947
vn -0.7071 -0.7071 -0.0000
vn -0.6936 -0.6936 0.1947
vn -0.6461 -0.6461 0.4062
vn -0.4715 0.7452 -0.4715
vn -0.2537 0.8182 -0.5159
vn -0.0000 0.8244 -0.5661
vn 0.2537 0.8182 -0.5159
vn 0.4715 0.7452 -0.4715
vn -0.5159 0.8182 -0.2537
vn -0.2841 0.9157 -0.2841
vn -0.0000 0.9391 -0.3438
vn 0.2842 0.9157 -0.2842
vn 0.5160 0.8182 -0.2537
vn -0.5661 0.8244 -0.0000
vn -0.3438 0.9391 -0.0000
vn -0.0000 1.0000 -0.0000
vn 0.3438 0.9391 -0.0000
vn 0.5661 0.8244 -0.0000
vn -0.5160 0.8182 0.2537
vn -0.2842 0.9157 0.2842
vn -0.0000 0.9391 0.3438
vn 0.2841 0.9157 0.2841
vn 0.5159 0.8182 0.2537
vn -0.4715 0.7452 0.4715
vn -0.2537 0.8182 0.5160
vn -0.0000 0.8244 0.5661
vn 0.2537 0.8182 0.5159
vn 0.4716 0.7451 0.4716
vn -0.4715 -0.7452 -0.4715
vn -0.2537 -0.8182 -0.5159
vn -0.0000 -0.8244 -0.5661
vn 0.2537 -0.8182 -0.5159
vn 0.4715 -0.7452 -0.4715
vn -0.5159 -0.8182 -0.2537
vn -0.2841 -0.9157 -0.2841
vn -0.0000 -0.9391 -0.3438
vn 0.2842 -0.9157 -0.2842
vn 0.5160 -0.8182 -0.2537
vn -0.5661 -0.8244 -0.0000
vn -0.3438 -0.9391 -0.0000
vn -0.0000 -1.0000 -0.0000
vn 0.3438 -0.9391 -0.0000
vn 0.5661 -0.8244 -0.0000
vn -0.5159 -0.8182 0.2537
vn -0.2842 -0.9157 0.2842
vn -0.0000 -0.9391 0.3438
vn 0.2842 -0.9157 0.2842
vn 0.5159 -0.8182 0.2537
vn -0.4715 -0.7452 0.4715
vn -0.2537 -0.8182 0.5159
vn -0.0000 -0.8244 0.5661
vn 0.2537 -0.8182 0.5159
vn 0.4715 -0.7452 0.4715
vt 0.937010 0.914200
vt 0.937010 0.925310
vt 0.931160 0.920660
vt 0.931160 0.910290
vt 0.944900 0.917610
vt 0.944900 0.929170
vt 0.954440 0.919030
vt 0.954440 0.930730
vt 0.768240 0.919030
vt 0.777770 0.917610
vt 0.777770 0.929170
vt 0.768240 0.930730
vt 0.785660 0.914200
vt 0.785660 0.925310
vt 0.791510 0.910290
vt 0.791510 0.920660
vt 0.937010 0.900220
vt 0.931160 0.897900
vt 0.944900 0.902330
vt 0.954440 0.903250
vt 0.768240 0.903250
vt 0.777770 0.902330
vt 0.785660 0.900220
vt 0.791510 0.897900
vt 0.937010 0.884180
vt 0.931160 0.884180
vt 0.944900 0.884180
vt 0.954440 0.884180
vt 0.768240 0.884180
vt 0.777770 0.884180
vt 0.785660 0.884180
vt 0.791510 0.884180
vt 0.931160 0.870460
vt 0.937010 0.868140
vt 0.944900 0.866030
vt 0.954440 0.865110
vt 0.777770 0.866030
vt 0.768240 0.865110
vt 0.785660 0.868140
vt 0.791510 0.870460
vt 0.931160 0.858070
vt 0.937010 0.854160
vt 0.944900 0.850750
vt 0.954440 0.849330
vt 0.777770 0.850750
vt 0.768240 0.849330
vt 0.785660 0.854160
vt 0.791510 0.858070
vt 0.931160 0.847700
vt 0.937010 0.843050
vt 0.944900 0.839190
vt 0.954440 0.837630
vt 0.777770 0.839190
vt 0.768240 0.837630
vt 0.785660 0.843050
vt 0.791510 0.847700
vt 0.797360 0.914200
vt 0.797360 0.925310
vt 0.805250 0.917610
vt 0.805250 0.929170
vt 0.814790 0.919030
vt 0.814790 0.930730
vt 0.824320 0.917610
vt 0.824320 0.929170
vt 0.832210 0.914200
vt 0.832210 0.925310
vt 0.838060 0.910290
vt 0.838060 0.920660
vt 0.797360 0.900220
vt 0.805250 0.902330
vt 0.814790 0.903250
vt 0.824320 0.902330
vt 0.832210 0.900220
vt 0.838060 0.897900
vt 0.797360 0.884180
vt 0.805250 0.884180
vt 0.814790 0.884180
vt 0.824320 0.884180
vt 0.832210 0.884180
vt 0.838060 0.884180
vt 0.797360 0.868140
vt 0.805250 0.866030
vt 0.814790 0.865110
vt 0.824320 0.866030
vt 0.832210 0.868140
vt 0.838060 0.870460
vt 0.797360 0.854160
vt 0.805250 0.850750
vt 0.814790 0.849330
vt 0.824320 0.850750
vt 0.832210 0.854160
vt 0.838060 0.858070
vt 0.797360 0.843050
vt 0.805250 0.839190
vt 0.814790 0.837630
vt 0.824320 0.839190
vt 0.832210 0.843050
vt 0.838060 0.847700
vt 0.843910 0.914200
vt 0.843910 0.925310
vt 0.851800 0.917610
vt 0.851800 0.929170
vt 0.861340 0.919030
vt 0.861340 0.930730
vt 0.870870 0.917610
vt 0.870870 0.929170
vt 0.878760 0.914200
vt 0.878760 0.925310
vt 0.884610 0.910290
vt 0.884610 0.920660
vt 0.843910 0.900220
vt 0.851800 0.902330
vt 0.861340 0.903250
vt 0.870870 0.902330
vt 0.878760 0.900220
vt 0.884610 0.897900
vt 0.843910 0.884180
vt 0.851800 0.884180
vt 0.861340 0.884180
vt 0.870870 0.884180
vt 0.878760 0.884180
vt 0.884610 0.884180
vt 0.843910 0.868140
vt 0.851800 0.866030
vt 0.861340 0.865110
vt 0.870870 0.866030
vt 0.878760 0.868140
vt 0.884610 0.870460
vt 0.843910 0.854160
vt 0.851800 0.850750
vt 0.861340 0.849330
vt 0.870870 0.850750
vt 0.878760 0.854160
vt 0.884610 0.858070
vt 0.843910 0.843050
vt 0.851800 0.839190
vt 0.861340 0.837630
vt 0.870870 0.839190
vt 0.878760 0.843050
vt 0.884610 0.847700
vt 0.890460 0.914200
vt 0.890460 0.925310
vt 0.898350 0.917610
vt 0.898350 0.929170
vt 0.907890 0.919030
vt 0.907890 0.930730
vt 0.917420 0.917610
vt 0.917420 0.929170
vt 0.925310 0.914200
vt 0.925310 0.925310
vt 0.890460 0.900220
vt 0.898350 0.902330
vt 0.907890 0.903250
vt 0.917420 0.902330
vt 0.925310 0.900220
vt 0.890460 0.884180
vt 0.898350 0.884180
vt 0.907890 0.884180
vt 0.917420 0.884180
vt 0.925310 0.884180
vt 0.890460 0.868140
vt 0.898350 0.866030
vt 0.907890 0.865110
vt 0.917420 0.866030
vt 0.925310 0.868140
vt 0.890460 0.854160
vt 0.898350 0.850750
vt 0.907890 0.849330
vt 0.917420 0.850750
vt 0.925310 0.854160
vt 0.890460 0.843050
vt 0.898350 0.839190
vt 0.907890 0.837630
vt 0.917420 0.839190
vt 0.925310 0.843050
vt 0.884610 0.932480
vt 0.875080 0.939320
vt 0.861340 0.942430
vt 0.847600 0.939320
vt 0.838060 0.932480
vt 0.894150 0.939320
vt 0.884610 0.951170
vt 0.861340 0.958210
vt 0.838060 0.951170
vt 0.828530 0.939320
vt 0.907890 0.942430
vt 0.907890 0.958210
vt 0.907890 0.977280
vt 0.814790 0.958210
vt 0.814790 0.942430
vt 0.921630 0.939320
vt 0.931160 0.951170
vt 0.954440 0.958210
vt 0.977720 0.951170
vt 0.801050 0.939320
vt 0.791510 0.951170
vt 0.931160 0.932480
vt 0.940700 0.939320
vt 0.954440 0.942430
vt 0.781980 0.939320
vt 0.768240 0.958210
vt 0.768240 0.942430
vt 0.791510 0.932480
vt 0.884610 0.835880
vt 0.875080 0.829040
vt 0.861340 0.825930
vt 0.847600 0.829040
vt 0.838060 0.835880
vt 0.894150 0.829040
vt 0.884610 0.817190
vt 0.861340 0.810150
vt 0.838060 0.817190
vt 0.828530 0.829040
vt 0.907890 0.825930
vt 0.907890 0.810150
vt 0.907890 0.791080
vt 0.814790 0.810150
vt 0.814790 0.825930
vt 0.921630 0.829040
vt 0.931160 0.817190
vt 0.954440 0.810150
vt 0.908500 0.791820
vt 0.791510 0.817190
vt 0.768240 0.810150
vt 0.801050 0.829040
vt 0.931160 0.835880
vt 0.940700 0.829040
vt 0.954440 0.825930
vt 0.781980 0.829040
vt 0.768240 0.825930
vt 0.791510 0.835880
s 1
f 8/1/1 2/2/2 1/3/3
f 7/4/4 8/1/1 1/3/3
f 9/5/5 3/6/6 2/2/2
f 8/1/1 9/5/5 2/2/2
f 10/7/7 4/8/8 3/6/6
f 9/5/5 10/7/7 3/6/6
f 10/9/7 11/10/9 5/11/10
f 4/12/8 10/9/7 5/11/10
f 11/10/9 12/13/11 6/14/12
f 5/11/10 11/10/9 6/14/12
f 12/13/11 49/15/13 43/16/14
f 6/14/12 12/13/11 43/16/14
f 14/17/15 8/1/1 7/4/4
f 13/18/16 14/17/15 7/4/4
f 15/19/17 9/5/5 8/1/1
f 14/17/15 15/19/17 8/1/1
f 16/20/18 10/7/7 9/5/5
f 15/19/17 16/20/18 9/5/5
f 16/21/18 17/22/19 11/10/9
f 10/9/7 16/21/18 11/10/9
f 17/22/19 18/23/20 12/13/11
f 11/10/9 17/22/19 12/13/11
f 18/23/20 55/24/21 49/15/13
f 12/13/11 18/23/20 49/15/13
f 20/25/22 14/17/15 13/18/16
f 19/26/23 20/25/22 13/18/16
f 21/27/24 15/19/17 14/17/15
f 20/25/22 21/27/24 14/17/15
f 22/28/25 16/20/18 15/19/17
f 21/27/24 22/28/25 15/19/17
f 22/29/25 23/30/26 17/22/19
f 16/21/18 22/29/25 17/22/19
f 23/30/26 24/31/27 18/23/20
f 17/22/19 23/30/26 18/23/20
f 24/31/27 61/32/28 55/24/21
f 18/23/20 24/31/27 55/24/21
f 25/33/29 26/34/30 20/25/22
f 19/26/23 25/33/29 20/25/22
f 26/34/30 27/35/31 21/27/24
f 20/25/22 26/34/30 21/27/24
f 27/35/31 28/36/32 22/28/25
f 21/27/24 27/35/31 22/28/25
f 29/37/33 23/30/26 22/29/25
f 28/38/32 29/37/33 22/29/25
f 30/39/34 24/31/27 23/30/26
f 29/37/33 30/39/34 23/30/26
f 67/40/35 61/32/28 24/31/27
f 30/39/34 67/40/35 24/31/27
f 31/41/36 32/42/37 26/34/30
f 25/33/29 31/41/36 26/34/30
f 32/42/37 33/43/38 27/35/31
f 26/34/30 32/42/37 27/35/31
f 33/43/38 34/44/39 28/36/32
f 27/35/31 33/43/38 28/36/32
f 35/45/40 29/37/33 28/38/32
f 34/46/39 35/45/40 28/38/32
f 36/47/41 30/39/34 29/37/33
f 35/45/40 36/47/41 29/37/33
f 73/48/42 67/40/35 30/39/34
f 36/47/41 73/48/42 30/39/34
f 37/49/43 38/50/44 32/42/37
f 31/41/36 37/49/43 32/42/37
f 38/50/44 39/51/45 33/43/38
f 32/42/37 38/50/44 33/43/38
f 39/51/45 40/52/46 34/44/39
f 33/43/38 39/51/45 34/44/39
f 41/53/47 35/45/40 34/46/39
f 40/54/46 41/53/47 34/46/39
f 42/55/48 36/47/41 35/45/40
f 41/53/47 42/55/48 35/45/40
f 79/56/49 73/48/42 36/47/41
f 42/55/48 79/56/49 36/47/41
f 50/57/50 44/58/51 43/16/14
f 49/15/13 50/57/50 43/16/14
f 51/59/52 45/60/53 44/58/51
f 50/57/50 51/59/52 44/58/51
f 52/61/54 46/62/55 45/60/53
f 51/59/52 52/61/54 45/60/53
f 52/61/54 53/63/56 47/64/57
f 46/62/55 52/61/54 47/64/57
f 53/63/56 54/65/58 48/66/59
f 47/64/57 53/63/56 48/66/59
f 54/65/58 91/67/60 85/68/61
f 48/66/59 54/65/58 85/68/61
f 56/69/62 50/57/50 49/15/13
f 55/24/21 56/69/62 49/15/13
f 57/70/63 51/59/52 50/57/50
f 56/69/62 57/70/63 50/57/50
f 58/71/64 52/61/54 51/59/52
f 57/70/63 58/71/64 51/59/52
f 58/71/64 59/72/65 53/63/56
f 52/61/54 58/71/64 53/63/56
f 59/72/65 60/73/66 54/65/58
f 53/63/56 59/72/65 54/65/58
f 60/73/66 97/74/67 91/67/60
f 54/65/58 60/73/66 91/67/60
f 62/75/68 56/69/62 55/24/21
f 61/32/28 62/75/68 55/24/21
f 63/76/69 57/70/63 56/69/62
f 62/75/68 63/76/69 56/69/62
f 64/77/70 58/71/64 57/70/63
f 63/76/69 64/77/70 57/70/63
f 64/77/70 65/78/71 59/72/65
f 58/71/64 64/77/70 59/72/65
f 65/78/71 66/79/72 60/73/66
f 59/72/65 65/78/71 60/73/66
f 66/79/72 103/80/73 97/74/67
f 60/73/66 66/79/72 97/74/67
f 67/40/35 68/81/74 62/75/68
f 61/32/28 67/40/35 62/75/68
f 68/81/74 69/82/75 63/76/69
f 62/75/68 68/81/74 63/76/69
f 69/82/75 70/83/76 64/77/70
f 63/76/69 69/82/75 64/77/70
f 71/84/77 65/78/71 64/77/70
f 70/83/76 71/84/77 64/77/70
f 72/85/78 66/79/72 65/78/71
f 71/84/77 72/85/78 65/78/71
f 109/86/79 103/80/73 66/79/72
f 72/85/78 109/86/79 66/79/72
f 73/48/42 74/87/80 68/81/74
f 67/40/35 73/48/42 68/81/74
f 74/87/80 75/88/81 69/82/75
f 68/81/74 74/87/80 69/82/75
f 75/88/81 76/89/82 70/83/76
f 69/82/75 75/88/81 70/83/76
f 77/90/83 71/84/77 70/83/76
f 76/89/82 77/90/83 70/83/76
f 78/91/84 72/85/78 71/84/77
f 77/90/83 78/91/84 71/84/77
f 115/92/85 109/86/79 72/85/78
f 78/91/84 115/92/85 72/85/78
f 79/56/49 80/93/86 74/87/80
f 73/48/42 79/56/49 74/87/80
f 80/93/86 81/94/87 75/88/81
f 74/87/80 80/93/86 75/88/81
f 81/94/87 82/95/88 76/89/82
f 75/88/81 81/94/87 76/89/82
f 83/96/89 77/90/83 76/89/82
f 82/95/88 83/96/89 76/89/82
f 84/97/90 78/91/84 77/90/83
f 83/96/89 84/97/90 77/90/83
f 121/98/91 115/92/85 78/91/84
f 84/97/90 121/98/91 78/91/84
f 92/99/92 86/100/93 85/68/61
f 91/67/60 92/99/92 85/68/61
f 93/101/94 87/102/95 86/100/93
f 92/99/92 93/101/94 86/100/93
f 94/103/96 88/104/97 87/102/95
f 93/101/94 94/103/96 87/102/95
f 94/103/96 95/105/98 89/106/99
f 88/104/97 94/103/96 89/106/99
f 95/105/98 96/107/100 90/108/101
f 89/106/99 95/105/98 90/108/101
f 96/107/100 133/109/102 127/110/103
f 90/108/101 96/107/100 127/110/103
f 98/111/104 92/99/92 91/67/60
f 97/74/67 98/111/104 91/67/60
f 99/112/105 93/101/94 92/99/92
f 98/111/104 99/112/105 92/99/92
f 100/113/106 94/103/96 93/101/94
f 99/112/105 100/113/106 93/101/94
f 100/113/106 101/114/107 95/105/98
f 94/103/96 100/113/106 95/105/98
f 101/114/107 102/115/108 96/107/100
f 95/105/98 101/114/107 96/107/100
f 102/115/108 139/116/109 133/109/102
f 96/107/100 102/115/108 133/109/102
f 104/117/110 98/111/104 97/74/67
f 103/80/73 104/117/110 97/74/67
f 105/118/111 99/112/105 98/111/104
f 104/117/110 105/118/111 98/111/104
f 106/119/112 100/113/106 99/112/105
f 105/118/111 106/119/112 99/112/105
f 106/119/112 107/120/113 101/114/107
f 100/113/106 106/119/112 101/114/107
f 107/120/113 108/121/114 102/115/108
f 101/114/107 107/120/113 102/115/108
f 108/121/114 145/122/115 139/116/109
f 102/115/108 108/121/114 139/116/109
f 109/86/79 110/123/116 104/117/110
f 103/80/73 109/86/79 104/117/110
f 110/123/116 111/124/117 105/118/111
f 104/117/110 110/123/116 105/118/111
f 111/124/117 112/125/118 106/119/112
f 105/118/111 111/124/117 106/119/112
f 113/126/119 107/120/113 106/119/112
f 112/125/118 113/126/119 106/119/112
f 114/127/120 108/121/114 107/120/113
f 113/126/119 114/127/120 107/120/113
f 151/128/121 145/122/115 108/121/114
f 114/127/120 151/128/121 108/121/114
f 115/92/85 116/129/122 110/123/116
f 109/86/79 115/92/85 110/123/116
f 116/129/122 117/130/123 111/124/117
f 110/123/116 116/129/122 111/124/117
f 117/130/123 118/131/124 112/125/118
f 111/124/117 117/130/123 112/125/118
f 119/132/125 113/126/119 112/125/118
f 118/131/124 119/132/125 112/125/118
f 120/133/126 114/127/120 113/126/119
f 119/132/125 120/133/126 113/126/119
f 157/134/127 151/128/121 114/127/120
f 120/133/126 157/134/127 114/127/120
f 121/98/91 122/135/128 116/129/122
f 115/92/85 121/98/91 116/129/122
f 122/135/128 123/136/129 117/130/123
f 116/129/122 122/135/128 117/130/123
f 123/136/129 124/137/130 118/131/124
f 117/130/123 123/136/129 118/131/124
f 125/138/131 119/132/125 118/131/124
f 124/137/130 125/138/131 118/131/124
f 126/139/132 120/133/126 119/132/125
f 125/138/131 126/139/132 119/132/125
f 163/140/133 157/134/127 120/133/126
f 126/139/132 163/140/133 120/133/126
f 134/141/134 128/142/135 127/110/103
f 133/109/102 134/141/134 127/110/103
f 135/143/136 129/144/137 128/142/135
f 134/141/134 135/143/136 128/142/135
f 136/145/138 130/146/139 129/144/137
f 135/143/136 136/145/138 129/144/137
f 136/145/138 137/147/140 131/148/141
f 130/146/139 136/145/138 131/148/141
f 137/147/140 138/149/142 132/150/143
f 131/148/141 137/147/140 132/150/143
f 138/149/142 7/4/4 1/3/3
f 132/150/143 138/149/142 1/3/3
f 140/151/144 134/141/134 133/109/102
f 139/116/109 140/151/144 133/109/102
f 141/152/145 135/143/136 134/141/134
f 140/151/144 141/152/145 134/141/134
f 142/153/146 136/145/138 135/143/136
f 141/152/145 142/153/146 135/143/136
f 142/153/146 143/154/147 137/147/140
f 136/145/138 142/153/146 137/147/140
f 143/154/147 144/155/148 138/149/142
f 137/147/140 143/154/147 138/149/142
f 144/155/148 13/18/16 7/4/4
f 138/149/142 144/155/148 7/4/4
f 146/156/149 140/151/144 139/116/109
f 145/122/115 146/156/149 139/116/109
f 147/157/150 141/152/145 140/151/144
f 146/156/149 147/157/150 140/151/144
f 148/158/151 142/153/146 141/152/145
f 147/157/150 148/158/151 141/152/145
f 148/158/151 149/159/152 143/154/147
f 142/153/146 148/158/151 143/154/147
f 149/159/152 150/160/153 144/155/148
f 143/154/147 149/159/152 144/155/148
f 150/160/153 19/26/23 13/18/16
f 144/155/148 150/160/153 13/18/16
f 151/128/121 152/161/154 146/156/149
f 145/122/115 151/128/121 146/156/149
f 152/161/154 153/162/155 147/157/150
f 146/156/149 152/161/154 147/157/150
f 153/162/155 154/163/156 148/158/151
f 147/157/150 153/162/155 148/158/151
f 155/164/157 149/159/152 148/158/151
f 154/163/156 155/164/157 148/158/151
f 156/165/158 150/160/153 149/159/152
f 155/164/157 156/165/158 149/159/152
f 25/33/29 19/26/23 150/160/153
f 156/165/158 25/33/29 150/160/153
f 157/134/127 158/166/159 152/161/154
f 151/128/121 157/134/127 152/161/154
f 158/166/159 159/167/160 153/162/155
f 152/161/154 158/166/159 153/162/155
f 159/167/160 160/168/161 154/163/156
f 153/162/155 159/167/160 154/163/156
f 161/169/162 155/164/157 154/163/156
f 160/168/161 161/169/162 154/163/156
f 162/170/163 156/165/158 155/164/157
f 161/169/162 162/170/163 155/164/157
f 31/41/36 25/33/29 156/165/158
f 162/170/163 31/41/36 156/165/158
f 163/140/133 164/171/164 158/166/159
f 157/134/127 163/140/133 158/166/159
f 164/171/164 165/172/165 159/167/160
f 158/166/159 164/171/164 159/167/160
f 165/172/165 166/173/166 160/168/161
f 159/167/160 165/172/165 160/168/161
f 167/174/167 161/169/162 160/168/161
f 166/173/166 167/174/167 160/168/161
f 168/175/168 162/170/163 161/169/162
f 167/174/167 168/175/168 161/169/162
f 37/49/43 31/41/36 162/170/163
f 168/175/168 37/49/43 162/170/163
f 169/176/169 90/108/101 127/110/103
f 128/142/135 169/176/169 127/110/103
f 170/177/170 89/106/99 90/108/101
f 169/176/169 170/177/170 90/108/101
f 171/178/171 88/104/97 89/106/99
f 170/177/170 171/178/171 89/106/99
f 171/178/171 172/179/172 87/102/95
f 88/104/97 171/178/171 87/102/95
f 172/179/172 173/180/173 86/100/93
f 87/102/95 172/179/172 86/100/93
f 173/180/173 48/66/59 85/68/61
f 86/100/93 173/180/173 85/68/61
f 174/181/174 169/176/169 128/142/135
f 129/144/137 174/181/174 128/142/135
f 175/182/175 170/177/170 169/176/169
f 174/181/174 175/182/175 169/176/169
f 176/183/176 171/178/171 170/177/170
f 175/182/175 176/183/176 170/177/170
f 176/183/176 177/184/177 172/179/172
f 171/178/171 176/183/176 172/179/172
f 177/184/177 178/185/178 173/180/173
f 172/179/172 177/184/177 173/180/173
f 178/185/178 47/64/57 48/66/59
f 173/180/173 178/185/178 48/66/59
f 179/186/179 174/181/174 129/144/137
f 130/146/139 179/186/179 129/144/137
f 180/187/180 175/182/175 174/181/174
f 179/186/179 180/187/180 174/181/174
f 181/188/181 176/183/176 175/182/175
f 180/187/180 181/188/181 175/182/175
f 181/188/181 182/189/182 177/184/177
f 176/183/176 181/188/181 177/184/177
f 182/189/182 183/190/183 178/185/178
f 177/184/177 182/189/182 178/185/178
f 183/190/183 46/62/55 47/64/57
f 178/185/178 183/190/183 47/64/57
f 131/148/141 184/191/184 179/186/179
f 130/146/139 131/148/141 179/186/179
f 184/191/184 185/192/185 180/187/180
f 179/186/179 184/191/184 180/187/180
f 185/192/185 186/193/186 181/188/181
f 180/187/180 185/192/185 181/188/181
f 187/194/187 182/189/182 181/188/181
f 186/193/186 187/194/187 181/188/181
f 188/195/188 183/190/183 182/189/182
f 187/196/187 188/195/188 182/189/182
f 45/60/53 46/62/55 183/190/183
f 188/195/188 45/60/53 183/190/183
f 132/150/143 189/197/189 184/191/184
f 131/148/141 132/150/143 184/191/184
f 189/197/189 190/198/190 185/192/185
f 184/191/184 189/197/189 185/192/185
f 190/198/190 191/199/191 186/193/186
f 185/192/185 190/198/190 186/193/186
f 192/200/192 187/196/187 186/201/186
f 191/202/191 192/200/192 186/201/186
f 193/203/193 188/195/188 187/196/187
f 192/200/192 193/203/193 187/196/187
f 44/58/51 45/60/53 188/195/188
f 193/203/193 44/58/51 188/195/188
f 1/3/3 2/2/2 189/197/189
f 132/150/143 1/3/3 189/197/189
f 2/2/2 3/6/6 190/198/190
f 189/197/189 2/2/2 190/198/190
f 3/6/6 4/8/8 191/199/191
f 190/198/190 3/6/6 191/199/191
f 5/11/10 192/200/192 191/202/191
f 4/12/8 5/11/10 191/202/191
f 6/14/12 193/203/193 192/200/192
f 5/11/10 6/14/12 192/200/192
f 43/16/14 44/58/51 193/203/193
f 6/14/12 43/16/14 193/203/193
f 163/140/133 126/139/132 194/204/194
f 164/171/164 163/140/133 194/204/194
f 126/139/132 125/138/131 195/205/195
f 194/204/194 126/139/132 195/205/195
f 125/138/131 124/137/130 196/206/196
f 195/205/195 125/138/131 196/206/196
f 123/136/129 197/207/197 196/206/196
f 124/137/130 123/136/129 196/206/196
f 122/135/128 198/208/198 197/207/197
f 123/136/129 122/135/128 197/207/197
f 121/98/91 84/97/90 198/208/198
f 122/135/128 121/98/91 198/208/198
f 164/171/164 194/204/194 199/209/199
f 165/172/165 164/171/164 199/209/199
f 194/204/194 195/205/195 200/210/200
f 199/209/199 194/204/194 200/210/200
f 195/205/195 196/206/196 201/211/201
f 200/210/200 195/205/195 201/211/201
f 197/207/197 202/212/202 201/211/201
f 196/206/196 197/207/197 201/211/201
f 198/208/198 203/213/203 202/212/202
f 197/207/197 198/208/198 202/212/202
f 84/97/90 83/96/89 203/213/203
f 198/208/198 84/97/90 203/213/203
f 165/172/165 199/209/199 204/214/204
f 166/173/166 165/172/165 204/214/204
f 199/209/199 200/210/200 205/215/205
f 204/214/204 199/209/199 205/215/205
f 200/210/200 201/211/201 206/216/206
f 205/215/205 200/210/200 206/216/206
f 202/212/202 207/217/207 206/216/206
f 201/211/201 202/212/202 206/216/206
f 203/213/203 208/218/208 207/217/207
f 202/212/202 203/213/203 207/217/207
f 83/96/89 82/95/88 208/218/208
f 203/213/203 83/96/89 208/218/208
f 204/214/204 209/219/209 167/174/167
f 166/173/166 204/214/204 167/174/167
f 205/215/205 210/220/210 209/219/209
f 204/214/204 205/215/205 209/219/209
f 206/216/206 211/221/211 210/220/210
f 205/215/205 206/216/206 210/220/210
f 206/222/206 207/217/207 212/223/212
f 211/224/211 206/222/206 212/223/212
f 207/217/207 208/218/208 213/225/213
f 212/223/212 207/217/207 213/225/213
f 208/218/208 82/95/88 81/94/87
f 213/225/213 208/218/208 81/94/87
f 209/219/209 214/226/214 168/175/168
f 167/174/167 209/219/209 168/175/168
f 210/220/210 215/227/215 214/226/214
f 209/219/209 210/220/210 214/226/214
f 211/221/211 216/228/216 215/227/215
f 210/220/210 211/221/211 215/227/215
f 211/224/211 212/223/212 217/229/217
f 216/230/216 211/224/211 217/229/217
f 212/223/212 213/225/213 218/231/218
f 217/229/217 212/223/212 218/231/218
f 213/225/213 81/94/87 80/93/86
f 218/231/218 213/225/213 80/93/86
f 214/226/214 38/50/44 37/49/43
f 168/175/168 214/226/214 37/49/43
f 215/227/215 39/51/45 38/50/44
f 214/226/214 215/227/215 38/50/44
f 216/228/216 40/52/46 39/51/45
f 215/227/215 216/228/216 39/51/45
f 216/230/216 217/229/217 41/53/47
f 40/54/46 216/230/216 41/53/47
f 217/229/217 218/231/218 42/55/48
f 41/53/47 217/229/217 42/55/48
f 218/231/218 80/93/86 79/56/49
f 42/55/48 218/231/218 79/56/49
o wind
v 0.000000 124.100006 -0.000010
v -24.525196 121.609772 -0.000010
v -48.107910 113.334793 -0.000009
v -63.321671 104.051369 -0.000009
v -79.366837 89.699760 -0.000008
v -90.547096 73.896111 -0.000006
v -101.145897 50.979725 -0.000005
v -103.452805 22.919804 -0.000002
v 0.000000 109.700005 2.699991
v -21.800175 107.486481 2.699991
v -42.762589 100.030930 2.699992
v -60.149742 89.549873 2.699992
v -75.628288 74.324028 2.699994
v -85.124466 61.477501 2.429995
v -93.483307 42.740780 1.889996
v -97.361504 25.890373 1.889997
v 0.000000 91.880005 -0.000008
v -19.620159 89.887833 -0.000008
v -38.486332 83.087845 -0.000007
v -55.873486 73.506783 -0.000006
v -71.113457 62.412834 -0.000005
v -81.874580 47.601528 -0.000004
v -87.507126 35.054096 -0.000003
v -91.711403 21.896765 -0.000002
v -95.413147 -10.210472 0.000000
v 24.525196 121.609772 -0.000010
v 48.107910 113.334793 -0.000009
v 63.321671 104.051369 -0.000009
v 79.366837 89.699760 -0.000008
v 90.547096 73.896111 -0.000006
v 101.145897 50.979725 -0.000005
v 103.452805 22.919804 -0.000002
v 21.800175 107.486481 2.699991
v 42.762589 100.030930 2.699992
v 60.149742 89.549873 2.699992
v 75.628288 74.324028 2.699994
v 85.124466 61.477501 2.429995
v 93.483307 42.740780 1.889996
v 97.361504 25.890373 1.889997
v 19.620159 89.887833 -0.000008
v 38.486332 83.087845 -0.000007
v 55.873486 73.506783 -0.000006
v 71.113457 62.412834 -0.000005
v 81.874580 47.601528 -0.000004
v 87.507126 35.054096 -0.000003
v 91.711403 21.896765 -0.000002
v 95.413147 -10.210472 0.000000
v 0.000000 109.700005 -2.700009
v -21.800175 107.486481 -2.700009
v -42.762589 100.030930 -2.700009
v -60.149742 89.549873 -2.700008
v -75.628288 74.324028 -2.700006
v -85.124466 61.477501 -2.430006
v -93.483307 42.740780 -1.890004
v -97.361504 25.890373 -1.890003
v 21.800175 107.486481 -2.700009
v 42.762589 100.030930 -2.700009
v 60.149742 89.549873 -2.700008
v 75.628288 74.324028 -2.700006
v 85.124466 61.477501 -2.430006
v 93.483307 42.740780 -1.890004
v 97.361504 25.890373 -1.890003
v 103.680008 -1.000000 -0.000000
v 95.787834 -31.766626 -0.899996
v 86.206779 -49.691525 -0.899995
v 73.312836 -65.402832 -0.899994
v 57.601528 -78.296776 -0.899993
v 39.676624 -87.877831 -0.899992
v 20.226965 -93.777824 -0.899992
v -0.000000 -95.770004 -0.899991
v -103.680008 -1.000000 -0.000000
v -101.687828 -21.226965 0.000002
v -95.787834 -40.676624 0.000003
v -86.206779 -58.601528 0.000004
v -73.312836 -74.312836 0.000006
v -57.601528 -87.206779 0.000007
v -39.676624 -96.787834 0.000007
v -20.226965 -102.687820 0.000008
v 0.000000 -104.680008 0.000008
v 20.226965 -102.687820 0.000008
v 39.676624 -96.787834 0.000007
v 57.601528 -87.206779 0.000007
v 73.312836 -74.312836 0.000006
v 86.206779 -58.601528 0.000004
v 95.787834 -40.676624 0.000003
v 101.687828 -21.226965 0.000002
v -20.226965 -93.777824 -0.899992
v -39.676624 -87.877831 -0.899992
v -57.601528 -78.296776 -0.899993
v -73.312836 -65.402832 -0.899994
v -86.206779 -49.691525 -0.899995
v -95.787834 -31.766626 -0.899996
v 95.787834 -31.766626 0.900001
v 86.206779 -49.691525 0.900002
v 73.312836 -65.402832 0.900003
v 57.601528 -78.296776 0.900004
v 39.676624 -87.877831 0.900005
v 20.226965 -93.777824 0.900006
v -0.000000 -95.770004 0.900006
v -20.226965 -93.777824 0.900006
v -39.676624 -87.877831 0.900005
v -57.601528 -78.296776 0.900004
v -73.312836 -65.402832 0.900003
v -86.206779 -49.691525 0.900002
v -95.787834 -31.766626 0.900001
vn -0.0977 0.1601 0.9823
vn -0.1363 0.1524 0.9789
vn -0.1802 0.1275 0.9753
vn -0.2116 0.0979 0.9724
vn -0.2210 0.0182 0.9751
vn -0.0187 0.1843 0.9827
vn -0.0617 0.1759 0.9825
vn 0.0823 -0.1365 0.9872
vn 0.1289 -0.1311 0.9830
vn 0.1788 -0.1526 0.9720
vn 0.2953 -0.0340 0.9548
vn 0.2087 -0.1211 0.9705
vn 0.2367 -0.0545 0.9701
vn -0.2668 -0.0647 0.9616
vn 0.0152 -0.1498 0.9886
vn 0.0516 -0.1452 0.9881
vn 0.0974 0.1615 0.9820
vn 0.1367 0.1390 0.9808
vn 0.1801 0.1126 0.9772
vn 0.1842 0.0539 0.9814
vn 0.3290 0.0757 0.9413
vn 0.0187 0.1843 0.9827
vn 0.0621 0.1745 0.9827
vn -0.0823 -0.1365 0.9872
vn -0.1289 -0.1311 0.9830
vn -0.1788 -0.1526 0.9720
vn -0.2953 -0.0340 0.9548
vn -0.2087 -0.1211 0.9705
vn -0.2367 -0.0545 0.9701
vn 0.2668 -0.0647 0.9616
vn -0.0152 -0.1498 0.9886
vn -0.0516 -0.1452 0.9881
vn -0.0974 0.1615 -0.9820
vn -0.1367 0.1390 -0.9808
vn -0.1801 0.1126 -0.9772
vn -0.1842 0.0539 -0.9814
vn -0.3290 0.0757 -0.9413
vn -0.0187 0.1843 -0.9827
vn -0.0621 0.1745 -0.9827
vn 0.0823 -0.1365 -0.9872
vn 0.1289 -0.1311 -0.9830
vn 0.1788 -0.1526 -0.9720
vn 0.2953 -0.0340 -0.9548
vn 0.2087 -0.1211 -0.9705
vn 0.2367 -0.0545 -0.9701
vn -0.2668 -0.0647 -0.9616
vn 0.0152 -0.1498 -0.9886
vn 0.0516 -0.1452 -0.9881
vn 0.0977 0.1601 -0.9823
vn 0.1363 0.1524 -0.9789
vn 0.1802 0.1275 -0.9753
vn 0.2116 0.0979 -0.9724
vn 0.2210 0.0182 -0.9751
vn 0.0187 0.1843 -0.9827
vn 0.0617 0.1759 -0.9825
vn -0.0823 -0.1365 -0.9872
vn -0.1289 -0.1311 -0.9830
vn -0.1788 -0.1526 -0.9720
vn -0.2953 -0.0340 -0.9548
vn -0.2087 -0.1211 -0.9705
vn -0.2367 -0.0545 -0.9701
vn 0.2668 -0.0647 -0.9616
vn -0.0152 -0.1498 -0.9886
vn -0.0516 -0.1452 -0.9881
vn -0.0974 0.1615 0.9820
vn -0.1367 0.1390 0.9808
vn -0.1801 0.1126 0.9772
vn -0.1842 0.0539 0.9814
vn -0.3290 0.0757 0.9413
vn -0.0621 0.1745 0.9827
vn 0.0798 -0.1447 0.9863
vn 0.1263 -0.1735 0.9767
vn 0.1778 -0.1292 0.9755
vn 0.1958 -0.0879 0.9767
vn 0.2623 -0.0838 0.9613
vn 0.0520 -0.1443 0.9882
vn 0.0977 0.1601 0.9823
vn 0.1363 0.1524 0.9789
vn 0.1802 0.1275 0.9753
vn 0.2116 0.0979 0.9724
vn 0.2210 0.0182 0.9751
vn 0.0617 0.1759 0.9825
vn -0.0798 -0.1447 0.9863
vn -0.1263 -0.1735 0.9767
vn -0.1778 -0.1292 0.9755
vn -0.1958 -0.0879 0.9767
vn -0.2623 -0.0838 0.9613
vn -0.0520 -0.1443 0.9882
vn -0.0977 0.1601 -0.9823
vn -0.1363 0.1524 -0.9789
vn -0.1802 0.1275 -0.9753
vn -0.2116 0.0979 -0.9724
vn -0.2210 0.0182 -0.9751
vn -0.0617 0.1759 -0.9825
vn 0.0798 -0.1447 -0.9863
vn 0.1263 -0.1735 -0.9767
vn 0.1778 -0.1292 -0.9755
vn 0.1958 -0.0879 -0.9767
vn 0.2623 -0.0838 -0.9613
vn 0.0520 -0.1443 -0.9882
vn 0.0974 0.1615 -0.9820
vn 0.1367 0.1390 -0.9808
vn 0.1801 0.1126 -0.9772
vn 0.1842 0.0539 -0.9814
vn 0.3290 0.0757 -0.9413
vn 0.0621 0.1745 -0.9827
vn -0.0798 -0.1447 -0.9863
vn -0.1263 -0.1735 -0.9767
vn -0.1778 -0.1292 -0.9755
vn -0.1958 -0.0879 -0.9767
vn -0.2623 -0.0838 -0.9613
vn -0.0520 -0.1443 -0.9882
vn -0.3145 -0.0954 -0.9445
vn 0.0305 -0.1005 -0.9945
vn -0.1848 -0.0988 -0.9778
vn 0.0536 -0.1004 -0.9935
vn -0.1215 -0.0998 -0.9876
vn 0.0822 -0.1002 -0.9916
vn -0.0822 -0.1002 -0.9916
vn 0.1215 -0.0998 -0.9876
vn -0.0536 -0.1004 -0.9935
vn 0.1848 -0.0988 -0.9778
vn -0.0305 -0.1005 -0.9945
vn 0.1820 -0.0179 -0.9831
vn -0.0099 -0.1005 -0.9949
vn 0.0099 -0.1005 -0.9949
vn -0.3145 -0.0954 0.9445
vn 0.0305 -0.1005 0.9945
vn -0.1848 -0.0988 0.9778
vn 0.0536 -0.1004 0.9935
vn -0.1215 -0.0998 0.9876
vn 0.0822 -0.1002 0.9916
vn -0.0822 -0.1002 0.9916
vn 0.1215 -0.0998 0.9876
vn -0.0536 -0.1004 0.9935
vn 0.1848 -0.0988 0.9778
vn -0.0305 -0.1005 0.9945
vn 0.3145 -0.0954 0.9445
vn -0.0099 -0.1005 0.9949
vn 0.0099 -0.1005 0.9949
vn -0.1820 -0.0179 -0.9831
vn 0.3145 -0.0954 -0.9445
vn -0.1820 -0.0179 0.9831
vn 0.1820 -0.0179 0.9831
vt 0.590606 0.403185
vt 0.540896 0.455496
vt 0.553821 0.403185
vt 0.629402 0.403185
vt 0.582937 0.455496
vt 0.656435 0.403185
vt 0.620363 0.455496
vt 0.682062 0.403185
vt 0.643324 0.455496
vt 0.687640 0.403185
vt 0.663535 0.455496
vt 0.490211 0.455496
vt 0.437500 0.403185
vt 0.496800 0.403185
vt 0.530557 0.702713
vt 0.572597 0.702713
vt 0.609446 0.702713
vt 0.659250 0.702713
vt 0.672912 0.455496
vt 0.668201 0.702713
vt 0.635466 0.702713
vt 0.649085 0.702713
vt 0.437500 0.702713
vt 0.437500 0.455496
vt 0.484940 0.702713
vt 0.284394 0.403185
vt 0.334104 0.455496
vt 0.292063 0.455496
vt 0.245598 0.403185
vt 0.254637 0.455496
vt 0.218565 0.403185
vt 0.231676 0.455496
vt 0.192938 0.403185
vt 0.211466 0.455496
vt 0.187360 0.403185
vt 0.202088 0.455496
vt 0.384789 0.455496
vt 0.378200 0.403185
vt 0.321179 0.403185
vt 0.344443 0.702713
vt 0.302403 0.702713
vt 0.265554 0.702713
vt 0.215750 0.702713
vt 0.206799 0.702713
vt 0.239534 0.702713
vt 0.225915 0.702713
vt 0.390060 0.702713
vt 0.590606 0.399080
vt 0.540896 0.346768
vt 0.582937 0.346768
vt 0.629402 0.399080
vt 0.620363 0.346768
vt 0.656435 0.399080
vt 0.643324 0.346768
vt 0.682062 0.399080
vt 0.663535 0.346768
vt 0.687640 0.399080
vt 0.672912 0.346768
vt 0.437500 0.399079
vt 0.490211 0.346768
vt 0.496800 0.399079
vt 0.553821 0.399079
vt 0.530557 0.099552
vt 0.572597 0.099552
vt 0.609446 0.099552
vt 0.659250 0.099552
vt 0.668201 0.099552
vt 0.635466 0.099552
vt 0.649085 0.099552
vt 0.437500 0.099552
vt 0.437500 0.346768
vt 0.484940 0.099552
vt 0.284394 0.399079
vt 0.334104 0.346768
vt 0.321179 0.399079
vt 0.245598 0.399079
vt 0.292063 0.346768
vt 0.218565 0.399079
vt 0.254637 0.346768
vt 0.192938 0.399079
vt 0.231676 0.346768
vt 0.187360 0.399079
vt 0.211466 0.346768
vt 0.384789 0.346768
vt 0.378200 0.399079
vt 0.344443 0.099552
vt 0.302403 0.099552
vt 0.265554 0.099552
vt 0.215750 0.099552
vt 0.202088 0.346768
vt 0.206799 0.099552
vt 0.239534 0.099552
vt 0.225915 0.099552
vt 0.390060 0.099552
vt 0.176661 0.572650
vt 0.199828 0.564461
vt 0.219758 0.571408
vt 0.585273 0.560875
vt 0.543277 0.541322
vt 0.592736 0.541698
vt 0.247418 0.559348
vt 0.265121 0.570101
vt 0.630033 0.559585
vt 0.640904 0.542413
vt 0.294952 0.554901
vt 0.309867 0.568812
vt 0.674481 0.558305
vt 0.688570 0.543558
vt 0.342473 0.551012
vt 0.354314 0.567531
vt 0.719227 0.557015
vt 0.736281 0.545261
vt 0.390519 0.547525
vt 0.399075 0.566241
vt 0.764590 0.555708
vt 0.784087 0.547625
vt 0.439875 0.544302
vt 0.444873 0.564921
vt 0.807687 0.554466
vt 0.842174 0.553472
vt 0.491533 0.541322
vt 0.492174 0.563558
vt 0.539475 0.562195
vt 0.200261 0.579491
vt 0.544473 0.582814
vt 0.248067 0.581855
vt 0.593828 0.579591
vt 0.295777 0.583558
vt 0.641875 0.576104
vt 0.343444 0.584704
vt 0.689396 0.572215
vt 0.391611 0.585419
vt 0.736930 0.567768
vt 0.441071 0.585794
vt 0.784520 0.562655
vt 0.492815 0.585794
vt 0.142174 0.573644
s 0
f 222/232/219 229/233/219 221/234/219
f 223/235/220 230/236/220 222/232/220
f 224/237/221 231/238/221 223/235/221
f 225/239/222 232/240/222 224/237/222
f 226/241/223 233/242/223 225/239/223
f 228/243/224 219/244/224 220/245/224
f 221/234/225 228/243/225 220/245/225
f 230/236/226 237/246/226 229/233/226
f 231/238/227 238/247/227 230/236/227
f 232/240/228 239/248/228 231/238/228
f 242/249/229 234/250/229 243/251/229
f 233/242/230 240/252/230 232/240/230
f 234/250/231 241/253/231 233/242/231
f 234/250/232 226/241/232 243/251/232
f 228/243/233 235/254/233 227/255/233
f 229/233/234 236/256/234 228/243/234
f 246/257/235 252/258/235 253/259/235
f 247/260/236 253/259/236 254/261/236
f 248/262/237 254/261/237 255/263/237
f 249/264/238 255/263/238 256/265/238
f 250/266/239 256/265/239 257/267/239
f 219/244/240 251/268/240 244/269/240
f 245/270/241 251/268/241 252/258/241
f 259/271/242 253/259/242 252/258/242
f 260/272/243 254/261/243 253/259/243
f 261/273/244 255/263/244 254/261/244
f 264/274/245 265/275/245 257/267/245
f 262/276/246 256/265/246 255/263/246
f 263/277/247 257/267/247 256/265/247
f 257/267/248 265/275/248 250/266/248
f 235/254/249 251/268/249 227/255/249
f 258/278/250 252/258/250 251/268/250
f 222/279/251 268/280/251 269/281/251
f 223/282/252 269/281/252 270/283/252
f 224/284/253 270/283/253 271/285/253
f 225/286/254 271/285/254 272/287/254
f 226/288/255 272/287/255 273/289/255
f 219/290/256 267/291/256 220/292/256
f 221/293/257 267/291/257 268/280/257
f 237/294/258 269/281/258 268/280/258
f 238/295/259 270/283/259 269/281/259
f 239/296/260 271/285/260 270/283/260
f 242/297/261 243/298/261 273/289/261
f 240/299/262 272/287/262 271/285/262
f 241/300/263 273/289/263 272/287/263
f 273/289/264 243/298/264 226/288/264
f 235/301/265 267/291/265 266/302/265
f 236/303/266 268/280/266 267/291/266
f 246/304/267 275/305/267 245/306/267
f 247/307/268 276/308/268 246/304/268
f 248/309/269 277/310/269 247/307/269
f 249/311/270 278/312/270 248/309/270
f 250/313/271 279/314/271 249/311/271
f 274/315/272 219/290/272 244/316/272
f 245/306/273 274/315/273 244/316/273
f 276/308/274 259/317/274 275/305/274
f 277/310/275 260/318/275 276/308/275
f 278/312/276 261/319/276 277/310/276
f 264/320/277 280/321/277 265/322/277
f 279/314/278 262/323/278 278/312/278
f 280/321/279 263/324/279 279/314/279
f 280/321/280 250/313/280 265/322/280
f 274/315/281 235/301/281 266/302/281
f 275/305/282 258/325/282 274/315/282
f 222/232/283 230/236/283 229/233/283
f 223/235/284 231/238/284 230/236/284
f 224/237/285 232/240/285 231/238/285
f 225/239/286 233/242/286 232/240/286
f 226/241/287 234/250/287 233/242/287
f 228/243/224 227/255/224 219/244/224
f 221/234/288 229/233/288 228/243/288
f 230/236/289 238/247/289 237/246/289
f 231/238/290 239/248/290 238/247/290
f 232/240/291 240/252/291 239/248/291
f 233/242/292 241/253/292 240/252/292
f 234/250/293 242/249/293 241/253/293
f 228/243/233 236/256/233 235/254/233
f 229/233/294 237/246/294 236/256/294
f 246/257/295 245/270/295 252/258/295
f 247/260/296 246/257/296 253/259/296
f 248/262/297 247/260/297 254/261/297
f 249/264/298 248/262/298 255/263/298
f 250/266/299 249/264/299 256/265/299
f 219/244/240 227/255/240 251/268/240
f 245/270/300 244/269/300 251/268/300
f 259/271/301 260/272/301 253/259/301
f 260/272/302 261/273/302 254/261/302
f 261/273/303 262/276/303 255/263/303
f 262/276/304 263/277/304 256/265/304
f 263/277/305 264/274/305 257/267/305
f 235/254/249 258/278/249 251/268/249
f 258/278/306 259/271/306 252/258/306
f 222/279/307 221/293/307 268/280/307
f 223/282/308 222/279/308 269/281/308
f 224/284/309 223/282/309 270/283/309
f 225/286/310 224/284/310 271/285/310
f 226/288/311 225/286/311 272/287/311
f 219/290/256 266/302/256 267/291/256
f 221/293/312 220/292/312 267/291/312
f 237/294/313 238/295/313 269/281/313
f 238/295/314 239/296/314 270/283/314
f 239/296/315 240/299/315 271/285/315
f 240/299/316 241/300/316 272/287/316
f 241/300/317 242/297/317 273/289/317
f 235/301/265 236/303/265 267/291/265
f 236/303/318 237/294/318 268/280/318
f 246/304/319 276/308/319 275/305/319
f 247/307/320 277/310/320 276/308/320
f 248/309/321 278/312/321 277/310/321
f 249/311/322 279/314/322 278/312/322
f 250/313/323 280/321/323 279/314/323
f 274/315/272 266/302/272 219/290/272
f 245/306/324 275/305/324 274/315/324
f 276/308/325 260/318/325 259/317/325
f 277/310/326 261/319/326 260/318/326
f 278/312/327 262/323/327 261/319/327
f 279/314/328 263/324/328 262/323/328
f 280/321/329 264/320/329 263/324/329
f 274/315/281 258/325/281 235/301/281
f 275/305/330 259/317/330 258/325/330
f 290/326/331 310/327/331 291/328/331
f 299/329/332 287/330/332 286/331/332
f 291/328/333 309/332/333 292/333/333
f 300/334/334 286/331/334 285/335/334
f 292/333/335 308/336/335 293/337/335
f 301/338/336 285/335/336 284/339/336
f 293/337/337 307/340/337 294/341/337
f 302/342/338 284/339/338 283/343/338
f 294/341/339 306/344/339 295/345/339
f 303/346/340 283/343/340 282/347/340
f 295/345/341 305/348/341 296/349/341
f 304/350/342 282/347/342 281/351/342
f 296/349/343 288/352/343 297/353/343
f 298/354/344 288/352/344 287/330/344
f 323/355/345 290/326/345 291/328/345
f 299/329/346 316/356/346 298/354/346
f 322/357/347 291/328/347 292/333/347
f 300/334/348 315/358/348 299/329/348
f 321/359/349 292/333/349 293/337/349
f 301/338/350 314/360/350 300/334/350
f 320/361/351 293/337/351 294/341/351
f 302/342/352 313/362/352 301/338/352
f 319/363/353 294/341/353 295/345/353
f 303/346/354 312/364/354 302/342/354
f 318/365/355 295/345/355 296/349/355
f 304/350/356 311/366/356 303/346/356
f 317/367/357 296/349/357 297/353/357
f 298/354/358 317/367/358 297/353/358
f 290/326/359 289/368/359 310/327/359
f 299/329/332 298/354/332 287/330/332
f 291/328/333 310/327/333 309/332/333
f 300/334/334 299/329/334 286/331/334
f 292/333/335 309/332/335 308/336/335
f 301/338/336 300/334/336 285/335/336
f 293/337/337 308/336/337 307/340/337
f 302/342/338 301/338/338 284/339/338
f 294/341/339 307/340/339 306/344/339
f 303/346/340 302/342/340 283/343/340
f 295/345/341 306/344/341 305/348/341
f 304/350/360 303/346/360 282/347/360
f 296/349/343 305/348/343 288/352/343
f 298/354/344 297/353/344 288/352/344
f 323/355/361 289/368/361 290/326/361
f 299/329/346 315/358/346 316/356/346
f 322/357/347 323/355/347 291/328/347
f 300/334/348 314/360/348 315/358/348
f 321/359/349 322/357/349 292/333/349
f 301/338/350 313/362/350 314/360/350
f 320/361/351 321/359/351 293/337/351
f 302/342/352 312/364/352 313/362/352
f 319/363/353 320/361/353 294/341/353
f 303/346/354 311/366/354 312/364/354
f 318/365/355 319/363/355 295/345/355
f 304/350/362 281/351/362 311/366/362
f 317/367/357 318/365/357 296/349/357
f 298/354/358 316/356/358 317/367/358
