# Blender 4.5.0
# www.blender.org
mtllib slash.mtl
o base
v -6.171555 0.000005 67.977203
v 68.738228 -0.000000 -4.601379
v 66.656387 -0.000001 -9.825397
v 61.394680 -0.000001 -19.153490
v 55.444046 -0.000002 -29.659426
v 44.575031 -0.000003 -42.950981
v 35.206013 -0.000004 -50.639965
v 24.516968 -0.000004 -56.353386
v 12.918647 -0.000005 -59.871719
v 0.856811 -0.000005 -61.059685
v -11.205026 -0.000005 -59.871719
v -22.803341 -0.000004 -56.353386
v -33.492390 -0.000004 -50.639965
v -42.861420 -0.000003 -42.950981
v -50.550388 -0.000003 -33.581959
v -56.263817 -0.000002 -22.892908
v -59.782146 -0.000001 -11.294597
v -60.970112 0.000000 0.767241
v -59.782146 0.000001 12.829085
v -56.263817 0.000002 24.427385
v -50.550388 0.000003 35.116436
v -42.861420 0.000003 45.346066
v -30.414595 0.000004 56.946693
v -20.723665 0.000005 62.626450
v -11.395574 0.000005 66.835373
v 0.751802 0.106678 71.199692
v 71.199692 0.000573 -1.504198
v 69.850471 0.720029 -12.722316
v 65.854401 1.316039 -25.895521
v 59.365204 1.316036 -38.036102
v 50.632156 1.316033 -48.677357
v 39.990906 1.316031 -57.410400
v 27.850325 1.316030 -63.899601
v 14.677118 1.316029 -67.895660
v 0.977403 1.316028 -69.244888
v -12.722316 1.316029 -67.895660
v -25.895521 1.316030 -63.899601
v -38.036102 1.316031 -57.410400
v -48.677357 1.316033 -48.677357
v -57.410400 1.316036 -38.036102
v -63.899601 1.316039 -25.895521
v -67.895660 1.316041 -12.722316
v -69.244888 1.316044 0.977402
v -67.895660 1.316047 14.677121
v -63.899601 1.316049 27.850325
v -57.410400 1.316052 39.990906
v -48.677357 1.316055 50.632156
v -38.036102 1.316057 59.365204
v -25.895521 1.316058 65.854401
v -12.722316 1.265811 69.850471
v 67.991615 0.744356 -11.978614
v 63.272499 1.218374 -24.436699
v 56.195568 1.218371 -35.918217
v 47.936592 1.218367 -45.981789
v 37.873020 1.218366 -54.240761
v 26.391502 1.218365 -60.377693
v 13.933417 1.218366 -64.156815
v 0.977403 1.218365 -65.432816
v -11.978616 1.218366 -64.156815
v -24.436699 1.218365 -60.377693
v -35.918221 1.218366 -54.240761
v -45.981789 1.218367 -45.981789
v -54.240765 1.218371 -35.918217
v -60.377693 1.218374 -24.436699
v -64.156815 1.218375 -11.978614
v -65.432808 1.218378 0.977402
v -64.156815 1.218381 13.933418
v -60.377693 1.218384 26.391506
v -54.240761 1.218385 37.873020
v -45.981796 1.218389 48.162193
v -36.143814 1.218390 56.872364
v -24.887899 1.218392 63.460495
v -12.429814 1.240747 67.465218
v 4.512001 0.000006 75.200005
v 75.200005 -0.000000 -0.752000
v 73.755058 -0.000001 -14.670794
v 69.475746 -0.000002 -28.777796
v 62.526520 -0.000003 -41.778885
v 53.174435 -0.000004 -53.174435
v 41.778885 -0.000005 -62.526520
v 28.777796 -0.000005 -69.475746
v 14.670794 -0.000006 -73.755058
v 0.000000 -0.000006 -75.200005
v -14.670794 -0.000006 -73.755058
v -28.777796 -0.000005 -69.475746
v -41.778885 -0.000005 -62.526520
v -53.174435 -0.000004 -53.174435
v -62.526520 -0.000003 -41.778885
v -69.475746 -0.000002 -28.777796
v -73.755058 -0.000001 -14.670794
v -75.200005 0.000000 0.000000
v -73.755058 0.000001 14.670794
v -69.475746 0.000002 28.777796
v -62.526520 0.000003 41.778885
v -53.174435 0.000004 53.174435
v -41.778885 0.000005 62.526520
v -28.777796 0.000005 69.475746
v -14.670794 0.000006 73.755058
v 0.751802 -0.106668 71.199692
v 71.199692 -0.000574 -1.504198
v 69.850471 -0.720031 -12.722316
v 65.854401 -1.316042 -25.895521
v 59.365204 -1.316041 -38.036102
v 50.632156 -1.316040 -48.677357
v 39.990906 -1.316039 -57.410400
v 27.850325 -1.316040 -63.899601
v 14.677118 -1.316039 -67.895660
v 0.977403 -1.316038 -69.244888
v -12.722316 -1.316039 -67.895660
v -25.895521 -1.316040 -63.899601
v -38.036102 -1.316039 -57.410400
v -48.677357 -1.316040 -48.677357
v -57.410400 -1.316041 -38.036102
v -63.899601 -1.316042 -25.895521
v -67.895660 -1.316043 -12.722316
v -69.244888 -1.316044 0.977402
v -67.895660 -1.316045 14.677121
v -63.899601 -1.316045 27.850325
v -57.410400 -1.316046 39.990906
v -48.677357 -1.316047 50.632156
v -38.036102 -1.316048 59.365204
v -25.895521 -1.316048 65.854401
v -12.722316 -1.265801 69.850471
v 66.111618 -0.744358 -11.978614
v 62.332500 -1.218377 -24.436699
v 56.195568 -1.218377 -35.918217
v 47.936592 -1.218374 -45.981789
v 37.873020 -1.218374 -54.240761
v 26.391502 -1.218374 -60.377693
v 13.933417 -1.218376 -64.156815
v 0.977403 -1.218375 -65.432816
v -11.978616 -1.218376 -64.156815
v -24.436699 -1.218374 -60.377693
v -35.918221 -1.218374 -54.240761
v -45.981789 -1.218374 -45.981789
v -54.240765 -1.218377 -35.918217
v -60.377693 -1.218377 -24.436699
v -64.156815 -1.218377 -11.978614
v -65.432808 -1.218378 0.977402
v -64.156815 -1.218379 13.933418
v -60.377693 -1.218380 26.391506
v -54.240761 -1.218379 37.873020
v -45.981796 -1.218382 48.162193
v -36.143814 -1.218381 56.872364
v -24.887899 -1.218382 63.460495
v -12.429814 -1.240737 67.465218
v 0.000000 0.000000 -57.111996
v -11.141998 0.000000 -56.014603
v 11.141998 0.000000 -56.014603
v -0.000001 0.120000 -55.512863
v -0.000001 -0.120000 -55.512863
v -10.830023 0.120000 -54.446201
v 10.830021 0.120000 -54.446201
v -10.830023 -0.120000 -54.446201
v 10.830021 -0.120000 -54.446201
v 21.243851 -0.120000 -51.287197
v 10.099178 -0.000000 -51.952412
v -0.195844 -0.000000 -52.966381
v -10.490865 -0.000000 -51.952412
v -20.390257 -0.000000 -48.949463
v -21.243855 -0.120000 -51.287197
v -30.841295 -0.120000 -46.157257
v -21.855816 0.000000 -52.764603
v -31.729725 0.000000 -47.486889
v -40.384277 0.000000 -40.384277
v -30.841295 0.120000 -46.157257
v -21.243855 0.120000 -51.287197
v -29.513588 -0.000000 -44.072941
v -37.510254 -0.000000 -37.510254
v -39.253525 -0.120000 -39.253521
v -46.157257 -0.120000 -30.841295
v -51.287197 -0.120000 -21.243855
v -47.486889 0.000000 -31.729725
v -44.072945 -0.000000 -29.513588
v -48.949467 -0.000000 -20.390257
v -46.157257 0.120000 -30.841295
v -39.253525 0.120000 -39.253521
v -51.287197 0.120000 -21.243855
v -54.446201 0.120000 -10.830023
v -52.764603 0.000000 -21.855816
v -56.014603 0.000000 -11.141998
v -57.111996 0.000000 0.000000
v -54.446201 -0.120000 -10.830023
v -55.512863 0.120000 -0.000001
v -55.512863 -0.120000 -0.000001
v -54.446201 -0.120000 10.830022
v -52.966385 -0.000000 -0.195844
v -51.952412 -0.000000 -10.490865
v -51.952412 -0.000000 10.099178
v -48.949467 -0.000000 19.998569
v -54.446201 0.120000 10.830022
v -51.287197 0.120000 21.243851
v -51.287197 -0.120000 21.243851
v -46.157257 -0.120000 30.841295
v -52.764603 -0.000000 21.855816
v -56.014603 -0.000000 11.141998
v -47.486889 -0.000000 31.729725
v -40.384277 -0.000000 40.384277
v -46.157257 0.120000 30.841295
v -39.253525 0.120000 39.253521
v -39.253525 -0.120000 39.253521
v -30.841295 -0.120000 46.157257
v -37.510254 -0.000000 37.118568
v -44.072945 -0.000000 29.121904
v -29.513588 -0.000000 43.681255
v -20.390257 -0.000000 48.557785
v -30.841295 0.120000 46.157257
v -21.243855 0.120000 51.287193
v -21.243855 -0.120000 51.287193
v -14.995558 -0.120000 53.182590
v -21.855816 -0.000000 52.764603
v -31.729725 -0.000000 47.486889
v -15.427526 -0.000000 54.714603
v -0.195845 -0.000000 54.174297
v -14.995558 0.120000 53.182590
v -10.490865 -0.000000 51.560726
v 19.998571 -0.000000 -48.949463
v 21.243851 0.120000 -51.287197
v 30.841295 0.120000 -46.157257
v 21.855816 0.000000 -52.764603
v 31.729725 0.000000 -47.486889
v 40.384277 0.000000 -40.384277
v 30.841295 -0.120000 -46.157257
v 39.253521 -0.120000 -39.253521
v 29.121902 -0.000000 -44.072941
v 37.118565 -0.000000 -37.510254
v 43.681255 -0.000000 -29.513588
v 39.253521 0.120000 -39.253521
v 46.157257 0.120000 -30.841295
v 46.157257 -0.120000 -30.841295
v 51.287193 -0.120000 -21.243855
v 47.486889 0.000000 -31.729725
v 52.764603 0.000000 -21.855816
v 51.287193 0.120000 -21.243855
v 53.182590 0.120000 -14.995558
v 48.557781 -0.000000 -20.390257
v 54.714603 0.000000 -15.427526
v 54.174309 -0.000000 -0.195845
v 53.182590 -0.120000 -14.995558
v 51.560730 -0.000000 -10.490865
v -0.385782 0.000000 -77.486969
v -15.427481 0.000000 -76.005486
v 14.655911 0.000000 -76.005486
v -0.385784 0.162000 -75.328133
v -0.385784 -0.162000 -75.328133
v -15.006314 0.162000 -73.888138
v 14.234743 0.162000 -73.888138
v -15.006314 -0.162000 -73.888138
v 14.234743 -0.162000 -73.888138
v 28.293411 -0.162000 -69.623489
v 14.344168 0.000000 -72.844650
v -0.121391 0.000000 -74.269386
v -14.586947 0.000000 -72.844650
v -28.496609 0.000000 -68.625206
v -29.064987 -0.162000 -69.623489
v -42.021526 -0.162000 -62.698074
v -29.891134 0.000000 -71.617981
v -43.220909 0.000000 -64.493073
v -54.904556 0.000000 -54.904556
v -42.021526 0.162000 -62.698074
v -29.064987 0.162000 -69.623489
v -41.315815 0.000000 -61.773190
v -52.551945 0.000000 -52.551945
v -53.378044 -0.162000 -53.378040
v -62.698078 -0.162000 -42.021530
v -69.623497 -0.162000 -29.064985
v -64.493073 0.000000 -43.220913
v -61.773197 0.000000 -41.315815
v -68.625214 0.000000 -28.496605
v -62.698078 0.162000 -42.021530
v -53.378044 0.162000 -53.378040
v -69.623497 0.162000 -29.064985
v -73.888153 0.162000 -15.006312
v -71.617989 0.000000 -29.891132
v -76.005493 0.000000 -15.427479
v -77.486977 0.000000 -0.385780
v -73.888153 -0.162000 -15.006312
v -75.328148 0.162000 -0.385782
v -75.328148 -0.162000 -0.385782
v -73.888153 -0.162000 14.234747
v -74.269394 0.000000 -0.121389
v -72.844658 0.000000 -14.586946
v -72.844658 0.000000 14.344168
v -68.625214 0.000000 28.253826
v -73.888153 0.162000 14.234747
v -69.623497 0.162000 28.293413
v -69.623497 -0.162000 28.293413
v -62.698078 -0.162000 41.249966
v -71.617989 0.000000 29.119568
v -76.005493 0.000000 14.655915
v -64.493073 0.000000 42.449345
v -54.904556 0.000000 54.132988
v -62.698078 0.162000 41.249966
v -53.378044 0.162000 52.606472
v -53.378044 -0.162000 52.606472
v -42.021526 -0.162000 61.926521
v -52.551945 0.000000 52.309166
v -61.773197 0.000000 41.073036
v -41.315815 0.000000 61.530422
v -28.496609 0.000000 68.382446
v -42.021526 0.162000 61.926521
v -29.064987 0.162000 68.851936
v -29.064987 -0.162000 68.851936
v -20.629786 -0.162000 71.410721
v -29.891134 0.000000 70.846436
v -43.220909 0.000000 63.721516
v -9.931299 0.000000 76.901176
v 18.683830 -0.000000 78.048248
v -20.629786 0.162000 71.410721
v -14.586947 0.000000 72.601898
v 28.253819 0.000000 -68.625206
v 28.293411 0.162000 -69.623489
v 41.249969 0.162000 -62.698074
v 29.119568 0.000000 -71.617981
v 42.449348 0.000000 -64.493073
v 54.132988 0.000000 -54.904556
v 41.249969 -0.162000 -62.698074
v 52.606472 -0.162000 -53.378040
v 41.073040 0.000000 -61.773190
v 52.309166 0.000000 -52.551945
v 61.530415 0.000000 -41.315815
v 52.606472 0.162000 -53.378040
v 61.926514 0.162000 -42.021530
v 61.926514 -0.162000 -42.021530
v 68.851929 -0.162000 -29.064985
v 63.721508 0.000000 -43.220913
v 70.846420 0.000000 -29.891132
v 68.851929 0.162000 -29.064985
v 71.410713 0.162000 -20.629784
v 68.382431 0.000000 -28.496605
v 76.901176 0.000000 -9.931296
v 78.048264 -0.000000 18.683830
v 71.410713 -0.162000 -20.629784
v 72.601883 0.000000 -14.586946
v 0.000000 0.000000 -62.823196
v -12.256198 0.000000 -61.616058
v 12.256198 0.000000 -61.616058
v -0.000001 0.132000 -61.064144
v -0.000001 -0.132000 -61.064144
v -11.913025 0.132000 -59.890820
v 11.913024 0.132000 -59.890820
v -11.913025 -0.132000 -59.890820
v 11.913024 -0.132000 -59.890820
v 23.368235 -0.132000 -56.415916
v 11.555635 0.000000 -58.094105
v -0.000000 0.000000 -59.232235
v -11.555635 0.000000 -58.094105
v -22.667196 0.000000 -54.723450
v -23.368240 -0.132000 -56.415916
v -33.925426 -0.132000 -50.772984
v -24.041397 0.000000 -58.041061
v -34.902699 0.000000 -52.235577
v -44.422707 0.000000 -44.422707
v -33.925426 0.132000 -50.772984
v -23.368240 0.132000 -56.415916
v -32.907669 0.000000 -49.249802
v -41.883514 0.000000 -41.883514
v -43.178879 -0.132000 -43.178875
v -50.772984 -0.132000 -33.925426
v -56.415916 -0.132000 -23.368240
v -52.235577 0.000000 -34.902699
v -49.249802 0.000000 -32.907669
v -54.723450 0.000000 -22.667196
v -50.772984 0.132000 -33.925426
v -43.178879 0.132000 -43.178875
v -56.415916 0.132000 -23.368240
v -59.890820 0.132000 -11.913025
v -58.041061 0.000000 -24.041397
v -61.616058 0.000000 -12.256198
v -62.823196 0.000000 0.000000
v -59.890820 -0.132000 -11.913025
v -61.064144 0.132000 -0.000001
v -61.064144 -0.132000 -0.000001
v -59.890820 -0.132000 11.913025
v -59.232235 0.000000 -0.000000
v -58.094105 0.000000 -11.555635
v -58.094105 -0.000000 11.555635
v -54.723450 -0.000000 22.667196
v -59.890820 0.132000 11.913025
v -56.415916 0.132000 23.368235
v -56.415916 -0.132000 23.368235
v -50.772984 -0.132000 33.925426
v -58.041061 -0.000000 24.041397
v -61.616058 -0.000000 12.256198
v -52.235577 -0.000000 34.902699
v -44.422707 -0.000000 44.422707
v -50.772984 0.132000 33.925426
v -43.178879 0.132000 43.178875
v -43.178879 -0.132000 43.178875
v -33.925426 -0.132000 50.772984
v -41.883514 -0.000000 41.883514
v -49.249802 -0.000000 32.907669
v -32.907669 -0.000000 49.249802
v -22.667196 -0.000000 54.723450
v -33.925426 0.132000 50.772984
v -23.368240 0.132000 56.415909
v -23.368240 -0.132000 56.415909
v -16.495111 -0.132000 58.500851
v -24.041397 -0.000000 58.041061
v -34.902699 -0.000000 52.235577
v -16.970278 -0.000000 60.186058
v -0.000001 -0.000000 61.027699
v -16.495111 0.132000 58.500851
v -11.555635 -0.000000 58.094105
v 22.667196 0.000000 -54.723450
v 23.368235 0.132000 -56.415916
v 33.925426 0.132000 -50.772984
v 24.041397 0.000000 -58.041061
v 34.902699 0.000000 -52.235577
v 44.422707 0.000000 -44.422707
v 33.925426 -0.132000 -50.772984
v 43.178875 -0.132000 -43.178875
v 32.907669 0.000000 -49.249802
v 41.883514 0.000000 -41.883514
v 49.249802 0.000000 -32.907669
v 43.178875 0.132000 -43.178875
v 50.772984 0.132000 -33.925426
v 50.772984 -0.132000 -33.925426
v 56.415909 -0.132000 -23.368240
v 52.235577 0.000000 -34.902699
v 58.041061 0.000000 -24.041397
v 56.415909 0.132000 -23.368240
v 58.500851 0.132000 -16.495111
v 54.723450 0.000000 -22.667196
v 60.186058 0.000000 -16.970278
v 61.027706 -0.000000 -0.000001
v 58.500851 -0.132000 -16.495111
v 58.094105 0.000000 -11.555635
vn -0.0267 0.9970 0.0720
vn 0.0991 0.9950 0.0084
vn -0.1190 0.9885 0.0928
vn -0.1543 0.9792 0.1319
vn 0.1413 0.9895 -0.0303
vn -0.1252 0.9887 0.0827
vn -0.2504 0.9587 0.1349
vn -0.3049 0.9425 0.1368
vn 0.1121 0.9911 -0.0717
vn -0.1137 0.9898 0.0859
vn -0.2378 0.9589 0.1550
vn 0.0905 0.9921 -0.0870
vn -0.0969 0.9906 0.0963
vn -0.1836 0.9655 0.1845
vn 0.0678 0.9929 -0.0975
vn -0.0768 0.9905 0.1144
vn -0.1452 0.9649 0.2189
vn 0.0449 0.9936 -0.1034
vn -0.0534 0.9903 0.1282
vn -0.1007 0.9643 0.2450
vn 0.0225 0.9942 -0.1053
vn -0.0275 0.9902 0.1371
vn -0.0514 0.9637 0.2618
vn 0.0013 0.9946 -0.1035
vn -0.0002 0.9901 0.1406
vn 0.0005 0.9633 0.2684
vn -0.0186 0.9950 -0.0985
vn 0.0274 0.9900 0.1384
vn 0.0529 0.9630 0.2643
vn -0.0369 0.9952 -0.0908
vn 0.0541 0.9899 0.1307
vn 0.1035 0.9628 0.2495
vn -0.0534 0.9953 -0.0805
vn 0.0786 0.9899 0.1176
vn 0.1501 0.9628 0.2247
vn -0.0680 0.9954 -0.0680
vn 0.0999 0.9900 0.0998
vn 0.1905 0.9629 0.1909
vn -0.0805 0.9953 -0.0534
vn 0.1172 0.9900 0.0781
vn 0.2232 0.9632 0.1497
vn -0.0908 0.9952 -0.0369
vn 0.1295 0.9901 0.0534
vn 0.2468 0.9636 0.1029
vn -0.0985 0.9950 -0.0186
vn 0.1366 0.9903 0.0269
vn 0.2603 0.9641 0.0525
vn -0.1035 0.9946 0.0013
vn 0.1382 0.9904 -0.0003
vn 0.2634 0.9647 0.0008
vn -0.1053 0.9942 0.0225
vn 0.1343 0.9906 -0.0271
vn 0.2562 0.9653 -0.0501
vn -0.1034 0.9936 0.0449
vn 0.1254 0.9907 -0.0523
vn 0.2392 0.9660 -0.0981
vn -0.0974 0.9929 0.0678
vn 0.1125 0.9908 -0.0747
vn 0.2167 0.9660 -0.1410
vn -0.0866 0.9922 0.0902
vn 0.1083 0.9891 -0.0994
vn 0.2070 0.9605 -0.1862
vn -0.0701 0.9914 0.1102
vn 0.1068 0.9852 -0.1339
vn 0.2002 0.9278 -0.3149
vn -0.0473 0.9907 0.1275
vn 0.1000 0.9759 -0.1940
vn 0.1748 0.8675 -0.4656
vn 0.0003 0.9902 0.1395
vn 0.1623 0.9091 -0.3837
vn 0.2291 0.5857 -0.7775
vn 0.0994 0.9917 -0.0814
vn 0.2238 0.8445 -0.4865
vn 0.2566 0.9616 -0.0977
vn 0.1640 0.9858 -0.0356
vn 0.2206 0.9634 -0.1524
vn 0.1773 0.9670 -0.1827
vn 0.1319 0.9702 -0.2035
vn 0.0860 0.9728 -0.2153
vn 0.0411 0.9749 -0.2190
vn -0.0020 0.9765 -0.2155
vn -0.0424 0.9777 -0.2055
vn -0.0797 0.9786 -0.1898
vn -0.1134 0.9791 -0.1689
vn -0.1433 0.9793 -0.1433
vn -0.1689 0.9791 -0.1134
vn -0.1898 0.9786 -0.0797
vn -0.2055 0.9777 -0.0424
vn -0.2155 0.9765 -0.0020
vn -0.2190 0.9749 0.0411
vn -0.2153 0.9728 0.0860
vn -0.2035 0.9702 0.1319
vn -0.1828 0.9670 0.1773
vn -0.1524 0.9634 0.2206
vn -0.1109 0.9595 0.2591
vn -0.0576 0.9578 0.2817
vn 0.0566 0.9970 0.0535
vn 0.0341 0.9984 0.0448
vn -0.0253 -0.9969 0.0749
vn -0.3711 -0.9000 0.2285
vn 0.0928 -0.9956 0.0110
vn -0.2395 -0.9500 0.2006
vn -0.1514 -0.9842 0.0915
vn 0.1432 -0.9892 -0.0308
vn -0.3633 -0.9178 0.1600
vn -0.8466 -0.3991 0.3522
vn -0.1143 -0.9899 0.0839
vn 0.1121 -0.9911 -0.0717
vn -0.2631 -0.9521 0.1560
vn 0.0905 -0.9921 -0.0870
vn -0.0969 -0.9906 0.0963
vn -0.1836 -0.9655 0.1845
vn -0.0768 -0.9905 0.1144
vn 0.0678 -0.9929 -0.0975
vn -0.1452 -0.9649 0.2189
vn 0.0449 -0.9936 -0.1034
vn -0.0534 -0.9903 0.1282
vn -0.1007 -0.9643 0.2450
vn -0.0275 -0.9902 0.1371
vn 0.0225 -0.9942 -0.1053
vn -0.0514 -0.9637 0.2618
vn 0.0013 -0.9946 -0.1035
vn -0.0002 -0.9901 0.1406
vn 0.0005 -0.9633 0.2684
vn 0.0274 -0.9900 0.1384
vn -0.0186 -0.9950 -0.0985
vn 0.0529 -0.9630 0.2643
vn -0.0369 -0.9952 -0.0908
vn 0.0541 -0.9899 0.1307
vn 0.1035 -0.9628 0.2495
vn 0.0786 -0.9899 0.1176
vn -0.0534 -0.9953 -0.0805
vn 0.1501 -0.9628 0.2247
vn -0.0680 -0.9954 -0.0680
vn 0.0999 -0.9900 0.0998
vn 0.1905 -0.9629 0.1909
vn 0.1172 -0.9900 0.0781
vn -0.0805 -0.9953 -0.0534
vn 0.2232 -0.9632 0.1497
vn -0.0908 -0.9952 -0.0369
vn 0.1295 -0.9901 0.0534
vn 0.2468 -0.9636 0.1029
vn -0.0985 -0.9950 -0.0186
vn 0.1366 -0.9903 0.0269
vn 0.2603 -0.9641 0.0525
vn -0.1035 -0.9946 0.0013
vn 0.1382 -0.9904 -0.0003
vn 0.2634 -0.9647 0.0008
vn 0.1343 -0.9906 -0.0271
vn -0.1053 -0.9942 0.0225
vn 0.2562 -0.9653 -0.0501
vn 0.1254 -0.9907 -0.0523
vn -0.1034 -0.9936 0.0449
vn 0.2392 -0.9660 -0.0981
vn 0.1125 -0.9908 -0.0747
vn -0.0974 -0.9929 0.0678
vn 0.2167 -0.9660 -0.1410
vn 0.1083 -0.9891 -0.0994
vn -0.0866 -0.9922 0.0902
vn 0.2070 -0.9605 -0.1862
vn -0.0701 -0.9914 0.1102
vn 0.1068 -0.9852 -0.1339
vn 0.2002 -0.9278 -0.3149
vn -0.0473 -0.9907 0.1275
vn 0.1000 -0.9759 -0.1940
vn 0.1748 -0.8675 -0.4656
vn 0.0003 -0.9902 0.1395
vn 0.1623 -0.9091 -0.3837
vn 0.2291 -0.5857 -0.7775
vn 0.0994 -0.9917 -0.0814
vn 0.2238 -0.8445 -0.4865
vn 0.2566 -0.9616 -0.0977
vn 0.1640 -0.9858 -0.0356
vn 0.2206 -0.9634 -0.1524
vn 0.1773 -0.9670 -0.1827
vn 0.1319 -0.9702 -0.2035
vn 0.0860 -0.9728 -0.2153
vn 0.0411 -0.9749 -0.2190
vn -0.0020 -0.9765 -0.2155
vn -0.0424 -0.9777 -0.2055
vn -0.0797 -0.9786 -0.1898
vn -0.1134 -0.9791 -0.1689
vn -0.1433 -0.9793 -0.1433
vn -0.1689 -0.9791 -0.1134
vn -0.1898 -0.9786 -0.0797
vn -0.2055 -0.9777 -0.0424
vn -0.2155 -0.9765 -0.0020
vn -0.2190 -0.9749 0.0411
vn -0.2153 -0.9728 0.0860
vn -0.2035 -0.9702 0.1319
vn -0.1828 -0.9670 0.1773
vn -0.1524 -0.9634 0.2206
vn -0.1109 -0.9595 0.2591
vn -0.0576 -0.9578 0.2817
vn 0.0566 -0.9970 0.0535
vn 0.0341 -0.9984 0.0448
vn -0.0000 -0.9972 -0.0748
vn -0.0035 -0.9998 -0.0171
vn -0.0146 -0.9972 -0.0734
vn -0.0035 0.9998 -0.0171
vn -0.0000 0.9972 -0.0748
vn -0.0146 0.9972 -0.0734
vn 0.0146 -0.9972 -0.0734
vn 0.0034 -0.9998 -0.0178
vn 0.0034 0.9998 -0.0178
vn 0.0146 0.9972 -0.0734
vn -0.0001 0.9998 -0.0177
vn -0.0001 -0.9998 -0.0177
vn 0.0070 -0.9998 -0.0171
vn -0.0088 -0.9989 0.0455
vn 0.0002 -0.9989 0.0471
vn 0.0095 -0.9989 0.0468
vn 0.0095 0.9989 0.0468
vn 0.0002 0.9989 0.0471
vn -0.0088 0.9989 0.0455
vn 0.0186 -0.9988 0.0445
vn -0.0066 -0.9999 -0.0159
vn 0.0186 0.9988 0.0445
vn -0.0286 -0.9972 -0.0691
vn -0.0095 -0.9999 -0.0142
vn -0.0416 -0.9972 -0.0622
vn -0.0416 0.9972 -0.0622
vn -0.0066 0.9999 -0.0159
vn -0.0286 0.9972 -0.0691
vn -0.0529 -0.9972 -0.0529
vn -0.0529 0.9972 -0.0529
vn -0.0095 0.9999 -0.0142
vn 0.0270 0.9988 0.0403
vn 0.0270 -0.9988 0.0403
vn 0.0344 -0.9988 0.0344
vn -0.0120 -0.9999 -0.0120
vn 0.0344 0.9988 0.0344
vn -0.0142 -0.9999 -0.0095
vn -0.0622 -0.9972 -0.0416
vn -0.0159 -0.9999 -0.0066
vn 0.0403 -0.9988 0.0270
vn -0.0120 0.9999 -0.0120
vn 0.0403 0.9988 0.0270
vn 0.0445 -0.9988 0.0186
vn -0.0159 0.9999 -0.0066
vn 0.0445 0.9988 0.0186
vn -0.0141 0.9999 -0.0095
vn -0.0622 0.9972 -0.0416
vn -0.0171 0.9998 -0.0035
vn -0.0691 0.9972 -0.0286
vn -0.0691 -0.9972 -0.0286
vn -0.0734 -0.9972 -0.0146
vn -0.0734 0.9972 -0.0146
vn -0.0177 -0.9998 -0.0001
vn -0.0748 -0.9972 -0.0000
vn -0.0177 0.9998 -0.0001
vn -0.0748 0.9972 -0.0000
vn -0.0171 -0.9998 -0.0035
vn 0.0468 -0.9989 0.0095
vn -0.0178 -0.9998 0.0034
vn 0.0455 -0.9989 -0.0088
vn 0.0471 -0.9989 0.0002
vn 0.0455 0.9989 -0.0088
vn 0.0471 0.9989 0.0002
vn 0.0422 -0.9990 -0.0171
vn -0.0171 -0.9998 0.0070
vn -0.0171 0.9998 0.0070
vn 0.0422 0.9990 -0.0171
vn -0.0178 0.9998 0.0034
vn -0.0734 -0.9972 0.0146
vn -0.0158 -0.9998 0.0104
vn -0.0622 -0.9972 0.0416
vn -0.0691 -0.9972 0.0286
vn -0.0158 0.9998 0.0104
vn -0.0691 0.9972 0.0286
vn -0.0622 0.9972 0.0416
vn -0.0137 -0.9998 0.0136
vn -0.0529 -0.9972 0.0529
vn -0.0137 0.9998 0.0136
vn -0.0529 0.9972 0.0529
vn 0.0373 -0.9990 -0.0245
vn -0.0110 -0.9998 0.0163
vn 0.0311 -0.9990 -0.0307
vn 0.0373 0.9990 -0.0245
vn 0.0311 0.9990 -0.0307
vn 0.0241 -0.9991 -0.0355
vn 0.0241 0.9991 -0.0355
vn 0.0164 -0.9991 -0.0388
vn -0.0078 -0.9998 0.0185
vn -0.0078 0.9998 0.0185
vn 0.0164 0.9991 -0.0388
vn -0.0110 0.9998 0.0163
vn -0.0416 -0.9972 0.0622
vn 0.0008 -0.9998 0.0218
vn -0.0108 -0.9971 0.0751
vn -0.0286 -0.9972 0.0691
vn -0.0108 0.9971 0.0751
vn -0.0286 0.9972 0.0691
vn 0.0081 -1.0000 0.0008
vn 0.0081 1.0000 0.0008
vn 0.0008 0.9998 0.0218
vn 0.0112 0.9990 -0.0427
vn 0.0112 -0.9990 -0.0427
vn -0.0416 0.9972 0.0622
vn -0.0734 0.9972 0.0146
vn 0.0468 0.9989 0.0095
vn -0.0171 -0.9990 0.0422
vn 0.0070 0.9998 -0.0171
vn -0.0171 0.9990 0.0422
vn 0.0104 0.9998 -0.0158
vn 0.0416 0.9972 -0.0622
vn 0.0286 0.9972 -0.0691
vn 0.0529 -0.9972 -0.0529
vn 0.0104 -0.9998 -0.0158
vn 0.0416 -0.9972 -0.0622
vn 0.0529 0.9972 -0.0529
vn 0.0286 -0.9972 -0.0691
vn 0.0136 -0.9998 -0.0137
vn -0.0245 -0.9990 0.0373
vn -0.0307 -0.9990 0.0311
vn -0.0245 0.9990 0.0373
vn -0.0307 0.9990 0.0311
vn 0.0163 -0.9998 -0.0110
vn -0.0355 -0.9991 0.0241
vn 0.0163 0.9998 -0.0110
vn -0.0355 0.9991 0.0241
vn 0.0136 0.9998 -0.0137
vn 0.0185 -0.9998 -0.0078
vn 0.0622 -0.9972 -0.0416
vn 0.0691 -0.9972 -0.0286
vn 0.0622 0.9972 -0.0416
vn 0.0185 0.9998 -0.0078
vn 0.0691 0.9972 -0.0286
vn 0.0218 0.9998 0.0008
vn -0.0388 0.9991 0.0164
vn 0.0751 0.9971 -0.0108
vn 0.0751 -0.9971 -0.0108
vn 0.0008 -1.0000 0.0081
vn 0.0218 -0.9998 0.0008
vn 0.0008 1.0000 0.0081
vn -0.0388 -0.9991 0.0164
vn -0.0427 -0.9990 0.0112
vn -0.0427 0.9990 0.0112
vn 0.0062 -0.9996 0.0276
vn 0.0062 0.9996 0.0276
vn -0.0056 -0.9994 0.0345
vn -0.0056 0.9994 0.0345
vn 0.0010 0.9995 0.0312
vn 0.0010 -0.9995 0.0312
vn -0.0138 -0.9992 0.0374
vn -0.0345 -0.9870 0.1569
vn -0.0025 -0.9884 0.1519
vn 0.0266 -0.9894 0.1429
vn 0.0266 0.9894 0.1429
vn -0.0025 0.9884 0.1519
vn -0.0345 0.9870 0.1569
vn 0.0528 -0.9900 0.1306
vn 0.0105 -0.9997 0.0242
vn 0.0528 0.9900 0.1306
vn 0.0142 -0.9997 0.0208
vn 0.0105 0.9997 0.0242
vn 0.0142 0.9997 0.0208
vn 0.0763 0.9904 0.1153
vn 0.0763 -0.9904 0.1153
vn 0.0971 -0.9905 0.0971
vn 0.0175 -0.9997 0.0175
vn 0.0971 0.9905 0.0971
vn 0.0208 -0.9997 0.0142
vn 0.0242 -0.9997 0.0105
vn 0.1153 -0.9904 0.0763
vn 0.0175 0.9997 0.0175
vn 0.1153 0.9904 0.0763
vn 0.1306 -0.9900 0.0528
vn 0.0242 0.9997 0.0105
vn 0.1306 0.9900 0.0528
vn 0.0208 0.9997 0.0142
vn 0.0276 0.9996 0.0062
vn 0.0311 -0.9995 0.0010
vn 0.0311 0.9995 0.0010
vn 0.0276 -0.9996 0.0062
vn 0.1429 -0.9894 0.0266
vn 0.0345 -0.9994 -0.0056
vn 0.1569 -0.9870 -0.0345
vn 0.1519 -0.9884 -0.0025
vn 0.1569 0.9870 -0.0345
vn 0.1519 0.9884 -0.0025
vn 0.1571 -0.9851 -0.0695
vn 0.0374 -0.9992 -0.0138
vn 0.0374 0.9992 -0.0138
vn 0.1571 0.9851 -0.0695
vn 0.0345 0.9994 -0.0056
vn 0.0393 -0.9989 -0.0239
vn 0.0393 0.9989 -0.0239
vn 0.0394 -0.9986 -0.0362
vn 0.0394 0.9986 -0.0362
vn 0.1516 -0.9826 -0.1073
vn 0.0369 -0.9980 -0.0504
vn 0.1390 -0.9793 -0.1474
vn 0.1516 0.9826 -0.1073
vn 0.1390 0.9793 -0.1474
vn 0.1178 -0.9749 -0.1889
vn 0.1178 0.9749 -0.1889
vn 0.0865 -0.9694 -0.2297
vn 0.0308 -0.9973 -0.0662
vn 0.0308 0.9973 -0.0662
vn 0.0865 0.9694 -0.2297
vn 0.0369 0.9980 -0.0504
vn 0.0264 -0.9958 -0.0872
vn -0.0026 -0.9994 0.0345
vn -0.0026 0.9994 0.0345
vn 0.0040 -1.0000 0.0005
vn 0.0040 1.0000 0.0005
vn 0.0264 0.9958 -0.0872
vn 0.1064 -0.7585 -0.6430
vn 0.1064 0.7585 -0.6430
vn 0.1429 0.9894 0.0266
vn -0.0695 -0.9851 0.1571
vn -0.0138 0.9992 0.0374
vn -0.0695 0.9851 0.1571
vn -0.0239 0.9989 0.0393
vn -0.0239 -0.9989 0.0393
vn -0.0362 -0.9986 0.0394
vn -0.1073 -0.9826 0.1516
vn -0.1474 -0.9793 0.1390
vn -0.1073 0.9826 0.1516
vn -0.1474 0.9793 0.1390
vn -0.0504 -0.9980 0.0369
vn -0.1889 -0.9749 0.1178
vn -0.0504 0.9980 0.0369
vn -0.1889 0.9749 0.1178
vn -0.0362 0.9986 0.0394
vn -0.0662 -0.9973 0.0308
vn -0.0662 0.9973 0.0308
vn -0.0872 0.9958 0.0264
vn -0.2297 0.9694 0.0865
vn 0.0345 0.9994 -0.0026
vn 0.0345 -0.9994 -0.0026
vn 0.0006 -1.0000 0.0040
vn -0.0872 -0.9958 0.0264
vn 0.0006 1.0000 0.0040
vn -0.2297 -0.9694 0.0865
vn -0.6430 0.7584 0.1064
vn -0.6430 -0.7584 0.1064
vn -0.0012 -1.0000 -0.0060
vn -0.0012 1.0000 -0.0060
vn 0.0012 -1.0000 -0.0060
vn 0.0012 1.0000 -0.0060
vn -0.0000 1.0000 -0.0061
vn -0.0000 -1.0000 -0.0061
vn 0.0023 -1.0000 -0.0056
vn -0.0140 -0.9974 0.0705
vn -0.0000 -0.9974 0.0719
vn 0.0140 -0.9974 0.0705
vn 0.0140 0.9974 0.0705
vn -0.0000 0.9974 0.0719
vn -0.0140 0.9974 0.0705
vn 0.0275 -0.9974 0.0664
vn -0.0023 -1.0000 -0.0056
vn 0.0275 0.9974 0.0664
vn -0.0034 -1.0000 -0.0050
vn -0.0023 1.0000 -0.0056
vn -0.0034 1.0000 -0.0050
vn 0.0399 0.9974 0.0598
vn 0.0399 -0.9974 0.0598
vn 0.0508 -0.9974 0.0508
vn -0.0043 -1.0000 -0.0043
vn 0.0508 0.9974 0.0508
vn -0.0050 -1.0000 -0.0034
vn -0.0056 -1.0000 -0.0023
vn 0.0598 -0.9974 0.0399
vn -0.0043 1.0000 -0.0043
vn 0.0598 0.9974 0.0399
vn 0.0664 -0.9974 0.0275
vn -0.0056 1.0000 -0.0023
vn 0.0664 0.9974 0.0275
vn -0.0050 1.0000 -0.0034
vn -0.0060 1.0000 -0.0012
vn -0.0061 -1.0000 -0.0000
vn -0.0061 1.0000 -0.0000
vn -0.0060 -1.0000 -0.0012
vn 0.0705 -0.9974 0.0140
vn -0.0060 -1.0000 0.0012
vn 0.0705 -0.9974 -0.0140
vn 0.0719 -0.9974 -0.0000
vn 0.0705 0.9974 -0.0140
vn 0.0719 0.9974 -0.0000
vn 0.0664 -0.9974 -0.0275
vn -0.0056 -1.0000 0.0023
vn -0.0056 1.0000 0.0023
vn 0.0664 0.9974 -0.0275
vn -0.0060 1.0000 0.0012
vn -0.0050 -1.0000 0.0034
vn -0.0050 1.0000 0.0034
vn -0.0043 -1.0000 0.0043
vn -0.0043 1.0000 0.0043
vn 0.0598 -0.9974 -0.0399
vn -0.0034 -1.0000 0.0050
vn 0.0508 -0.9974 -0.0508
vn 0.0598 0.9974 -0.0399
vn 0.0508 0.9974 -0.0508
vn 0.0399 -0.9974 -0.0598
vn 0.0399 0.9974 -0.0598
vn 0.0275 -0.9974 -0.0664
vn -0.0023 -1.0000 0.0056
vn -0.0023 1.0000 0.0056
vn 0.0275 0.9974 -0.0664
vn -0.0034 1.0000 0.0050
vn 0.0034 -1.0000 0.0056
vn -0.0135 -0.9971 0.0743
vn -0.0135 0.9971 0.0743
vn 0.0078 -1.0000 0.0012
vn 0.0078 1.0000 0.0012
vn 0.0034 1.0000 0.0056
vn 0.0202 0.9967 -0.0780
vn 0.0202 -0.9967 -0.0780
vn 0.0705 0.9974 0.0140
vn -0.0275 -0.9974 0.0664
vn 0.0023 1.0000 -0.0056
vn -0.0275 0.9974 0.0664
vn 0.0034 1.0000 -0.0050
vn 0.0034 -1.0000 -0.0050
vn 0.0043 -1.0000 -0.0043
vn -0.0399 -0.9974 0.0598
vn -0.0508 -0.9974 0.0508
vn -0.0399 0.9974 0.0598
vn -0.0508 0.9974 0.0508
vn 0.0050 -1.0000 -0.0034
vn -0.0598 -0.9974 0.0399
vn 0.0050 1.0000 -0.0034
vn -0.0598 0.9974 0.0399
vn 0.0043 1.0000 -0.0043
vn 0.0056 -1.0000 -0.0023
vn 0.0056 1.0000 -0.0023
vn 0.0056 1.0000 0.0034
vn -0.0664 0.9974 0.0275
vn 0.0743 0.9971 -0.0135
vn 0.0743 -0.9971 -0.0135
vn 0.0012 -1.0000 0.0078
vn 0.0056 -1.0000 0.0034
vn 0.0012 1.0000 0.0078
vn -0.0664 -0.9974 0.0275
vn -0.0780 -0.9967 0.0202
vn -0.0780 0.9967 0.0202
vt 0.008039 0.276944
vt 0.080367 0.276944
vt 0.080364 0.279838
vt 0.008039 0.286590
vt 0.149616 0.276944
vt 0.149613 0.279838
vt 0.149586 0.291413
vt 0.080347 0.291413
vt 0.215784 0.276944
vt 0.215781 0.279838
vt 0.215745 0.291413
vt 0.278883 0.276944
vt 0.278880 0.279838
vt 0.278834 0.291413
vt 0.338912 0.276944
vt 0.338906 0.279838
vt 0.338853 0.291413
vt 0.395862 0.276944
vt 0.395856 0.279838
vt 0.395803 0.291413
vt 0.449731 0.276944
vt 0.449728 0.279838
vt 0.449672 0.291413
vt 0.500531 0.276944
vt 0.500528 0.279838
vt 0.500472 0.291413
vt 0.548261 0.276944
vt 0.548255 0.279838
vt 0.548193 0.291413
vt 0.592912 0.276944
vt 0.592906 0.279838
vt 0.592853 0.291413
vt 0.634492 0.276944
vt 0.634486 0.279838
vt 0.634433 0.291413
vt 0.672993 0.276944
vt 0.672990 0.279838
vt 0.672944 0.291413
vt 0.708424 0.276944
vt 0.708421 0.279838
vt 0.708385 0.291413
vt 0.740776 0.276944
vt 0.740773 0.279838
vt 0.740746 0.291413
vt 0.770057 0.276944
vt 0.770054 0.279838
vt 0.770037 0.291413
vt 0.796259 0.276944
vt 0.796259 0.279838
vt 0.796259 0.291413
vt 0.820926 0.276944
vt 0.820926 0.279838
vt 0.820946 0.291413
vt 0.845593 0.276944
vt 0.845596 0.279838
vt 0.845622 0.291413
vt 0.870260 0.276944
vt 0.870263 0.279838
vt 0.870309 0.291413
vt 0.894927 0.276944
vt 0.894930 0.279838
vt 0.894986 0.291413
vt 0.919594 0.276944
vt 0.919600 0.279838
vt 0.919672 0.291413
vt 0.944260 0.276944
vt 0.944266 0.279838
vt 0.944359 0.291413
vt 0.968927 0.276944
vt 0.968936 0.279838
vt 0.969036 0.291413
vt 0.991961 0.276944
vt 0.991961 0.286590
vt 0.149812 0.262476
vt 0.080475 0.262476
vt 0.216070 0.262476
vt 0.279237 0.262476
vt 0.339306 0.262476
vt 0.396295 0.262476
vt 0.450194 0.262476
vt 0.500994 0.262476
vt 0.548714 0.262476
vt 0.593345 0.262476
vt 0.634886 0.262476
vt 0.673338 0.262476
vt 0.708700 0.262476
vt 0.740972 0.262476
vt 0.770165 0.262476
vt 0.796259 0.262476
vt 0.820808 0.262476
vt 0.845357 0.262476
vt 0.869905 0.262476
vt 0.894464 0.262476
vt 0.919013 0.262476
vt 0.943562 0.262476
vt 0.968111 0.262476
vt 0.991961 0.262476
vt 0.991961 0.291413
vt 0.008039 0.291413
vt 0.008039 0.262476
vt 0.853397 0.254469
vt 0.769866 0.263772
vt 0.777642 0.254469
vt 0.915567 0.254469
vt 0.903928 0.263772
vt 0.843499 0.263772
vt 0.948831 0.263772
vt 0.891808 0.259764
vt 0.833191 0.259764
vt 0.761767 0.259764
vt 0.680280 0.259764
vt 0.685858 0.263772
vt 0.691215 0.254469
vt 0.594705 0.263772
vt 0.597435 0.254469
vt 0.499908 0.254469
vt 0.591861 0.259764
vt 0.499908 0.259764
vt 0.499908 0.263772
vt 0.405112 0.263772
vt 0.402381 0.254469
vt 0.313958 0.263772
vt 0.407956 0.259764
vt 0.319537 0.259764
vt 0.229950 0.263772
vt 0.308602 0.254469
vt 0.222174 0.254469
vt 0.156317 0.263772
vt 0.146420 0.254469
vt 0.238049 0.259764
vt 0.095888 0.263772
vt 0.108009 0.259764
vt 0.166625 0.259764
vt 0.064453 0.259764
vt 0.050985 0.263772
vt 0.084250 0.254469
vt 0.023334 0.263772
vt 0.009606 0.254469
vt 0.038053 0.254469
vt 0.013997 0.263772
vt 0.000000 0.254469
vt 0.037631 0.259764
vt 0.023334 0.263772
vt 0.028575 0.259764
vt 0.037631 0.259764
vt 0.009606 0.254469
vt 0.077927 0.263772
vt 0.065771 0.254469
vt 0.038053 0.254469
vt 0.156522 0.254469
vt 0.108009 0.259764
vt 0.935364 0.259764
vt 0.976482 0.263772
vt 0.990211 0.254469
vt 0.961763 0.254469
vt 0.999816 0.254469
vt 0.985819 0.263772
vt 0.962185 0.259764
vt 0.971242 0.259764
vt 0.921889 0.263772
vt 0.934045 0.254469
vt 0.843294 0.254469
vt 0.891808 0.259764
vt 0.853397 0.391653
vt 0.769866 0.400956
vt 0.777642 0.391653
vt 0.915567 0.391653
vt 0.903928 0.400956
vt 0.843499 0.400956
vt 0.948831 0.400956
vt 0.891808 0.396948
vt 0.833191 0.396948
vt 0.761767 0.396948
vt 0.680280 0.396948
vt 0.685858 0.400956
vt 0.691215 0.391653
vt 0.594705 0.400956
vt 0.597435 0.391653
vt 0.499908 0.391653
vt 0.591861 0.396948
vt 0.499908 0.396948
vt 0.499908 0.400956
vt 0.405112 0.400956
vt 0.402381 0.391653
vt 0.313958 0.400956
vt 0.407956 0.396948
vt 0.319537 0.396948
vt 0.229950 0.400956
vt 0.308602 0.391653
vt 0.222174 0.391653
vt 0.156317 0.400956
vt 0.146420 0.391653
vt 0.238049 0.396948
vt 0.095888 0.400956
vt 0.108009 0.396948
vt 0.166625 0.396948
vt 0.064453 0.396948
vt 0.050985 0.400956
vt 0.084250 0.391653
vt 0.023334 0.400956
vt 0.009606 0.391653
vt 0.038053 0.391653
vt 0.013997 0.400956
vt 0.000000 0.391653
vt 0.037631 0.396948
vt 0.023334 0.400956
vt 0.028575 0.396948
vt 0.037631 0.396948
vt 0.009606 0.391653
vt 0.077927 0.400956
vt 0.105705 0.383344
vt 0.038053 0.391653
vt 0.226114 0.382251
vt 0.108009 0.396948
vt 0.935364 0.396948
vt 0.976482 0.400956
vt 0.990211 0.391653
vt 0.961763 0.391653
vt 0.999816 0.391653
vt 0.985819 0.400956
vt 0.962185 0.396948
vt 0.971242 0.396948
vt 0.921889 0.400956
vt 0.896142 0.387670
vt 0.772573 0.381815
vt 0.891808 0.396948
vt 0.853397 0.280307
vt 0.769866 0.289610
vt 0.777642 0.280307
vt 0.915567 0.280307
vt 0.903928 0.289610
vt 0.843499 0.289610
vt 0.948831 0.289610
vt 0.891808 0.285602
vt 0.833191 0.285602
vt 0.761767 0.285602
vt 0.680280 0.285602
vt 0.685858 0.289610
vt 0.691215 0.280307
vt 0.594705 0.289610
vt 0.597435 0.280307
vt 0.499908 0.280307
vt 0.591861 0.285602
vt 0.499908 0.285602
vt 0.499908 0.289610
vt 0.405112 0.289610
vt 0.402381 0.280307
vt 0.313958 0.289610
vt 0.407956 0.285602
vt 0.319537 0.285602
vt 0.229950 0.289610
vt 0.308602 0.280307
vt 0.222174 0.280307
vt 0.156317 0.289610
vt 0.146420 0.280307
vt 0.238049 0.285602
vt 0.095888 0.289610
vt 0.108009 0.285602
vt 0.166625 0.285602
vt 0.064453 0.285602
vt 0.050985 0.289610
vt 0.084250 0.280307
vt 0.023334 0.289610
vt 0.009606 0.280307
vt 0.038053 0.280307
vt 0.013997 0.289610
vt 0.000000 0.280307
vt 0.037631 0.285602
vt 0.023334 0.289610
vt 0.028575 0.285602
vt 0.037631 0.285602
vt 0.009606 0.280307
vt 0.077927 0.289610
vt 0.065771 0.280307
vt 0.038053 0.280307
vt 0.156522 0.280307
vt 0.108009 0.285602
vt 0.935364 0.285602
vt 0.976482 0.289610
vt 0.990211 0.280307
vt 0.961763 0.280307
vt 0.999816 0.280307
vt 0.985819 0.289610
vt 0.962185 0.285602
vt 0.971242 0.285602
vt 0.921889 0.289610
vt 0.934045 0.280307
vt 0.843294 0.280307
vt 0.891808 0.285602
s 1
usemtl mat1.001
f 27/1/1 28/2/2 51/3/3
f 2/4/4 27/1/1 51/3/3
f 28/2/2 29/5/5 52/6/6
f 51/3/3 28/2/2 52/6/6
f 4/7/7 3/8/8 51/3/3
f 52/6/6 4/7/7 51/3/3
f 29/5/5 30/9/9 53/10/10
f 52/6/6 29/5/5 53/10/10
f 5/11/11 4/7/7 52/6/6
f 53/10/10 5/11/11 52/6/6
f 53/10/10 30/9/9 31/12/12
f 54/13/13 53/10/10 31/12/12
f 54/13/13 6/14/14 5/11/11
f 53/10/10 54/13/13 5/11/11
f 31/12/12 32/15/15 55/16/16
f 54/13/13 31/12/12 55/16/16
f 7/17/17 6/14/14 54/13/13
f 55/16/16 7/17/17 54/13/13
f 55/16/16 32/15/15 33/18/18
f 56/19/19 55/16/16 33/18/18
f 56/19/19 8/20/20 7/17/17
f 55/16/16 56/19/19 7/17/17
f 33/18/18 34/21/21 57/22/22
f 56/19/19 33/18/18 57/22/22
f 9/23/23 8/20/20 56/19/19
f 57/22/22 9/23/23 56/19/19
f 57/22/22 34/21/21 35/24/24
f 58/25/25 57/22/22 35/24/24
f 58/25/25 10/26/26 9/23/23
f 57/22/22 58/25/25 9/23/23
f 35/24/24 36/27/27 59/28/28
f 58/25/25 35/24/24 59/28/28
f 11/29/29 10/26/26 58/25/25
f 59/28/28 11/29/29 58/25/25
f 59/28/28 36/27/27 37/30/30
f 60/31/31 59/28/28 37/30/30
f 60/31/31 12/32/32 11/29/29
f 59/28/28 60/31/31 11/29/29
f 37/30/30 38/33/33 61/34/34
f 60/31/31 37/30/30 61/34/34
f 13/35/35 12/32/32 60/31/31
f 61/34/34 13/35/35 60/31/31
f 61/34/34 38/33/33 39/36/36
f 62/37/37 61/34/34 39/36/36
f 62/37/37 14/38/38 13/35/35
f 61/34/34 62/37/37 13/35/35
f 39/36/36 40/39/39 63/40/40
f 62/37/37 39/36/36 63/40/40
f 15/41/41 14/38/38 62/37/37
f 63/40/40 15/41/41 62/37/37
f 63/40/40 40/39/39 41/42/42
f 64/43/43 63/40/40 41/42/42
f 64/43/43 16/44/44 15/41/41
f 63/40/40 64/43/43 15/41/41
f 64/43/43 41/42/42 42/45/45
f 65/46/46 64/43/43 42/45/45
f 65/46/46 17/47/47 16/44/44
f 64/43/43 65/46/46 16/44/44
f 65/46/46 42/45/45 43/48/48
f 66/49/49 65/46/46 43/48/48
f 66/49/49 18/50/50 17/47/47
f 65/46/46 66/49/49 17/47/47
f 43/48/48 44/51/51 67/52/52
f 66/49/49 43/48/48 67/52/52
f 19/53/53 18/50/50 66/49/49
f 67/52/52 19/53/53 66/49/49
f 44/51/51 45/54/54 68/55/55
f 67/52/52 44/51/51 68/55/55
f 20/56/56 19/53/53 67/52/52
f 68/55/55 20/56/56 67/52/52
f 45/54/54 46/57/57 69/58/58
f 68/55/55 45/54/54 69/58/58
f 21/59/59 20/56/56 68/55/55
f 69/58/58 21/59/59 68/55/55
f 46/57/57 47/60/60 70/61/61
f 69/58/58 46/57/57 70/61/61
f 70/61/61 22/62/62 21/59/59
f 69/58/58 70/61/61 21/59/59
f 70/61/61 47/60/60 48/63/63
f 71/64/64 70/61/61 48/63/63
f 23/65/65 22/62/62 70/61/61
f 71/64/64 23/65/65 70/61/61
f 71/64/64 48/63/63 49/66/66
f 72/67/67 71/64/64 49/66/66
f 72/67/67 24/68/68 23/65/65
f 71/64/64 72/67/67 23/65/65
f 72/67/67 49/66/66 50/69/69
f 73/70/70 72/67/67 50/69/69
f 73/70/70 25/71/71 24/68/68
f 72/67/67 73/70/70 24/68/68
f 73/70/70 50/69/69 26/72/72
f 1/73/73 73/70/70 26/72/72
f 77/74/74 29/5/5 28/2/2
f 76/75/75 77/74/74 28/2/2
f 77/74/74 78/76/76 30/9/9
f 29/5/5 77/74/74 30/9/9
f 79/77/77 31/12/12 30/9/9
f 78/76/76 79/77/77 30/9/9
f 79/77/77 80/78/78 32/15/15
f 31/12/12 79/77/77 32/15/15
f 81/79/79 33/18/18 32/15/15
f 80/78/78 81/79/79 32/15/15
f 81/79/79 82/80/80 34/21/21
f 33/18/18 81/79/79 34/21/21
f 83/81/81 35/24/24 34/21/21
f 82/80/80 83/81/81 34/21/21
f 83/81/81 84/82/82 36/27/27
f 35/24/24 83/81/81 36/27/27
f 85/83/83 37/30/30 36/27/27
f 84/82/82 85/83/83 36/27/27
f 85/83/83 86/84/84 38/33/33
f 37/30/30 85/83/83 38/33/33
f 87/85/85 39/36/36 38/33/33
f 86/84/84 87/85/85 38/33/33
f 87/85/85 88/86/86 40/39/39
f 39/36/36 87/85/85 40/39/39
f 89/87/87 41/42/42 40/39/39
f 88/86/86 89/87/87 40/39/39
f 89/87/87 90/88/88 42/45/45
f 41/42/42 89/87/87 42/45/45
f 91/89/89 43/48/48 42/45/45
f 90/88/88 91/89/89 42/45/45
f 91/89/89 92/90/90 44/51/51
f 43/48/48 91/89/89 44/51/51
f 93/91/91 45/54/54 44/51/51
f 92/90/90 93/91/91 44/51/51
f 93/91/91 94/92/92 46/57/57
f 45/54/54 93/91/91 46/57/57
f 95/93/93 47/60/60 46/57/57
f 94/92/92 95/93/93 46/57/57
f 95/93/93 96/94/94 48/63/63
f 47/60/60 95/93/93 48/63/63
f 97/95/95 49/66/66 48/63/63
f 96/94/94 97/95/95 48/63/63
f 97/95/95 98/96/96 50/69/69
f 49/66/66 97/95/95 50/69/69
f 50/69/69 98/96/96 74/97/97
f 74/97/97 26/72/72 50/69/69
f 1/98/73 25/71/71 73/70/70
f 51/3/3 3/8/8 2/99/4
f 75/100/98 76/75/75 28/2/2
f 28/2/2 27/1/1 75/100/98
f 100/1/99 124/3/100 101/2/101
f 2/4/102 124/3/100 100/1/99
f 101/2/101 125/6/103 102/5/104
f 124/3/100 125/6/103 101/2/101
f 4/7/105 124/3/100 3/8/106
f 125/6/103 124/3/100 4/7/105
f 102/5/104 126/10/107 103/9/108
f 125/6/103 126/10/107 102/5/104
f 5/11/109 125/6/103 4/7/105
f 126/10/107 125/6/103 5/11/109
f 126/10/107 104/12/110 103/9/108
f 127/13/111 104/12/110 126/10/107
f 127/13/111 5/11/109 6/14/112
f 126/10/107 5/11/109 127/13/111
f 104/12/110 128/16/113 105/15/114
f 127/13/111 128/16/113 104/12/110
f 7/17/115 127/13/111 6/14/112
f 128/16/113 127/13/111 7/17/115
f 128/16/113 106/18/116 105/15/114
f 129/19/117 106/18/116 128/16/113
f 129/19/117 7/17/115 8/20/118
f 128/16/113 7/17/115 129/19/117
f 106/18/116 130/22/119 107/21/120
f 129/19/117 130/22/119 106/18/116
f 9/23/121 129/19/117 8/20/118
f 130/22/119 129/19/117 9/23/121
f 130/22/119 108/24/122 107/21/120
f 131/25/123 108/24/122 130/22/119
f 131/25/123 9/23/121 10/26/124
f 130/22/119 9/23/121 131/25/123
f 108/24/122 132/28/125 109/27/126
f 131/25/123 132/28/125 108/24/122
f 11/29/127 131/25/123 10/26/124
f 132/28/125 131/25/123 11/29/127
f 132/28/125 110/30/128 109/27/126
f 133/31/129 110/30/128 132/28/125
f 133/31/129 11/29/127 12/32/130
f 132/28/125 11/29/127 133/31/129
f 110/30/128 134/34/131 111/33/132
f 133/31/129 134/34/131 110/30/128
f 13/35/133 133/31/129 12/32/130
f 134/34/131 133/31/129 13/35/133
f 134/34/131 112/36/134 111/33/132
f 135/37/135 112/36/134 134/34/131
f 135/37/135 13/35/133 14/38/136
f 134/34/131 13/35/133 135/37/135
f 112/36/134 136/40/137 113/39/138
f 135/37/135 136/40/137 112/36/134
f 15/41/139 135/37/135 14/38/136
f 136/40/137 135/37/135 15/41/139
f 136/40/137 114/42/140 113/39/138
f 137/43/141 114/42/140 136/40/137
f 137/43/141 15/41/139 16/44/142
f 136/40/137 15/41/139 137/43/141
f 137/43/141 115/45/143 114/42/140
f 138/46/144 115/45/143 137/43/141
f 138/46/144 16/44/142 17/47/145
f 137/43/141 16/44/142 138/46/144
f 138/46/144 116/48/146 115/45/143
f 139/49/147 116/48/146 138/46/144
f 139/49/147 17/47/145 18/50/148
f 138/46/144 17/47/145 139/49/147
f 116/48/146 140/52/149 117/51/150
f 139/49/147 140/52/149 116/48/146
f 19/53/151 139/49/147 18/50/148
f 140/52/149 139/49/147 19/53/151
f 117/51/150 141/55/152 118/54/153
f 140/52/149 141/55/152 117/51/150
f 20/56/154 140/52/149 19/53/151
f 141/55/152 140/52/149 20/56/154
f 118/54/153 142/58/155 119/57/156
f 141/55/152 142/58/155 118/54/153
f 21/59/157 141/55/152 20/56/154
f 142/58/155 141/55/152 21/59/157
f 119/57/156 143/61/158 120/60/159
f 142/58/155 143/61/158 119/57/156
f 143/61/158 21/59/157 22/62/160
f 142/58/155 21/59/157 143/61/158
f 143/61/158 121/63/161 120/60/159
f 144/64/162 121/63/161 143/61/158
f 23/65/163 143/61/158 22/62/160
f 144/64/162 143/61/158 23/65/163
f 144/64/162 122/66/164 121/63/161
f 145/67/165 122/66/164 144/64/162
f 145/67/165 23/65/163 24/68/166
f 144/64/162 23/65/163 145/67/165
f 145/67/165 123/69/167 122/66/164
f 146/70/168 123/69/167 145/67/165
f 146/70/168 24/68/166 25/71/169
f 145/67/165 24/68/166 146/70/168
f 146/70/168 99/72/170 123/69/167
f 1/73/171 99/72/170 146/70/168
f 77/74/172 101/2/101 102/5/104
f 76/75/173 101/2/101 77/74/172
f 77/74/172 103/9/108 78/76/174
f 102/5/104 103/9/108 77/74/172
f 79/77/175 103/9/108 104/12/110
f 78/76/174 103/9/108 79/77/175
f 79/77/175 105/15/114 80/78/176
f 104/12/110 105/15/114 79/77/175
f 81/79/177 105/15/114 106/18/116
f 80/78/176 105/15/114 81/79/177
f 81/79/177 107/21/120 82/80/178
f 106/18/116 107/21/120 81/79/177
f 83/81/179 107/21/120 108/24/122
f 82/80/178 107/21/120 83/81/179
f 83/81/179 109/27/126 84/82/180
f 108/24/122 109/27/126 83/81/179
f 85/83/181 109/27/126 110/30/128
f 84/82/180 109/27/126 85/83/181
f 85/83/181 111/33/132 86/84/182
f 110/30/128 111/33/132 85/83/181
f 87/85/183 111/33/132 112/36/134
f 86/84/182 111/33/132 87/85/183
f 87/85/183 113/39/138 88/86/184
f 112/36/134 113/39/138 87/85/183
f 89/87/185 113/39/138 114/42/140
f 88/86/184 113/39/138 89/87/185
f 89/87/185 115/45/143 90/88/186
f 114/42/140 115/45/143 89/87/185
f 91/89/187 115/45/143 116/48/146
f 90/88/186 115/45/143 91/89/187
f 91/89/187 117/51/150 92/90/188
f 116/48/146 117/51/150 91/89/187
f 93/91/189 117/51/150 118/54/153
f 92/90/188 117/51/150 93/91/189
f 93/91/189 119/57/156 94/92/190
f 118/54/153 119/57/156 93/91/189
f 95/93/191 119/57/156 120/60/159
f 94/92/190 119/57/156 95/93/191
f 95/93/191 121/63/161 96/94/192
f 120/60/159 121/63/161 95/93/191
f 97/95/193 121/63/161 122/66/164
f 96/94/192 121/63/161 97/95/193
f 97/95/193 123/69/167 98/96/194
f 122/66/164 123/69/167 97/95/193
f 123/69/167 74/97/195 98/96/194
f 74/97/195 123/69/167 99/72/170
f 1/98/171 146/70/168 25/71/169
f 124/3/100 2/99/102 3/8/106
f 75/100/196 101/2/101 76/75/173
f 101/2/101 75/100/196 100/1/99
usemtl 
f 147/101/197 154/102/198 148/103/199
f 152/102/200 147/101/201 148/103/202
f 147/101/197 149/104/203 155/105/204
f 147/101/201 153/105/205 149/104/206
f 147/101/201 150/106/207 153/105/205
f 152/102/200 150/106/207 147/101/201
f 147/101/197 151/106/208 154/102/198
f 147/101/197 155/105/204 151/106/208
f 156/107/209 157/108/210 155/105/204
f 149/104/203 156/107/209 155/105/204
f 155/105/204 158/109/211 151/106/208
f 155/105/204 157/108/210 158/109/211
f 151/106/208 158/109/211 159/110/212
f 150/106/207 159/110/213 158/109/214
f 153/105/205 158/109/214 157/108/215
f 153/105/205 150/106/207 158/109/214
f 159/110/212 160/111/216 161/112/217
f 152/102/200 160/111/218 159/110/213
f 150/106/207 152/102/200 159/110/213
f 159/110/212 161/112/217 154/102/198
f 151/106/208 159/110/212 154/102/198
f 163/113/219 154/102/198 161/112/217
f 160/111/216 162/114/220 161/112/217
f 164/115/221 161/112/217 162/114/220
f 164/115/221 163/113/219 161/112/217
f 164/115/222 167/112/223 163/113/224
f 165/116/225 164/115/221 162/114/220
f 165/116/226 166/114/227 164/115/222
f 164/115/222 166/114/227 167/112/223
f 152/102/200 167/112/223 160/111/218
f 163/113/224 167/112/223 152/102/200
f 167/112/223 166/114/227 168/117/228
f 167/112/223 168/117/228 160/111/218
f 160/111/216 168/117/229 162/114/220
f 168/117/229 169/118/230 170/119/231
f 166/114/227 169/118/232 168/117/228
f 168/117/229 170/119/231 162/114/220
f 165/116/225 162/114/220 170/119/231
f 165/116/225 170/119/231 171/120/233
f 169/118/230 171/120/233 170/119/231
f 173/121/234 171/120/233 172/122/235
f 174/123/236 172/122/235 171/120/233
f 165/116/225 171/120/233 173/121/234
f 169/118/230 174/123/236 171/120/233
f 177/119/237 174/123/238 169/118/232
f 174/123/236 175/124/239 172/122/235
f 178/122/240 175/124/241 174/123/238
f 177/119/237 176/120/242 174/123/238
f 178/122/240 174/123/238 176/120/242
f 178/122/240 176/120/242 173/121/243
f 179/125/244 178/122/240 180/126/245
f 179/125/244 175/124/241 178/122/240
f 178/122/240 173/121/243 180/126/245
f 173/121/234 172/122/235 180/126/246
f 181/127/247 180/126/246 172/122/235
f 179/125/244 180/126/245 181/127/248
f 181/127/247 185/128/249 182/129/250
f 184/128/251 181/127/248 182/129/252
f 184/128/251 179/125/244 181/127/248
f 181/127/247 183/125/253 185/128/249
f 181/127/247 172/122/235 183/125/253
f 188/130/254 185/128/249 183/125/253
f 182/129/250 185/128/249 186/131/255
f 185/128/249 189/132/256 186/131/255
f 185/128/249 187/133/257 189/132/256
f 188/130/254 187/133/257 185/128/249
f 184/128/251 189/132/258 187/133/259
f 189/132/256 190/134/260 193/135/261
f 192/135/262 190/134/263 189/132/258
f 184/128/251 191/131/264 189/132/258
f 192/135/262 189/132/258 191/131/264
f 189/132/256 193/135/261 186/131/255
f 196/136/265 186/131/255 193/135/261
f 190/134/260 194/137/266 193/135/261
f 197/138/267 193/135/261 194/137/266
f 197/138/267 195/139/268 193/135/261
f 196/136/265 193/135/261 195/139/268
f 199/137/269 195/139/270 197/138/271
f 197/138/267 201/140/272 198/141/273
f 200/140/274 197/138/271 198/141/275
f 200/140/274 199/137/269 197/138/271
f 197/138/267 194/137/266 201/140/272
f 204/142/276 201/140/272 194/137/266
f 198/141/273 201/140/272 202/143/277
f 203/144/278 202/143/277 201/140/272
f 204/142/276 203/144/278 201/140/272
f 190/134/260 204/142/276 194/137/266
f 199/137/269 204/142/279 190/134/263
f 200/140/274 203/144/280 204/142/279
f 200/140/274 204/142/279 199/137/269
f 203/144/278 205/145/281 202/143/277
f 200/140/274 205/145/282 203/144/280
f 205/145/281 206/134/283 209/135/284
f 208/135/285 206/134/286 205/145/282
f 200/140/274 207/143/287 205/145/282
f 208/135/285 205/145/282 207/143/287
f 205/145/281 209/135/284 202/143/277
f 212/146/288 202/143/277 209/135/284
f 206/134/283 210/147/289 209/135/284
f 213/148/290 209/135/284 210/147/289
f 213/148/290 211/149/291 209/135/284
f 212/146/288 209/135/284 211/149/291
f 213/148/292 208/135/285 211/149/293
f 214/150/294 213/148/290 210/147/289
f 214/150/295 215/147/296 213/148/292
f 213/148/292 215/147/296 208/135/285
f 215/147/296 206/134/286 208/135/285
f 215/147/296 216/151/297 206/134/286
f 215/147/296 214/150/295 216/151/297
f 210/147/289 216/151/298 214/150/294
f 206/134/283 216/151/298 210/147/289
f 198/141/273 202/143/277 212/146/288
f 207/143/287 198/141/275 212/146/299
f 208/135/285 212/146/299 211/149/293
f 208/135/285 207/143/287 212/146/299
f 207/143/287 200/140/274 198/141/275
f 199/137/269 192/135/262 195/139/270
f 199/137/269 190/134/263 192/135/262
f 182/129/250 186/131/255 196/136/265
f 191/131/264 182/129/252 196/136/300
f 192/135/262 196/136/300 195/139/270
f 192/135/262 191/131/264 196/136/300
f 191/131/264 184/128/251 182/129/252
f 172/122/235 175/124/239 188/130/254
f 179/125/244 188/130/301 175/124/241
f 184/128/251 187/133/259 188/130/301
f 184/128/251 188/130/301 179/125/244
f 172/122/235 188/130/254 183/125/253
f 166/114/227 177/119/237 169/118/232
f 165/116/226 177/119/237 166/114/227
f 173/121/243 176/120/242 177/119/237
f 173/121/243 177/119/237 165/116/226
f 163/113/219 148/103/199 154/102/198
f 163/113/224 152/102/200 148/103/202
f 156/107/209 217/152/302 157/108/210
f 218/107/303 157/108/215 217/152/304
f 218/107/303 153/105/205 157/108/215
f 219/153/305 218/107/303 217/152/304
f 218/107/303 219/153/305 221/154/306
f 149/104/206 153/105/205 218/107/303
f 149/104/206 218/107/303 220/155/307
f 218/107/303 221/154/306 220/155/307
f 222/156/308 223/153/309 221/154/310
f 219/153/305 222/156/311 221/154/306
f 221/154/310 156/107/209 220/155/312
f 221/154/310 223/153/309 156/107/209
f 222/156/308 224/157/313 223/153/309
f 224/157/313 225/158/314 223/153/309
f 223/153/309 217/152/302 156/107/209
f 223/153/309 225/158/314 217/152/302
f 224/157/313 226/159/315 225/158/314
f 219/153/305 225/158/316 226/159/317
f 219/153/305 217/152/304 225/158/316
f 230/153/318 227/158/319 226/159/315
f 229/153/320 226/159/317 227/158/321
f 229/153/320 228/157/322 226/159/317
f 219/153/305 226/159/317 228/157/322
f 230/153/318 226/159/315 224/157/313
f 231/107/323 227/158/319 230/153/318
f 232/154/324 231/107/323 230/153/318
f 222/156/308 230/153/318 224/157/313
f 222/156/308 232/154/324 230/153/318
f 232/154/324 233/155/325 231/107/323
f 232/154/326 234/107/327 233/155/328
f 222/156/311 229/153/320 232/154/326
f 232/154/326 229/153/320 234/107/327
f 235/160/329 234/107/327 236/152/330
f 234/107/327 235/160/329 237/161/331
f 229/153/320 236/152/330 234/107/327
f 234/107/327 237/161/331 233/155/328
f 237/161/332 238/162/333 239/160/334
f 237/161/331 235/160/329 238/162/335
f 237/161/332 231/107/323 233/155/325
f 237/161/332 239/160/334 231/107/323
f 239/160/334 236/152/336 231/107/323
f 239/160/334 240/163/337 236/152/336
f 238/162/333 240/163/337 239/160/334
f 238/162/335 235/160/329 240/163/338
f 235/160/329 236/152/330 240/163/338
f 231/107/323 236/152/336 227/158/319
f 229/153/320 227/158/321 236/152/330
f 222/156/311 228/157/322 229/153/320
f 219/153/305 228/157/322 222/156/311
f 149/104/203 220/155/312 156/107/209
f 241/164/197 248/165/339 242/166/199
f 246/165/340 241/164/201 242/166/202
f 241/164/197 243/167/203 249/168/341
f 241/164/201 247/168/342 243/167/206
f 241/164/201 244/169/343 247/168/342
f 246/165/340 244/169/343 241/164/201
f 241/164/197 245/169/344 248/165/339
f 241/164/197 249/168/341 245/169/344
f 250/170/345 251/171/346 249/168/341
f 243/167/203 250/170/345 249/168/341
f 249/168/341 252/172/347 245/169/344
f 249/168/341 251/171/346 252/172/347
f 245/169/344 252/172/347 253/173/348
f 244/169/343 253/173/349 252/172/350
f 247/168/342 252/172/350 251/171/351
f 247/168/342 244/169/343 252/172/350
f 253/173/348 254/174/352 255/175/353
f 246/165/340 254/174/354 253/173/349
f 244/169/343 246/165/340 253/173/349
f 253/173/348 255/175/353 248/165/339
f 245/169/344 253/173/348 248/165/339
f 257/176/219 248/165/339 255/175/353
f 254/174/352 256/177/355 255/175/353
f 258/178/221 255/175/353 256/177/355
f 258/178/221 257/176/219 255/175/353
f 258/178/222 261/175/356 257/176/224
f 259/179/225 258/178/221 256/177/355
f 259/179/226 260/177/357 258/178/222
f 258/178/222 260/177/357 261/175/356
f 246/165/340 261/175/356 254/174/354
f 257/176/224 261/175/356 246/165/340
f 261/175/356 260/177/357 262/180/358
f 261/175/356 262/180/358 254/174/354
f 254/174/352 262/180/359 256/177/355
f 262/180/359 263/181/360 264/182/361
f 260/177/357 263/181/362 262/180/358
f 262/180/359 264/182/361 256/177/355
f 259/179/225 256/177/355 264/182/361
f 259/179/225 264/182/361 265/183/363
f 263/181/360 265/183/363 264/182/361
f 267/184/234 265/183/363 266/185/364
f 268/186/365 266/185/364 265/183/363
f 259/179/225 265/183/363 267/184/234
f 263/181/360 268/186/365 265/183/363
f 271/182/366 268/186/367 263/181/362
f 268/186/365 269/187/368 266/185/364
f 272/185/369 269/187/370 268/186/367
f 271/182/366 270/183/371 268/186/367
f 272/185/369 268/186/367 270/183/371
f 272/185/369 270/183/371 267/184/243
f 273/188/372 272/185/369 274/189/245
f 273/188/372 269/187/370 272/185/369
f 272/185/369 267/184/243 274/189/245
f 267/184/234 266/185/364 274/189/246
f 275/190/247 274/189/246 266/185/364
f 273/188/372 274/189/245 275/190/248
f 275/190/247 279/191/373 276/192/250
f 278/191/374 275/190/248 276/192/252
f 278/191/374 273/188/372 275/190/248
f 275/190/247 277/188/375 279/191/373
f 275/190/247 266/185/364 277/188/375
f 282/193/376 279/191/373 277/188/375
f 276/192/250 279/191/373 280/194/377
f 279/191/373 283/195/378 280/194/377
f 279/191/373 281/196/379 283/195/378
f 282/193/376 281/196/379 279/191/373
f 278/191/374 283/195/380 281/196/381
f 283/195/378 284/197/382 287/198/383
f 286/198/384 284/197/385 283/195/380
f 278/191/374 285/194/386 283/195/380
f 286/198/384 283/195/380 285/194/386
f 283/195/378 287/198/383 280/194/377
f 290/199/265 280/194/377 287/198/383
f 284/197/382 288/200/387 287/198/383
f 291/201/267 287/198/383 288/200/387
f 291/201/267 289/202/268 287/198/383
f 290/199/265 287/198/383 289/202/268
f 293/200/388 289/202/270 291/201/271
f 291/201/267 295/203/389 292/204/273
f 294/203/390 291/201/271 292/204/275
f 294/203/390 293/200/388 291/201/271
f 291/201/267 288/200/387 295/203/389
f 298/205/391 295/203/389 288/200/387
f 292/204/273 295/203/389 296/206/392
f 297/207/393 296/206/392 295/203/389
f 298/205/391 297/207/393 295/203/389
f 284/197/382 298/205/391 288/200/387
f 293/200/388 298/205/394 284/197/385
f 294/203/390 297/207/395 298/205/394
f 294/203/390 298/205/394 293/200/388
f 297/207/393 299/208/396 296/206/392
f 294/203/390 299/208/397 297/207/395
f 299/208/396 300/197/398 303/198/399
f 302/198/400 300/197/401 299/208/397
f 294/203/390 301/206/402 299/208/397
f 302/198/400 299/208/397 301/206/402
f 299/208/396 303/198/399 296/206/392
f 306/209/288 296/206/392 303/198/399
f 300/197/398 304/210/403 303/198/399
f 307/211/404 303/198/399 304/210/403
f 307/211/404 305/212/291 303/198/399
f 306/209/288 303/198/399 305/212/291
f 307/211/405 302/198/400 305/212/293
f 308/213/406 307/211/404 304/210/403
f 308/213/407 309/210/408 307/211/405
f 307/211/405 309/210/408 302/198/400
f 309/210/408 300/197/401 302/198/400
f 309/210/408 310/214/409 300/197/401
f 309/210/408 308/213/407 310/214/409
f 304/210/403 310/214/410 308/213/406
f 300/197/398 310/214/410 304/210/403
f 292/204/273 296/206/392 306/209/288
f 301/206/402 292/204/275 306/209/299
f 302/198/400 306/209/299 305/212/293
f 302/198/400 301/206/402 306/209/299
f 301/206/402 294/203/390 292/204/275
f 293/200/388 286/198/384 289/202/270
f 293/200/388 284/197/385 286/198/384
f 276/192/250 280/194/377 290/199/265
f 285/194/386 276/192/252 290/199/300
f 286/198/384 290/199/300 289/202/270
f 286/198/384 285/194/386 290/199/300
f 285/194/386 278/191/374 276/192/252
f 266/185/364 269/187/368 282/193/376
f 273/188/372 282/193/411 269/187/370
f 278/191/374 281/196/381 282/193/411
f 278/191/374 282/193/411 273/188/372
f 266/185/364 282/193/376 277/188/375
f 260/177/357 271/182/366 263/181/362
f 259/179/226 271/182/366 260/177/357
f 267/184/243 270/183/371 271/182/366
f 267/184/243 271/182/366 259/179/226
f 257/176/219 242/166/199 248/165/339
f 257/176/224 246/165/340 242/166/202
f 250/170/345 311/215/412 251/171/346
f 312/170/413 251/171/351 311/215/414
f 312/170/413 247/168/342 251/171/351
f 313/216/415 312/170/413 311/215/414
f 312/170/413 313/216/415 315/217/306
f 243/167/206 247/168/342 312/170/413
f 243/167/206 312/170/413 314/218/307
f 312/170/413 315/217/306 314/218/307
f 316/219/308 317/216/416 315/217/310
f 313/216/415 316/219/311 315/217/306
f 315/217/310 250/170/345 314/218/312
f 315/217/310 317/216/416 250/170/345
f 316/219/308 318/220/417 317/216/416
f 318/220/417 319/221/418 317/216/416
f 317/216/416 311/215/412 250/170/345
f 317/216/416 319/221/418 311/215/412
f 318/220/417 320/222/419 319/221/418
f 313/216/415 319/221/420 320/222/421
f 313/216/415 311/215/414 319/221/420
f 324/216/422 321/221/423 320/222/419
f 323/216/424 320/222/421 321/221/425
f 323/216/424 322/220/426 320/222/421
f 313/216/415 320/222/421 322/220/426
f 324/216/422 320/222/419 318/220/417
f 325/170/427 321/221/423 324/216/422
f 326/217/324 325/170/427 324/216/422
f 316/219/308 324/216/422 318/220/417
f 316/219/308 326/217/324 324/216/422
f 326/217/324 327/218/325 325/170/427
f 326/217/326 328/170/428 327/218/328
f 316/219/311 323/216/424 326/217/326
f 326/217/326 323/216/424 328/170/428
f 329/223/429 328/170/428 330/215/430
f 328/170/428 329/223/429 331/224/431
f 323/216/424 330/215/430 328/170/428
f 328/170/428 331/224/431 327/218/328
f 331/224/432 332/225/433 333/223/434
f 331/224/431 329/223/429 332/225/435
f 331/224/432 325/170/427 327/218/325
f 331/224/432 333/223/434 325/170/427
f 333/223/434 330/215/436 325/170/427
f 333/223/434 334/226/437 330/215/436
f 332/225/433 334/226/437 333/223/434
f 332/225/435 329/223/429 334/226/438
f 329/223/429 330/215/430 334/226/438
f 325/170/427 330/215/436 321/221/423
f 323/216/424 321/221/425 330/215/430
f 316/219/311 322/220/426 323/216/424
f 313/216/415 322/220/426 316/219/311
f 243/167/203 314/218/312 250/170/345
f 335/227/197 342/228/439 336/229/199
f 340/228/440 335/227/201 336/229/202
f 335/227/197 337/230/203 343/231/441
f 335/227/201 341/231/442 337/230/206
f 335/227/201 338/232/443 341/231/442
f 340/228/440 338/232/443 335/227/201
f 335/227/197 339/232/444 342/228/439
f 335/227/197 343/231/441 339/232/444
f 344/233/445 345/234/446 343/231/441
f 337/230/203 344/233/445 343/231/441
f 343/231/441 346/235/447 339/232/444
f 343/231/441 345/234/446 346/235/447
f 339/232/444 346/235/447 347/236/448
f 338/232/443 347/236/449 346/235/450
f 341/231/442 346/235/450 345/234/451
f 341/231/442 338/232/443 346/235/450
f 347/236/448 348/237/452 349/238/453
f 340/228/440 348/237/454 347/236/449
f 338/232/443 340/228/440 347/236/449
f 347/236/448 349/238/453 342/228/439
f 339/232/444 347/236/448 342/228/439
f 351/239/219 342/228/439 349/238/453
f 348/237/452 350/240/455 349/238/453
f 352/241/221 349/238/453 350/240/455
f 352/241/221 351/239/219 349/238/453
f 352/241/222 355/238/456 351/239/224
f 353/242/225 352/241/221 350/240/455
f 353/242/226 354/240/457 352/241/222
f 352/241/222 354/240/457 355/238/456
f 340/228/440 355/238/456 348/237/454
f 351/239/224 355/238/456 340/228/440
f 355/238/456 354/240/457 356/243/458
f 355/238/456 356/243/458 348/237/454
f 348/237/452 356/243/459 350/240/455
f 356/243/459 357/244/460 358/245/461
f 354/240/457 357/244/462 356/243/458
f 356/243/459 358/245/461 350/240/455
f 353/242/225 350/240/455 358/245/461
f 353/242/225 358/245/461 359/246/463
f 357/244/460 359/246/463 358/245/461
f 361/247/234 359/246/463 360/248/464
f 362/249/465 360/248/464 359/246/463
f 353/242/225 359/246/463 361/247/234
f 357/244/460 362/249/465 359/246/463
f 365/245/466 362/249/467 357/244/462
f 362/249/465 363/250/468 360/248/464
f 366/248/469 363/250/470 362/249/467
f 365/245/466 364/246/471 362/249/467
f 366/248/469 362/249/467 364/246/471
f 366/248/469 364/246/471 361/247/243
f 367/251/472 366/248/469 368/252/245
f 367/251/472 363/250/470 366/248/469
f 366/248/469 361/247/243 368/252/245
f 361/247/234 360/248/464 368/252/246
f 369/253/247 368/252/246 360/248/464
f 367/251/472 368/252/245 369/253/248
f 369/253/247 373/254/473 370/255/250
f 372/254/474 369/253/248 370/255/252
f 372/254/474 367/251/472 369/253/248
f 369/253/247 371/251/475 373/254/473
f 369/253/247 360/248/464 371/251/475
f 376/256/476 373/254/473 371/251/475
f 370/255/250 373/254/473 374/257/477
f 373/254/473 377/258/478 374/257/477
f 373/254/473 375/259/479 377/258/478
f 376/256/476 375/259/479 373/254/473
f 372/254/474 377/258/480 375/259/481
f 377/258/478 378/260/482 381/261/483
f 380/261/484 378/260/485 377/258/480
f 372/254/474 379/257/486 377/258/480
f 380/261/484 377/258/480 379/257/486
f 377/258/478 381/261/483 374/257/477
f 384/262/265 374/257/477 381/261/483
f 378/260/482 382/263/487 381/261/483
f 385/264/267 381/261/483 382/263/487
f 385/264/267 383/265/268 381/261/483
f 384/262/265 381/261/483 383/265/268
f 387/263/488 383/265/270 385/264/271
f 385/264/267 389/266/489 386/267/273
f 388/266/490 385/264/271 386/267/275
f 388/266/490 387/263/488 385/264/271
f 385/264/267 382/263/487 389/266/489
f 392/268/491 389/266/489 382/263/487
f 386/267/273 389/266/489 390/269/492
f 391/270/493 390/269/492 389/266/489
f 392/268/491 391/270/493 389/266/489
f 378/260/482 392/268/491 382/263/487
f 387/263/488 392/268/494 378/260/485
f 388/266/490 391/270/495 392/268/494
f 388/266/490 392/268/494 387/263/488
f 391/270/493 393/271/496 390/269/492
f 388/266/490 393/271/497 391/270/495
f 393/271/496 394/260/498 397/261/499
f 396/261/500 394/260/501 393/271/497
f 388/266/490 395/269/502 393/271/497
f 396/261/500 393/271/497 395/269/502
f 393/271/496 397/261/499 390/269/492
f 400/272/288 390/269/492 397/261/499
f 394/260/498 398/273/503 397/261/499
f 401/274/504 397/261/499 398/273/503
f 401/274/504 399/275/291 397/261/499
f 400/272/288 397/261/499 399/275/291
f 401/274/505 396/261/500 399/275/293
f 402/276/506 401/274/504 398/273/503
f 402/276/507 403/273/508 401/274/505
f 401/274/505 403/273/508 396/261/500
f 403/273/508 394/260/501 396/261/500
f 403/273/508 404/277/509 394/260/501
f 403/273/508 402/276/507 404/277/509
f 398/273/503 404/277/510 402/276/506
f 394/260/498 404/277/510 398/273/503
f 386/267/273 390/269/492 400/272/288
f 395/269/502 386/267/275 400/272/299
f 396/261/500 400/272/299 399/275/293
f 396/261/500 395/269/502 400/272/299
f 395/269/502 388/266/490 386/267/275
f 387/263/488 380/261/484 383/265/270
f 387/263/488 378/260/485 380/261/484
f 370/255/250 374/257/477 384/262/265
f 379/257/486 370/255/252 384/262/300
f 380/261/484 384/262/300 383/265/270
f 380/261/484 379/257/486 384/262/300
f 379/257/486 372/254/474 370/255/252
f 360/248/464 363/250/468 376/256/476
f 367/251/472 376/256/511 363/250/470
f 372/254/474 375/259/481 376/256/511
f 372/254/474 376/256/511 367/251/472
f 360/248/464 376/256/476 371/251/475
f 354/240/457 365/245/466 357/244/462
f 353/242/226 365/245/466 354/240/457
f 361/247/243 364/246/471 365/245/466
f 361/247/243 365/245/466 353/242/226
f 351/239/219 336/229/199 342/228/439
f 351/239/224 340/228/440 336/229/202
f 344/233/445 405/278/512 345/234/446
f 406/233/513 345/234/451 405/278/514
f 406/233/513 341/231/442 345/234/451
f 407/279/515 406/233/513 405/278/514
f 406/233/513 407/279/515 409/280/306
f 337/230/206 341/231/442 406/233/513
f 337/230/206 406/233/513 408/281/307
f 406/233/513 409/280/306 408/281/307
f 410/282/308 411/279/516 409/280/310
f 407/279/515 410/282/311 409/280/306
f 409/280/310 344/233/445 408/281/312
f 409/280/310 411/279/516 344/233/445
f 410/282/308 412/283/517 411/279/516
f 412/283/517 413/284/518 411/279/516
f 411/279/516 405/278/512 344/233/445
f 411/279/516 413/284/518 405/278/512
f 412/283/517 414/285/519 413/284/518
f 407/279/515 413/284/520 414/285/521
f 407/279/515 405/278/514 413/284/520
f 418/279/522 415/284/523 414/285/519
f 417/279/524 414/285/521 415/284/525
f 417/279/524 416/283/526 414/285/521
f 407/279/515 414/285/521 416/283/526
f 418/279/522 414/285/519 412/283/517
f 419/233/527 415/284/523 418/279/522
f 420/280/324 419/233/527 418/279/522
f 410/282/308 418/279/522 412/283/517
f 410/282/308 420/280/324 418/279/522
f 420/280/324 421/281/325 419/233/527
f 420/280/326 422/233/528 421/281/328
f 410/282/311 417/279/524 420/280/326
f 420/280/326 417/279/524 422/233/528
f 423/286/529 422/233/528 424/278/530
f 422/233/528 423/286/529 425/287/531
f 417/279/524 424/278/530 422/233/528
f 422/233/528 425/287/531 421/281/328
f 425/287/532 426/288/533 427/286/534
f 425/287/531 423/286/529 426/288/535
f 425/287/532 419/233/527 421/281/325
f 425/287/532 427/286/534 419/233/527
f 427/286/534 424/278/536 419/233/527
f 427/286/534 428/289/537 424/278/536
f 426/288/533 428/289/537 427/286/534
f 426/288/535 423/286/529 428/289/538
f 423/286/529 424/278/530 428/289/538
f 419/233/527 424/278/536 415/284/523
f 417/279/524 415/284/525 424/278/530
f 410/282/311 416/283/526 417/279/524
f 407/279/515 416/283/526 410/282/311
f 337/230/203 408/281/312 344/233/445
