# Blender 4.2.0
# www.blender.org
mtllib dead_or_life.mtl
o dead_or_life
v 0.000000 0.000000 -10.000000
v -1.950903 0.000000 -9.807853
v -3.826835 0.000000 -9.238795
v -5.555702 0.000000 -8.314696
v -7.071068 0.000000 -7.071068
v -8.314696 0.000000 -5.555702
v -9.238795 0.000000 -3.826835
v -9.807853 0.000000 -1.950903
v -10.000000 0.000000 0.000000
v -9.807853 0.000000 1.950903
v -9.238795 0.000000 3.826835
v -8.314696 0.000000 5.555702
v -7.071068 0.000000 7.071068
v -5.555702 0.000000 8.314696
v -3.826835 0.000000 9.238795
v -1.950903 0.000000 9.807853
v 0.000000 0.000000 10.000000
v 1.950903 0.000000 9.807853
v 3.826835 0.000000 9.238795
v 5.555702 0.000000 8.314696
v 7.071068 0.000000 7.071068
v 8.314696 0.000000 5.555702
v 9.238795 0.000000 3.826835
v 9.807853 0.000000 1.950903
v 10.000000 0.000000 0.000000
v 9.807853 0.000000 -1.950903
v 9.238795 0.000000 -3.826835
v 8.314696 0.000000 -5.555702
v 7.071068 0.000000 -7.071068
v 5.555702 0.000000 -8.314696
v 3.826835 0.000000 -9.238795
v 1.950903 0.000000 -9.807853
v 0.000000 -0.010000 -10.000000
v -1.950903 -0.010000 -9.807853
v -3.826835 -0.010000 -9.238795
v -5.555702 -0.010000 -8.314696
v -7.071068 -0.010000 -7.071068
v -8.314696 -0.010000 -5.555702
v -9.238795 -0.010000 -3.826835
v -9.807853 -0.010000 -1.950903
v -10.000000 -0.010000 0.000000
v -9.807853 -0.010000 1.950903
v -9.238795 -0.010000 3.826835
v -8.314696 -0.010000 5.555702
v -7.071068 -0.010000 7.071068
v -5.555702 -0.010000 8.314696
v -3.826835 -0.010000 9.238795
v -1.950903 -0.010000 9.807853
v 0.000000 -0.010000 10.000000
v 1.950903 -0.010000 9.807853
v 3.826835 -0.010000 9.238795
v 5.555702 -0.010000 8.314696
v 7.071068 -0.010000 7.071068
v 8.314696 -0.010000 5.555702
v 9.238795 -0.010000 3.826835
v 9.807853 -0.010000 1.950903
v 10.000000 -0.010000 0.000000
v 9.807853 -0.010000 -1.950903
v 9.238795 -0.010000 -3.826835
v 8.314696 -0.010000 -5.555702
v 7.071068 -0.010000 -7.071068
v 5.555702 -0.010000 -8.314696
v 3.826835 -0.010000 -9.238795
v 1.950903 -0.010000 -9.807853
vn -0.0000 1.0000 -0.0000
vn -0.0000 -1.0000 -0.0000
vn -0.0980 -0.0000 -0.9952
vn -0.2903 -0.0000 -0.9569
vn -0.4714 -0.0000 -0.8819
vn -0.6344 -0.0000 -0.7730
vn -0.7730 -0.0000 -0.6344
vn -0.8819 -0.0000 -0.4714
vn -0.9569 -0.0000 -0.2903
vn -0.9952 -0.0000 -0.0980
vn -0.9952 -0.0000 0.0980
vn -0.9569 -0.0000 0.2903
vn -0.8819 -0.0000 0.4714
vn -0.7730 -0.0000 0.6344
vn -0.6344 -0.0000 0.7730
vn -0.4714 -0.0000 0.8819
vn -0.2903 -0.0000 0.9569
vn -0.0980 -0.0000 0.9952
vn 0.0980 -0.0000 0.9952
vn 0.2903 -0.0000 0.9569
vn 0.4714 -0.0000 0.8819
vn 0.6344 -0.0000 0.7730
vn 0.7730 -0.0000 0.6344
vn 0.8819 -0.0000 0.4714
vn 0.9569 -0.0000 0.2903
vn 0.9952 -0.0000 0.0980
vn 0.9952 -0.0000 -0.0980
vn 0.9569 -0.0000 -0.2903
vn 0.8819 -0.0000 -0.4714
vn 0.7730 -0.0000 -0.6344
vn 0.6344 -0.0000 -0.7730
vn 0.4714 -0.0000 -0.8819
vn 0.2903 -0.0000 -0.9569
vn 0.0980 -0.0000 -0.9952
vt 0.500000 0.019984
vt 0.980016 0.500000
vt 0.500000 0.980017
vt 0.683694 0.056523
vt 0.056523 0.316306
vt 0.316306 0.943477
vt 0.406353 0.970793
vt 0.233317 0.899119
vt 0.160577 0.839423
vt 0.100881 0.766683
vt 0.056523 0.683694
vt 0.029207 0.593647
vt 0.019984 0.500000
vt 0.029207 0.406353
vt 0.100881 0.233317
vt 0.160577 0.160577
vt 0.233317 0.100881
vt 0.316306 0.056523
vt 0.406353 0.029207
vt 0.593647 0.029207
vt 0.766683 0.100881
vt 0.839423 0.160577
vt 0.899119 0.233317
vt 0.943477 0.316306
vt 0.970793 0.406353
vt 0.970793 0.593647
vt 0.943477 0.683694
vt 0.899119 0.766683
vt 0.839423 0.839423
vt 0.766683 0.899119
vt 0.683694 0.943477
vt 0.593647 0.970793
s 0
usemtl 材质
f 17/1/1 25/2/1 1/3/1
f 51/4/2 43/5/2 35/6/2
f 1/3/3 34/7/3 2/7/3
f 2/7/4 35/6/4 3/6/4
f 3/6/5 36/8/5 4/8/5
f 4/8/6 37/9/6 5/9/6
f 5/9/7 38/10/7 6/10/7
f 6/10/8 39/11/8 7/11/8
f 7/11/9 40/12/9 8/12/9
f 8/12/10 41/13/10 9/13/10
f 9/13/11 42/14/11 10/14/11
f 10/14/12 43/5/12 11/5/12
f 11/5/13 44/15/13 12/15/13
f 12/15/14 45/16/14 13/16/14
f 13/16/15 46/17/15 14/17/15
f 14/17/16 47/18/16 15/18/16
f 15/18/17 48/19/17 16/19/17
f 16/19/18 49/1/18 17/1/18
f 17/1/19 50/20/19 18/20/19
f 18/20/20 51/4/20 19/4/20
f 19/4/21 52/21/21 20/21/21
f 20/21/22 53/22/22 21/22/22
f 21/22/23 54/23/23 22/23/23
f 22/23/24 55/24/24 23/24/24
f 23/24/25 56/25/25 24/25/25
f 24/25/26 57/2/26 25/2/26
f 25/2/27 58/26/27 26/26/27
f 26/26/28 59/27/28 27/27/28
f 27/27/29 60/28/29 28/28/29
f 28/28/30 61/29/30 29/29/30
f 29/29/31 62/30/31 30/30/31
f 30/30/32 63/31/32 31/31/32
f 31/31/33 64/32/33 32/32/33
f 32/32/34 33/3/34 1/3/34
f 1/3/1 2/7/1 3/6/1
f 3/6/1 4/8/1 5/9/1
f 5/9/1 6/10/1 7/11/1
f 7/11/1 8/12/1 9/13/1
f 9/13/1 10/14/1 11/5/1
f 11/5/1 12/15/1 13/16/1
f 13/16/1 14/17/1 15/18/1
f 15/18/1 16/19/1 17/1/1
f 17/1/1 18/20/1 19/4/1
f 19/4/1 20/21/1 21/22/1
f 21/22/1 22/23/1 23/24/1
f 23/24/1 24/25/1 25/2/1
f 25/2/1 26/26/1 27/27/1
f 27/27/1 28/28/1 29/29/1
f 29/29/1 30/30/1 31/31/1
f 31/31/1 32/32/1 1/3/1
f 1/3/1 3/6/1 5/9/1
f 5/9/1 7/11/1 9/13/1
f 9/13/1 11/5/1 13/16/1
f 13/16/1 15/18/1 17/1/1
f 17/1/1 19/4/1 21/22/1
f 21/22/1 23/24/1 25/2/1
f 25/2/1 27/27/1 29/29/1
f 29/29/1 31/31/1 1/3/1
f 1/3/1 5/9/1 9/13/1
f 9/13/1 13/16/1 17/1/1
f 17/1/1 21/22/1 25/2/1
f 25/2/1 29/29/1 1/3/1
f 1/3/1 9/13/1 17/1/1
f 35/6/2 34/7/2 33/3/2
f 33/3/2 64/32/2 63/31/2
f 63/31/2 62/30/2 61/29/2
f 61/29/2 60/28/2 59/27/2
f 59/27/2 58/26/2 57/2/2
f 57/2/2 56/25/2 55/24/2
f 55/24/2 54/23/2 53/22/2
f 53/22/2 52/21/2 51/4/2
f 51/4/2 50/20/2 49/1/2
f 49/1/2 48/19/2 47/18/2
f 47/18/2 46/17/2 45/16/2
f 45/16/2 44/15/2 43/5/2
f 43/5/2 42/14/2 41/13/2
f 41/13/2 40/12/2 39/11/2
f 39/11/2 38/10/2 37/9/2
f 37/9/2 36/8/2 35/6/2
f 35/6/2 33/3/2 63/31/2
f 63/31/2 61/29/2 59/27/2
f 59/27/2 57/2/2 55/24/2
f 55/24/2 53/22/2 51/4/2
f 51/4/2 49/1/2 47/18/2
f 47/18/2 45/16/2 43/5/2
f 43/5/2 41/13/2 39/11/2
f 39/11/2 37/9/2 35/6/2
f 35/6/2 63/31/2 59/27/2
f 59/27/2 55/24/2 51/4/2
f 51/4/2 47/18/2 43/5/2
f 43/5/2 39/11/2 35/6/2
f 35/6/2 59/27/2 51/4/2
f 1/3/3 33/3/3 34/7/3
f 2/7/4 34/7/4 35/6/4
f 3/6/5 35/6/5 36/8/5
f 4/8/6 36/8/6 37/9/6
f 5/9/7 37/9/7 38/10/7
f 6/10/8 38/10/8 39/11/8
f 7/11/9 39/11/9 40/12/9
f 8/12/10 40/12/10 41/13/10
f 9/13/11 41/13/11 42/14/11
f 10/14/12 42/14/12 43/5/12
f 11/5/13 43/5/13 44/15/13
f 12/15/14 44/15/14 45/16/14
f 13/16/15 45/16/15 46/17/15
f 14/17/16 46/17/16 47/18/16
f 15/18/17 47/18/17 48/19/17
f 16/19/18 48/19/18 49/1/18
f 17/1/19 49/1/19 50/20/19
f 18/20/20 50/20/20 51/4/20
f 19/4/21 51/4/21 52/21/21
f 20/21/22 52/21/22 53/22/22
f 21/22/23 53/22/23 54/23/23
f 22/23/24 54/23/24 55/24/24
f 23/24/25 55/24/25 56/25/25
f 24/25/26 56/25/26 57/2/26
f 25/2/27 57/2/27 58/26/27
f 26/26/28 58/26/28 59/27/28
f 27/27/29 59/27/29 60/28/29
f 28/28/30 60/28/30 61/29/30
f 29/29/31 61/29/31 62/30/31
f 30/30/32 62/30/32 63/31/32
f 31/31/33 63/31/33 64/32/33
f 32/32/34 64/32/34 33/3/34
