# Blender 4.1.0
# www.blender.org
mtllib diosss.mtl
o blade
v -1.865713 -7.961703 -167.646271
v -0.567159 -10.982307 -156.369705
v 0.387701 -4.236560 -120.971542
v -0.161862 -0.492780 -118.291107
v 2.498108 -4.940685 -89.933617
v 2.297501 0.750383 -75.882599
v 1.852952 2.990728 -76.096588
v 0.870056 2.180817 -93.991737
v 1.310619 8.356568 -68.399178
v 2.221894 -3.607223 -90.243546
v 5.008543 -4.293103 -48.522888
v 4.695203 -2.402327 -47.731537
v 1.032795 -7.335116 -120.200180
v 1.526520 6.848937 -69.563606
v -7.704838 -8.084470 -167.475189
v -6.406286 -11.105074 -156.198608
v -5.451425 -4.359327 -120.800446
v -6.000987 -0.615546 -118.120026
v -3.341019 -5.063452 -89.762527
v -3.541626 0.627617 -75.711502
v -3.986174 2.867962 -75.925499
v -4.969069 2.058050 -93.820648
v -4.528508 8.233802 -68.228081
v -3.617233 -3.729990 -90.072456
v -0.830584 -4.415871 -48.351799
v -1.143924 -2.525094 -47.560448
v -4.806332 -7.457882 -120.029099
v -4.312607 6.726170 -69.392509
v -0.628802 -5.464660 -127.615807
v -1.042719 -3.483882 -128.133057
v 3.995408 -3.119942 -47.855385
v -0.808116 5.089980 -65.417191
v -0.121621 5.331828 -53.897385
v 4.608573 -3.183741 -38.411945
v 4.139949 0.149737 -35.699818
v 0.147508 7.396234 -43.427265
v 4.093737 2.752703 -28.557507
v 0.081243 10.027702 -36.513935
v 4.361498 4.028150 -20.493866
v 0.732019 13.784556 -28.921310
v 3.400392 10.094790 -17.262142
v 4.956235 3.634568 -12.336952
v 4.217633 8.661503 -8.751373
v 5.821469 2.210673 -3.043564
v 4.785110 8.500829 -0.315956
v 5.953993 4.305270 5.370941
v 5.027565 10.309279 8.961189
v 5.328285 9.500634 11.242744
v 6.292238 4.965298 12.681908
v 6.940145 3.452087 18.289894
v 6.140303 9.446735 23.841217
v 6.974536 5.296624 24.406273
v 7.049019 10.179538 40.337494
v 7.752711 6.855647 41.348625
v 9.281779 12.083266 81.181656
v 9.879979 9.079619 81.502945
v 12.634688 12.763003 135.929657
v 12.947176 10.746770 134.745621
v 16.511147 11.905861 194.259689
v 16.690422 9.620420 190.168350
v -0.301439 7.244030 -70.024971
v 2.392120 9.479511 -34.964870
v 2.491871 6.764483 -41.604561
v 2.424460 3.855233 -51.458420
v 2.611796 1.978830 -54.186539
v 1.839116 2.218564 -65.605034
v 1.814682 -1.037301 -75.831253
v 0.987476 1.352089 -81.608414
v 1.393212 2.056997 -73.101112
v 0.447922 3.287332 -84.237755
v 1.392941 3.431530 -68.950233
v 1.083371 2.193792 -77.556938
v -4.817780 -5.552733 -127.493073
v -5.231698 -3.571955 -128.010315
v -0.193572 -3.208014 -47.732643
v 0.419595 -3.271813 -38.289207
v -0.049029 0.061664 -35.577076
v -0.095241 2.664631 -28.434765
v 0.172520 3.940078 -20.371124
v -1.038095 13.747339 -28.869453
v -0.788949 10.006710 -17.139393
v 0.767257 3.546496 -12.214211
v 0.028292 8.573423 -8.628624
v 1.632491 2.122601 -2.920822
v 0.596130 8.412756 -0.193222
v 1.765013 4.217197 5.493683
v 0.838586 10.221208 9.083939
v 1.139307 9.412561 11.365486
v 2.103260 4.877225 12.804649
v 2.751168 3.364014 18.412628
v 1.951325 9.358663 23.963959
v 2.785558 5.208551 24.529015
v 2.860041 10.091467 40.460243
v 3.563733 6.767574 41.471367
v 5.092801 11.995195 81.304382
v 5.691000 8.991548 81.625656
v 8.445711 12.674932 136.052383
v 8.758195 10.658698 134.868362
v 12.322169 11.817789 194.382401
v 12.501442 9.532347 190.291092
v -2.715592 7.193273 -69.954231
v -1.796858 9.391438 -34.842133
v -1.697107 6.676411 -41.481819
v -1.764518 3.767160 -51.335678
v -1.577182 1.890757 -54.063801
v -2.349862 2.130491 -65.482300
v -2.374295 -1.125374 -75.708511
v -3.201502 1.264017 -81.485680
v -2.795766 1.968925 -72.978371
v -3.741056 3.199259 -84.115013
v -2.796036 3.343457 -68.827492
v -3.105607 2.105720 -77.434196
v -0.101505 13.519855 -28.829430
v -0.189026 17.677565 -17.636429
v 1.371385 9.641442 -17.406128
v 0.442170 16.154417 -20.975540
v 3.058385 13.204528 -13.740711
v 2.184129 8.324989 -8.612869
v 2.831651 7.777942 -0.090294
v 3.019200 9.755862 8.836235
v 3.329705 8.923986 11.201363
v 4.146900 8.807865 23.693092
v 5.092093 9.489905 40.609184
v 0.376922 16.052254 -13.655369
v 3.557568 12.658298 -7.546928
v 1.240033 15.159178 -2.790718
v 3.922175 12.744301 -1.556900
v 1.282038 16.550730 2.075981
v 4.029024 14.149341 4.369652
v 2.111705 15.340214 11.455437
v 4.623510 13.538271 11.865173
v 2.779290 15.984981 23.896080
v 5.269335 14.125005 23.788391
v 6.210902 14.826886 40.707458
v 3.711216 16.714798 40.748100
v 6.673274 18.356344 92.261078
v 8.844200 16.453279 87.007980
v 7.297921 11.470427 81.262192
v 10.627041 12.197690 135.779999
v 12.352642 15.434981 139.067215
v 15.925173 14.990450 193.868118
v 17.310114 13.279002 210.459824
v 18.594284 10.186602 221.293350
v 10.895592 19.046057 160.702560
v 13.195276 18.507822 195.216599
v 15.392999 17.606770 227.031479
v 18.123112 14.173208 225.939713
v 19.172047 12.961378 238.761154
v 19.909052 9.442520 239.706436
v 20.048618 11.066589 246.809250
v 20.639986 8.640998 248.770615
v 16.487301 16.634792 241.290909
v 17.278008 15.290570 249.653915
v 18.403446 12.346723 258.441895
v 19.829317 6.586665 263.438171
v 14.371015 11.342211 192.032944
v 0.888406 14.981006 -8.855347
v 17.200592 14.735487 213.141495
v 10.121026 16.781168 108.065353
v 8.844208 11.801513 106.563965
v 10.644659 15.142940 111.342316
v 10.565428 16.899059 115.405792
v 11.142342 15.272495 119.555344
v 11.163062 17.030842 125.196381
v 11.753851 15.366379 129.449432
v 11.811010 16.963547 135.175873
v 18.102341 11.695498 218.123367
v 8.378386 18.914806 120.746231
v -0.652736 16.131397 -20.943455
v -1.194744 13.115108 -13.616089
v -0.695562 12.568878 -7.422310
v -0.330955 12.654881 -1.432281
v -0.224104 14.059920 4.494278
v 0.370382 13.448851 11.989799
v 1.016206 14.035584 23.913017
v 1.957772 14.737466 40.832085
v 4.591073 16.363859 87.132614
v 8.099514 15.345560 139.191833
v 11.672045 14.901029 193.992722
v 13.056984 13.189581 210.584427
v 14.341156 10.097181 221.417923
v 13.869980 14.083788 226.064316
v 14.918917 12.871958 238.885757
v 15.655924 9.353099 239.831009
v 15.795487 10.977169 246.933853
v 16.386858 8.551577 248.895218
v 12.947464 14.646066 213.266098
v 5.867898 16.691748 108.189972
v 6.391531 15.053519 111.466949
v 6.312300 16.809639 115.530411
v 6.889212 15.183075 119.679977
v 6.909934 16.941422 125.320999
v 7.500721 15.276958 129.574066
v 7.557881 16.874126 135.300507
v 13.849211 11.606077 218.247971
v -3.114224 -8.442140 -217.460373
v -1.815672 -11.462743 -206.183807
v -0.860810 -4.716996 -170.785645
v -1.410375 -0.973215 -168.105209
v 1.249595 -5.421122 -139.747711
v 1.048990 0.269948 -125.696701
v 0.604440 2.510293 -125.910690
v -0.378456 1.700382 -143.805847
v 0.062107 7.876134 -118.213272
v 0.973382 -4.087659 -140.057648
v 3.760030 -4.773540 -98.336983
v 3.446690 -2.882763 -97.545639
v -0.215718 -7.815551 -170.014282
v 0.278007 6.368502 -119.377701
v -8.953350 -8.564906 -217.289276
v -7.654799 -11.585509 -206.012726
v -6.699937 -4.839763 -170.614532
v -7.249500 -1.095981 -167.934113
v -4.589531 -5.543888 -139.576630
v -4.790137 0.147181 -125.525604
v -5.234687 2.387527 -125.739594
v -6.217582 1.577615 -143.634750
v -5.777020 7.753367 -118.042183
v -4.865745 -4.210426 -139.886566
v -2.079097 -4.896307 -98.165894
v -2.392437 -3.005529 -97.374542
v -6.054845 -7.938318 -169.843201
v -5.561120 6.245735 -119.206612
v -1.877314 -5.945096 -177.429901
v -2.291232 -3.964318 -177.947174
v 2.746895 -3.600378 -97.669479
v -2.056629 4.609544 -115.231293
v -1.370134 4.851392 -103.711487
v 3.360060 -3.664178 -88.226044
v 2.891437 -0.330699 -85.513916
v -1.101004 6.915800 -93.241364
v 2.845224 2.272267 -78.371613
v -1.167270 9.547268 -86.328033
v 3.112985 3.547715 -70.307968
v -0.516494 13.304121 -78.735413
v 2.151879 9.614354 -67.076248
v 3.707723 3.154133 -62.151054
v 2.969121 8.181067 -58.565479
v 4.572956 1.730238 -52.857658
v 3.536597 8.020393 -50.130058
v 4.705481 3.824834 -44.443150
v 3.779052 9.828844 -40.852905
v 4.079772 9.020199 -38.571358
v 5.043725 4.484863 -37.132183
v 5.691633 2.971650 -31.524212
v 4.891790 8.966301 -25.972885
v 5.726025 4.816188 -25.407829
v 5.800506 9.699103 -9.476601
v 6.504201 6.375211 -8.465477
v 8.033266 11.602832 31.367561
v 8.631466 8.599183 31.688828
v 11.386175 12.282568 86.115555
v 11.698660 10.266335 84.931519
v 15.262632 11.425426 144.445572
v 15.441908 9.139984 140.354263
v -1.549951 6.763596 -119.839066
v 1.143607 8.999077 -84.778969
v 1.243358 6.284048 -91.418655
v 1.175949 3.374797 -101.272522
v 1.363283 1.498394 -104.000641
v 0.590603 1.738128 -115.419136
v 0.566170 -1.517737 -125.645355
v -0.261037 0.871654 -131.422516
v 0.144699 1.576562 -122.915215
v -0.800591 2.806896 -134.051849
v 0.144431 2.951094 -118.764336
v -0.165142 1.713357 -127.371033
v -6.066292 -6.033169 -177.307159
v -6.480210 -4.052391 -177.824432
v -1.442085 -3.688450 -97.546745
v -0.828918 -3.752250 -88.103302
v -1.297541 -0.418771 -85.391174
v -1.343756 2.184195 -78.248871
v -1.075993 3.459643 -70.185226
v -2.286607 13.266905 -78.683548
v -2.037462 9.526275 -66.953499
v -0.481256 3.066061 -62.028316
v -1.220220 8.092988 -58.442730
v 0.383978 1.642165 -52.734924
v -0.652382 7.932321 -50.007324
v 0.516501 3.736762 -44.320412
v -0.409926 9.740772 -40.730171
v -0.109206 8.932127 -38.448624
v 0.854747 4.396790 -37.009445
v 1.502655 2.883578 -31.401470
v 0.702812 8.878228 -25.850143
v 1.537045 4.728115 -25.285091
v 1.611528 9.611031 -9.353859
v 2.315221 6.287138 -8.342735
v 3.844288 11.514759 31.490303
v 4.442488 8.511111 31.811577
v 7.197197 12.194494 86.238297
v 7.509683 10.178261 85.054276
v 11.073655 11.337352 144.568298
v 11.252928 9.051910 140.477005
v -3.964105 6.712839 -119.768326
v -3.045370 8.911005 -84.656235
v -2.945619 6.195976 -91.295921
v -3.013031 3.286725 -101.149780
v -2.825695 1.410322 -103.877899
v -3.598375 1.650056 -115.296387
v -3.622808 -1.605809 -125.522614
v -4.450015 0.783581 -131.299774
v -4.044279 1.488490 -122.792480
v -4.989569 2.718824 -133.929108
v -4.044549 2.863022 -118.641594
v -4.354120 1.625285 -127.248306
v -1.350017 13.039423 -78.643524
v -1.437539 17.197132 -67.450539
v 0.122873 9.161007 -67.220230
v -0.806343 15.673984 -70.789635
v 1.809872 12.724093 -63.554802
v 0.935616 7.844553 -58.426979
v 1.583139 7.297507 -49.904396
v 1.770687 9.275427 -40.977856
v 2.081192 8.443550 -38.612751
v 2.898388 8.327429 -26.121006
v 3.843580 9.009470 -9.204910
v -0.871590 15.571819 -63.469471
v 2.309055 12.177863 -57.361031
v -0.008480 14.678744 -52.604824
v 2.673661 12.263867 -51.371006
v 0.033525 16.070297 -47.738125
v 2.780511 13.668906 -45.444447
v 0.863190 14.859778 -38.358669
v 3.374997 13.057837 -37.948921
v 1.530777 15.504547 -25.918011
v 4.020822 13.644570 -26.025726
v 4.962389 14.346452 -9.106636
v 2.462703 16.234365 -9.066010
v 5.424761 17.875912 42.446976
v 7.595687 15.972845 37.193871
v 6.049408 10.989991 31.448105
v 9.378529 11.717256 85.965897
v 11.104128 14.954547 89.253143
v 14.676659 14.510015 144.054031
v 16.061602 12.798568 160.645721
v 17.345772 9.706164 171.479233
v 9.647079 18.565622 110.888458
v 11.946764 18.027386 145.402496
v 14.144485 17.126335 177.217361
v 16.874598 13.692774 176.125610
v 17.923532 12.480944 188.947067
v 18.660540 8.962084 189.892349
v 18.800104 10.586155 196.995163
v 19.391474 8.160563 198.956558
v 15.238789 16.154356 191.476852
v 16.029497 14.810133 199.839890
v 17.154932 11.866288 208.627762
v 18.580805 6.106229 213.624039
v 13.122503 10.861774 142.218903
v -0.360106 14.500572 -58.669449
v 15.952080 14.255051 163.327377
v 8.872513 16.300734 58.251236
v 7.595695 11.321077 56.749863
v 9.396147 14.662505 61.528229
v 9.316916 16.418625 65.591705
v 9.893827 14.792060 69.741257
v 9.914550 16.550407 75.382278
v 10.505337 14.885944 79.635330
v 10.562498 16.483112 85.361771
v 16.853828 11.215062 168.309280
v 7.129872 18.434372 70.932144
v -1.901248 15.650964 -70.757553
v -2.443256 12.634672 -63.430183
v -1.944075 12.088442 -57.236412
v -1.579468 12.174445 -51.246387
v -1.472617 13.579485 -45.319832
v -0.878131 12.968416 -37.824303
v -0.232307 13.555149 -25.901104
v 0.709261 14.257030 -8.982010
v 3.342559 15.883424 37.318489
v 6.851002 14.865124 89.377762
v 10.423532 14.420592 144.178665
v 11.808473 12.709146 160.770340
v 13.092644 9.616743 171.603867
v 12.621467 13.603352 176.250229
v 13.670405 12.391522 189.071701
v 14.407410 8.872663 190.016983
v 14.546974 10.496733 197.119797
v 15.138347 8.071142 199.081192
v 11.698952 14.165628 163.451996
v 4.619385 16.211313 58.375870
v 5.143019 14.573084 61.652863
v 5.063788 16.329203 65.716324
v 5.640699 14.702639 69.865891
v 5.661421 16.460985 75.506897
v 6.252208 14.796521 79.759949
v 6.309368 16.393690 85.486389
v 12.600699 11.125640 168.433899
vn 0.9801 0.1885 -0.0624
vn -0.9801 -0.1885 0.0624
vn 0.9645 0.2564 -0.0639
vn 0.9801 0.1885 -0.0623
vn 0.7980 0.5581 -0.2276
vn 0.6739 0.6766 -0.2967
vn 0.7978 0.5582 -0.2277
vn 0.3076 0.8660 -0.3943
vn 0.6831 0.6959 -0.2216
vn 0.3076 0.8660 -0.3942
vn 0.6830 0.6960 -0.2217
vn 0.4261 0.8705 -0.2462
vn 0.6831 0.6959 -0.2217
vn 0.7978 0.5583 -0.2276
vn 0.6829 0.6961 -0.2217
vn 0.4259 0.8706 -0.2462
vn 0.6829 0.6961 -0.2216
vn 0.5130 0.8445 -0.1540
vn 0.8783 0.4654 -0.1097
vn 0.5131 0.8444 -0.1539
vn 0.8781 0.4657 -0.1101
vn 0.7597 0.6494 0.0340
vn 0.6830 0.6960 -0.2216
vn 0.8781 0.4656 -0.1100
vn 0.5132 0.8444 -0.1540
vn 0.8782 0.4654 -0.1100
vn 0.9190 0.3849 -0.0859
vn 0.7598 0.6492 0.0340
vn 0.9190 0.3848 -0.0859
vn 0.9199 0.3918 -0.0180
vn 0.9190 0.3848 -0.0858
vn 0.9188 0.3852 -0.0858
vn 0.9197 0.3922 -0.0180
vn 0.7598 0.6493 0.0340
vn 0.9108 0.4023 -0.0930
vn 0.9501 0.3038 -0.0706
vn 0.8950 0.4457 0.0172
vn 0.9500 0.3041 -0.0706
vn 0.9107 0.4026 -0.0929
vn 0.9118 0.4066 0.0582
vn 0.8952 0.4454 0.0172
vn 0.7598 0.6493 0.0341
vn 0.9198 0.3920 -0.0177
vn 0.9117 0.4066 0.0582
vn 0.9675 0.2448 -0.0630
vn 0.9118 0.4065 0.0582
vn 0.9674 0.2451 -0.0630
vn 0.8951 0.4456 0.0172
vn 0.9118 0.4065 0.0580
vn 0.7979 0.5582 -0.2276
vn 0.6740 0.6765 -0.2967
vn 0.9644 0.2566 -0.0639
vn 0.9644 0.2564 -0.0640
vn -0.9912 -0.1180 0.0605
vn -0.9801 -0.1886 0.0624
vn -0.9486 0.2825 -0.1429
vn -0.5838 0.7356 -0.3437
vn -0.9484 0.2830 -0.1432
vn -0.8397 0.4840 -0.2462
vn -0.8487 0.5050 -0.1568
vn -0.5464 0.8084 -0.2189
vn -0.8486 0.5052 -0.1568
vn -0.8487 0.5050 -0.1567
vn -0.8487 0.5052 -0.1568
vn -0.9484 0.2829 -0.1432
vn -0.6494 0.7537 -0.1017
vn -0.8486 0.5053 -0.1567
vn -0.9904 0.1379 0.0033
vn -0.8992 0.4101 0.1526
vn -0.9904 0.1383 0.0033
vn -0.6494 0.7536 -0.1016
vn -0.6495 0.7535 -0.1016
vn -0.9904 0.1383 0.0032
vn -0.8487 0.5051 -0.1568
vn -0.9904 0.1378 0.0033
vn -0.8992 0.4100 0.1526
vn -0.9989 0.0314 0.0341
vn -0.9904 0.1381 0.0033
vn -0.9989 0.0313 0.0341
vn -0.9935 0.0395 0.1067
vn -0.8992 0.4100 0.1527
vn -0.9935 0.0396 0.1066
vn -0.9989 0.0319 0.0344
vn -0.9965 -0.0654 0.0529
vn -0.9982 0.0537 0.0256
vn -0.9965 -0.0654 0.0530
vn -0.9982 0.0541 0.0256
vn -0.9965 -0.0651 0.0529
vn -0.9836 0.1091 0.1433
vn -0.9836 0.1088 0.1438
vn -0.9806 0.0594 0.1868
vn -0.9806 0.0595 0.1868
vn -0.9935 0.0395 0.1070
vn -0.9895 -0.1304 0.0616
vn -0.9964 -0.0654 0.0530
vn -0.9806 0.0590 0.1868
vn -0.9935 0.0395 0.1066
vn -0.9806 0.0590 0.1867
vn -0.9896 -0.1301 0.0616
vn -0.9837 0.1087 0.1433
vn -0.9806 0.0591 0.1868
vn -0.9837 0.1087 0.1432
vn -0.9912 -0.1177 0.0605
vn -0.8399 0.4837 -0.2461
vn -0.9486 0.2826 -0.1428
vn -0.9486 0.2825 -0.1428
vn -0.0318 0.8969 -0.4411
vn -0.0067 0.9062 0.4229
vn 0.9723 -0.1519 -0.1776
vn 0.9913 0.0877 -0.0980
vn 0.9597 0.2095 -0.1875
vn 0.9723 -0.1518 -0.1777
vn 0.9596 0.2095 -0.1876
vn 0.8829 0.4680 -0.0375
vn 0.9596 0.2099 -0.1875
vn 0.7864 0.6156 0.0512
vn 0.8829 0.4681 -0.0375
vn 0.7863 0.6156 0.0515
vn 0.7244 0.6782 0.1236
vn 0.8830 0.4680 -0.0376
vn 0.9334 0.3519 -0.0706
vn 0.9723 -0.1522 -0.1776
vn 0.9334 0.3519 -0.0705
vn 0.9596 -0.2666 -0.0904
vn 0.6876 0.7187 -0.1034
vn 0.9617 0.2582 -0.0924
vn 0.9332 0.3524 -0.0706
vn 0.6877 0.7186 -0.1034
vn 0.6929 0.7132 -0.1056
vn 0.6930 0.7132 -0.1056
vn 0.8679 0.4953 -0.0375
vn 0.9617 0.2579 -0.0924
vn 0.6928 0.7134 -0.1055
vn 0.6025 0.7981 -0.0042
vn 0.6026 0.7981 -0.0042
vn 0.9252 0.3697 -0.0860
vn 0.8679 0.4953 -0.0376
vn 0.5950 0.8007 -0.0699
vn 0.9251 0.3697 -0.0861
vn 0.9331 0.3532 -0.0677
vn 0.9252 0.3696 -0.0864
vn 0.9618 0.2576 -0.0924
vn 0.9596 -0.2666 -0.0905
vn 0.9618 0.2577 -0.0924
vn 0.9742 -0.2234 -0.0321
vn 0.9682 -0.2418 -0.0647
vn 0.8682 0.4949 -0.0374
vn 0.9682 -0.2418 -0.0648
vn 0.8681 0.4949 -0.0374
vn 0.9253 0.3693 -0.0864
vn 0.9681 -0.2419 -0.0648
vn 0.9587 -0.2492 -0.1371
vn 0.9587 -0.2492 -0.1370
vn 0.9253 0.3692 -0.0865
vn 0.9732 -0.2243 -0.0515
vn 0.9332 0.3530 -0.0677
vn 0.9732 -0.2242 -0.0515
vn 0.9333 0.3528 -0.0677
vn 0.9752 -0.2168 -0.0451
vn 0.7780 0.6246 -0.0674
vn 0.9751 -0.2172 -0.0451
vn 0.5950 0.8007 -0.0696
vn 0.7778 0.6249 -0.0675
vn 0.6008 0.7968 -0.0638
vn 0.7778 0.6249 -0.0674
vn 0.5903 0.8053 -0.0553
vn 0.9330 0.3544 -0.0621
vn 0.7780 0.6246 -0.0675
vn 0.9332 0.3539 -0.0621
vn 0.9751 -0.2171 -0.0451
vn 0.9333 0.3538 -0.0621
vn 0.9741 -0.2159 -0.0669
vn 0.9752 -0.2169 -0.0451
vn 0.9960 0.0746 -0.0488
vn 0.7850 0.6185 -0.0339
vn 0.9632 0.2607 -0.0653
vn 0.7850 0.6186 -0.0340
vn 0.7820 0.6221 -0.0395
vn 0.9633 0.2604 -0.0654
vn 0.7820 0.6220 -0.0394
vn 0.7778 0.6280 -0.0263
vn 0.9303 0.3639 -0.0465
vn 0.9064 0.4215 -0.0260
vn 0.9855 0.1483 -0.0822
vn 0.9064 0.4215 -0.0261
vn 0.9196 0.3918 0.0281
vn 0.9197 0.3916 0.0282
vn 0.9680 0.2503 0.0176
vn 0.9302 0.3640 -0.0465
vn 0.9063 0.4219 -0.0260
vn 0.7777 0.6280 -0.0263
vn 0.8203 0.5719 0.0106
vn 0.9063 0.4219 -0.0257
vn 0.8203 0.5719 0.0107
vn 0.9195 0.3920 0.0282
vn 0.8204 0.5717 0.0104
vn 0.8465 0.5311 0.0358
vn 0.9196 0.3919 0.0282
vn 0.9017 0.4247 0.0807
vn 0.9196 0.3920 0.0282
vn 0.9019 0.4244 0.0807
vn 0.9446 0.3135 0.0968
vn 0.9448 0.3131 0.0968
vn 0.9680 0.2504 0.0180
vn 0.6875 0.7188 -0.1033
vn 0.9333 0.3522 -0.0705
vn 0.6844 0.7291 0.0080
vn 0.7243 0.6784 0.1235
vn 0.6844 0.7291 0.0082
vn 0.8828 0.4682 -0.0375
vn 0.7778 0.6280 -0.0265
vn 0.9302 0.3640 -0.0466
vn 0.8880 0.4573 -0.0486
vn 0.9303 0.3639 -0.0466
vn 0.9959 0.0073 -0.0900
vn 0.8880 0.4572 -0.0486
vn 0.9633 0.2603 -0.0653
vn 0.9633 0.2605 -0.0653
vn 0.7777 0.6281 -0.0263
vn 0.9961 0.0740 -0.0487
vn 0.9634 0.2599 -0.0654
vn 0.9111 -0.4080 -0.0582
vn 0.9686 -0.2201 -0.1157
vn 0.9112 -0.4079 -0.0582
vn 0.9633 0.2602 -0.0653
vn 0.9959 0.0069 -0.0900
vn 0.9633 0.2602 -0.0654
vn 0.9934 -0.0897 -0.0708
vn 0.8401 0.5381 -0.0685
vn 0.8516 0.5208 -0.0594
vn 0.9934 -0.0897 -0.0709
vn 0.9961 -0.0645 -0.0602
vn 0.8488 0.5259 -0.0550
vn 0.9961 0.0741 -0.0487
vn 0.9895 -0.1318 -0.0598
vn 0.8488 0.5259 -0.0551
vn 0.9895 -0.1312 -0.0598
vn 0.9960 0.0746 -0.0487
vn 0.8374 0.5451 -0.0406
vn 0.8374 0.5450 -0.0407
vn 0.9855 0.1482 -0.0823
vn 0.9687 -0.2198 -0.1157
vn 0.9931 0.0572 -0.1021
vn 0.9959 0.0072 -0.0900
vn 0.9931 0.0571 -0.1021
vn 0.9931 0.0573 -0.1021
vn 0.8399 0.5384 -0.0685
vn 0.8487 0.5260 -0.0550
vn 0.8514 0.5212 -0.0594
vn 0.6075 0.7930 -0.0448
vn 0.6074 0.7931 -0.0448
vn 0.7850 0.6186 -0.0339
vn 0.8372 0.5453 -0.0406
vn 0.8372 0.5454 -0.0406
vn 0.6075 0.7931 -0.0448
vn 0.8514 0.5211 -0.0594
vn 0.6073 0.7932 -0.0448
vn 0.8399 0.5384 -0.0686
vn 0.9934 -0.0901 -0.0708
vn 0.9961 -0.0647 -0.0602
vn 0.9078 -0.4164 -0.0502
vn 0.9895 -0.1317 -0.0598
vn 0.9078 -0.4163 -0.0502
vn 0.9961 -0.0649 -0.0602
vn 0.9333 0.3538 -0.0620
vn 0.8401 0.5380 -0.0686
vn 0.9741 -0.2162 -0.0669
vn 0.9741 -0.2158 -0.0669
vn 0.9934 -0.0900 -0.0709
vn 0.9079 -0.4163 -0.0499
vn 0.9740 -0.2163 -0.0669
vn -0.9843 -0.1637 -0.0659
vn -0.9584 -0.2841 0.0271
vn -0.8775 -0.4770 -0.0494
vn -0.9868 0.1390 0.0831
vn -0.9842 -0.1641 -0.0663
vn -0.8775 -0.4770 -0.0495
vn -0.9867 0.1394 0.0833
vn -0.9179 0.3563 0.1746
vn -0.9843 -0.1636 -0.0659
vn -0.9867 0.1396 0.0836
vn -0.8522 0.4594 0.2505
vn -0.9178 0.3563 0.1750
vn -0.8775 -0.4771 -0.0494
vn -0.9986 -0.0092 0.0519
vn -0.9868 0.1390 0.0832
vn -0.8300 -0.5570 0.0269
vn -0.9986 -0.0092 0.0516
vn -0.9986 -0.0086 0.0519
vn -0.9928 -0.1159 0.0312
vn -0.8471 0.5312 -0.0166
vn -0.9928 -0.1159 0.0311
vn -0.8526 0.5222 -0.0185
vn -0.8471 0.5311 -0.0166
vn -0.9808 0.1769 0.0819
vn -0.9808 0.1769 0.0822
vn -0.7434 0.6631 0.0876
vn -0.8526 0.5223 -0.0184
vn -0.9808 0.1770 0.0822
vn -0.9993 0.0128 0.0344
vn -0.9993 0.0125 0.0344
vn -0.7415 0.6709 0.0092
vn -0.7433 0.6631 0.0876
vn -0.9985 -0.0074 0.0549
vn -0.7415 0.6709 0.0089
vn -0.8301 -0.5570 0.0267
vn -0.9927 -0.1164 0.0312
vn -0.8462 -0.5267 0.0805
vn -0.9927 -0.1165 0.0312
vn -0.8301 -0.5570 0.0270
vn -0.8401 -0.5400 0.0506
vn -0.8403 -0.5398 0.0507
vn -0.9809 0.1763 0.0822
vn -0.8402 -0.5399 0.0506
vn -0.9993 0.0122 0.0344
vn -0.9809 0.1764 0.0822
vn -0.8380 -0.5455 -0.0141
vn -0.9993 0.0122 0.0343
vn -0.8402 -0.5398 0.0506
vn -0.8471 -0.5277 0.0630
vn -0.8471 -0.5277 0.0631
vn -0.9985 -0.0080 0.0549
vn -0.9993 0.0123 0.0344
vn -0.8498 -0.5226 0.0690
vn -0.9985 -0.0079 0.0549
vn -0.8472 -0.5275 0.0631
vn -0.9271 0.3729 0.0382
vn -0.9985 -0.0079 0.0548
vn -0.9269 0.3733 0.0382
vn -0.7415 0.6709 0.0099
vn -0.7477 0.6638 0.0170
vn -0.7415 0.6709 0.0093
vn -0.7346 0.6780 0.0258
vn -0.7477 0.6638 0.0172
vn -0.9981 -0.0065 0.0609
vn -0.8497 -0.5227 0.0690
vn -0.9981 -0.0071 0.0609
vn -0.8512 -0.5224 0.0499
vn -0.9918 -0.1135 0.0590
vn -0.9291 0.3617 0.0776
vn -0.9523 -0.2957 0.0748
vn -0.9918 -0.1134 0.0590
vn -0.9273 0.3676 0.0710
vn -0.9289 0.3620 0.0779
vn -0.9918 -0.1134 0.0591
vn -0.9223 0.3768 0.0856
vn -0.9274 0.3674 0.0711
vn -0.9727 -0.2279 0.0426
vn -0.9922 0.0772 0.0975
vn -0.9970 0.0048 0.0771
vn -0.9870 0.0399 0.1555
vn -0.9820 -0.1236 0.1430
vn -0.9870 0.0399 0.1554
vn -0.9922 0.0777 0.0975
vn -0.9970 0.0053 0.0772
vn -0.9484 0.2885 0.1317
vn -0.9484 0.2884 0.1317
vn -0.9922 0.0776 0.0975
vn -0.9602 0.2280 0.1615
vn -0.9739 0.0833 0.2109
vn -0.9602 0.2279 0.1617
vn -0.9870 0.0398 0.1555
vn -0.9732 -0.0510 0.2244
vn -0.9740 0.0830 0.2109
vn -0.9820 -0.1235 0.1431
vn -0.9732 -0.0509 0.2242
vn -0.8317 0.5435 0.1139
vn -0.9986 -0.0090 0.0518
vn -0.8522 0.4594 0.2504
vn -0.9867 0.1396 0.0833
vn -0.8317 0.5435 0.1138
vn -0.9896 0.1248 0.0718
vn -0.9970 0.0052 0.0771
vn -0.9225 0.3766 0.0848
vn -0.9896 0.1247 0.0718
vn -0.9347 -0.3539 0.0342
vn -0.9917 -0.1139 0.0590
vn -0.9896 0.1249 0.0718
vn -0.9224 0.3768 0.0856
vn -0.7610 -0.6469 0.0484
vn -0.9917 -0.1140 0.0590
vn -0.9522 -0.2961 0.0748
vn -0.7611 -0.6469 0.0482
vn -0.8507 -0.5256 0.0059
vn -0.9917 -0.1139 0.0591
vn -0.9346 -0.3540 0.0342
vn -0.9752 0.2139 0.0561
vn -0.9699 0.2396 0.0446
vn -0.9010 -0.4309 0.0504
vn -0.9094 -0.4115 0.0608
vn -0.9733 0.2213 0.0607
vn -0.9752 0.2139 0.0560
vn -0.8848 -0.4622 0.0593
vn -0.9522 -0.2962 0.0747
vn -0.8850 -0.4618 0.0594
vn -0.9655 0.2491 0.0758
vn -0.9524 -0.2957 0.0748
vn -0.9291 0.3616 0.0780
vn -0.9655 0.2491 0.0757
vn -0.8850 -0.4618 0.0593
vn -0.9733 0.2213 0.0606
vn -0.9500 -0.3112 0.0233
vn -0.8508 -0.5255 0.0059
vn -0.9500 -0.3113 0.0232
vn -0.8507 -0.5255 0.0059
vn -0.9501 -0.3110 0.0232
vn -0.9502 -0.3109 0.0233
vn -0.7346 0.6780 0.0259
vn -0.9697 0.2401 0.0446
vn -0.7535 0.6562 0.0407
vn -0.9751 0.2144 0.0561
vn -0.9733 0.2215 0.0607
vn -0.9654 0.2496 0.0757
vn -0.9290 0.3619 0.0776
vn -0.9733 0.2214 0.0607
vn -0.9751 0.2144 0.0560
vn -0.7535 0.6562 0.0406
vn -0.7534 0.6563 0.0406
vn -0.7564 -0.6518 0.0546
vn -0.9093 -0.4116 0.0608
vn -0.9008 -0.4312 0.0504
vn -0.7611 -0.6469 0.0484
vn -0.9094 -0.4115 0.0609
vn -0.9010 -0.4310 0.0504
vn -0.8514 -0.5222 0.0499
vn -0.8512 -0.5225 0.0499
vn -0.7558 -0.6525 0.0547
vn -0.0292 0.9483 -0.3161
vn -0.0303 0.9300 -0.3663
vn -0.0314 0.9071 -0.4197
vn 0.0168 -0.9903 -0.1378
vn 0.0176 -0.9934 -0.1134
vn 0.0178 -0.9943 -0.1054
vn 0.0197 -0.9989 -0.0420
vn 0.0198 -0.9989 -0.0420
vn 0.0198 -0.9989 -0.0423
vn 0.0170 -0.9913 -0.1304
vn 0.0207 -0.9997 -0.0094
vn 0.0127 -0.9655 -0.2601
vn -0.0251 0.9886 -0.1487
vn -0.0253 0.9873 -0.1570
vn -0.0256 0.9859 -0.1654
vn 0.0248 -0.9904 0.1358
vn 0.0233 -0.9965 0.0802
vn 0.0272 -0.9726 0.2309
vn -0.0254 0.9873 -0.1571
vn -0.0265 0.9787 -0.2036
vn -0.0266 0.9787 -0.2036
vn -0.0216 0.9996 -0.0192
vn -0.0240 0.9941 -0.1055
vn -0.0264 0.9801 -0.1966
vn 0.0214 -0.9997 0.0143
vn 0.0220 -0.9991 0.0355
vn 0.0226 -0.9981 0.0566
vn -0.0240 0.9941 -0.1056
vn -0.0253 0.9875 -0.1557
vn -0.0216 0.9996 -0.0188
vn 0.0351 -0.3809 0.9240
vn -0.0215 0.9996 -0.0187
vn -0.0253 0.9875 -0.1555
vn -0.0176 0.9935 0.1128
vn -0.0216 0.9996 -0.0187
vn 0.0236 -0.9955 0.0921
vn 0.0234 -0.9961 0.0849
vn 0.0207 -0.9997 -0.0093
vn 0.0170 -0.9913 -0.1303
vn 0.0226 -0.9981 0.0567
vn 0.0220 -0.9991 0.0356
vn 0.0260 -0.9827 0.1834
vn 0.0300 -0.9353 0.3525
vn 0.0343 -0.8019 0.5964
vn 0.0354 -0.7201 0.6929
vn 0.0260 -0.9827 0.1835
vn 0.0353 -0.7327 0.6796
vn 0.0354 -0.7200 0.6931
vn 0.0343 -0.8019 0.5965
vn 0.0353 -0.7328 0.6796
vn 0.0355 -0.7200 0.6931
vn -0.0273 0.9718 -0.2340
vn -0.0266 0.9787 -0.2037
vn 0.0353 -0.7329 0.6795
vn 0.0300 -0.9353 0.3526
vn -0.0144 0.9775 0.2103
vn -0.0128 0.9666 0.2559
vn -0.0175 0.9930 0.1165
vn -0.0190 0.9975 0.0674
vn -0.0190 0.9975 0.0673
vn -0.0225 0.9985 -0.0493
vn -0.0244 0.9925 -0.1200
vn -0.0224 0.9985 -0.0493
vn 0.0262 -0.9816 0.1891
vn 0.0249 -0.9901 0.1383
vn 0.0242 -0.9933 0.1134
vn 0.0204 -0.9996 -0.0203
vn -0.0244 0.9925 -0.1201
vn -0.0224 0.9985 -0.0494
vn -0.0221 0.9991 -0.0371
vn -0.0166 0.9896 0.1427
vn -0.0166 0.9896 0.1428
vn -0.0143 0.9770 0.2129
vn -0.0179 0.9946 0.1024
vn 0.0205 -0.9996 -0.0170
vn 0.0169 -0.9907 -0.1350
vn 0.0249 -0.9901 0.1381
vn 0.0262 -0.9816 0.1890
vn 0.0126 -0.9650 -0.2619
vn 0.0169 -0.9907 -0.1351
vn 0.0205 -0.9996 -0.0171
vn -0.0179 0.9946 0.1023
vn -0.0143 0.9770 0.2128
vn -0.0213 0.9997 -0.0107
vn -0.0218 0.9994 -0.0269
vn 0.0270 -0.9751 0.2200
vn 0.0253 -0.9878 0.1537
vn 0.0286 -0.9571 0.2885
vn -0.0213 0.9997 -0.0108
vn -0.0223 0.9988 -0.0439
vn -0.0223 0.9988 -0.0446
vn -0.0223 0.9988 -0.0438
vn 0.0232 -0.9967 0.0784
vn 0.0229 -0.9975 0.0662
vn 0.0253 -0.9878 0.1536
vn 0.0269 -0.9752 0.2198
vn 0.0232 -0.9966 0.0784
vn -0.0223 0.9987 -0.0448
vn -0.0220 0.9992 -0.0339
vn -0.0217 0.9995 -0.0226
vn 0.0223 -0.9987 0.0462
vn 0.0221 -0.9990 0.0380
vn 0.0233 -0.9967 0.0784
vn -0.0217 0.9995 -0.0225
vn -0.0211 0.9998 -0.0021
vn -0.0208 0.9998 0.0069
vn 0.0214 -0.9997 0.0130
vn 0.0209 -0.9998 -0.0043
vn 0.0223 -0.9987 0.0461
vn 0.0214 -0.9997 0.0129
vn 0.0242 -0.9933 0.1133
vn 0.0174 -0.9929 -0.1175
vn 0.0185 -0.9964 -0.0830
vn 0.0185 -0.9964 -0.0829
vn 0.0174 -0.9929 -0.1174
vn 0.0216 -0.9996 0.0190
vn 0.0235 -0.9959 0.0876
vn 0.0326 -0.8719 0.4885
vn 0.0288 -0.9533 0.3008
vn 0.0245 -0.9917 0.1263
vn 0.0289 -0.9533 0.3008
vn -0.0208 0.9998 0.0070
vn -0.0211 0.9998 -0.0020
vn -0.0205 0.9997 0.0161
vn 0.0245 -0.9917 0.1262
vn 0.0289 -0.9533 0.3007
vn 0.0214 -0.9997 0.0128
vn 0.0235 -0.9959 0.0877
vn 0.0216 -0.9996 0.0191
vn 0.0268 -0.9764 0.2141
vn 0.0283 -0.9605 0.2767
vn 0.0283 -0.9605 0.2768
vn 0.0268 -0.9764 0.2143
vn 0.0322 -0.8852 0.4641
vn 0.0346 -0.7892 0.6132
vn 0.0208 -0.9998 -0.0081
vn 0.0211 -0.9998 0.0041
vn 0.0215 -0.9996 0.0160
vn 0.0346 -0.7890 0.6134
vn 0.0360 -0.6277 0.7777
vn 0.0345 -0.7890 0.6134
vn -0.0229 -0.2571 -0.9661
vn -0.0260 0.9831 -0.1812
vn 0.0215 -0.9996 0.0161
vn 0.0218 -0.9994 0.0281
vn -0.0111 0.9526 0.3040
vn -0.0128 0.9666 0.2560
vn -0.0144 0.9775 0.2104
vn 0.0193 -0.9982 -0.0575
vn 0.0188 -0.9971 -0.0734
vn 0.0198 -0.9989 -0.0418
vn 0.0188 -0.9971 -0.0735
vn 0.9251 0.3698 -0.0861
vn 0.5950 0.8007 -0.0698
vn 0.9741 -0.2160 -0.0669
vn 0.9751 -0.2170 -0.0451
vn 0.8203 0.5718 0.0107
vn 0.9449 0.3129 0.0967
vn 0.7778 0.6280 -0.0267
vn 0.9687 -0.2197 -0.1157
vn 0.9332 0.3539 -0.0620
vn 0.9077 -0.4166 -0.0499
vn -0.8402 -0.5398 0.0505
vn -0.7415 0.6709 0.0098
vn -0.7477 0.6638 0.0171
vn -0.9269 0.3732 0.0382
vn -0.9732 -0.0510 0.2241
vn -0.9224 0.3767 0.0851
vn -0.9224 0.3767 0.0856
vn -0.9500 -0.3112 0.0232
vn -0.9697 0.2400 0.0446
vn -0.0218 0.9994 -0.0270
vn -0.0223 0.9988 -0.0437
vn -0.0223 0.9988 -0.0447
vt 0.790430 0.886180
vt 0.764400 0.945720
vt 0.873470 0.960790
vt 0.865800 0.879240
vt 0.839240 0.839840
vt 0.887550 0.795820
vt 0.663000 0.838970
vt 0.694390 0.838440
vt 0.529000 0.774770
vt 0.741740 0.813060
vt 0.569090 0.772130
vt 0.717320 0.887330
vt 0.793370 0.811710
vt 0.857500 0.798750
vt 0.580560 0.198580
vt 0.588760 0.168120
vt 0.604060 0.207400
vt 0.557650 0.197480
vt 0.563150 0.159340
vt 0.540970 0.171930
vt 0.533050 0.208320
vt 0.526630 0.203380
vt 0.521360 0.175840
vt 0.505700 0.166570
vt 0.492470 0.202880
vt 0.489680 0.177680
vt 0.447980 0.207090
vt 0.444240 0.186900
vt 0.337860 0.218060
vt 0.336080 0.199820
vt 0.189690 0.221400
vt 0.192290 0.209180
vt 0.610990 0.170620
vt 0.632460 0.163000
vt 0.651850 0.203920
vt 0.025770 0.728820
vt 0.041230 0.714200
vt 0.042600 0.716840
vt 0.651030 0.147300
vt 0.669020 0.187530
vt 0.055790 0.706250
vt 0.057590 0.709370
vt 0.078570 0.706040
vt 0.682990 0.127630
vt 0.694850 0.170020
vt 0.657370 0.127110
vt 0.076400 0.699090
vt 0.099830 0.710790
vt 0.083060 0.692660
vt 0.701680 0.158670
vt 0.732700 0.160290
vt 0.103710 0.699370
vt 0.759430 0.140670
vt 0.223070 0.706950
vt 0.136800 0.713120
vt 0.223890 0.698470
vt 0.133730 0.703770
vt 0.106880 0.722270
vt 0.108740 0.706080
vt 0.125570 0.705240
vt 0.125310 0.690960
vt 0.117550 0.702450
vt 0.765080 0.160310
vt 0.742130 0.167700
vt 0.752960 0.159410
vt 0.076050 0.668330
vt 0.783520 0.167040
vt 0.745560 0.190760
vt 0.635910 0.229840
vt 0.092010 0.693210
vt 0.047660 0.663780
vt 0.074250 0.644150
vt 0.102900 0.666760
vt 0.772710 0.478020
vt 0.767220 0.482460
vt 0.759520 0.469640
vt 0.760020 0.477900
vt 0.125770 0.670990
vt 0.124890 0.703290
vt 0.741000 0.475540
vt 0.738300 0.468550
vt 0.748680 0.468190
vt 0.732820 0.479600
vt 0.728280 0.472660
vt 0.716320 0.476310
vt 0.715160 0.471050
vt 0.694850 0.478370
vt 0.694580 0.472940
vt 0.147440 0.670450
vt 0.156220 0.707560
vt 0.187120 0.692810
vt 0.167890 0.659960
vt 0.195540 0.664700
vt 0.196320 0.699130
vt 0.241720 0.700220
vt 0.238350 0.660490
vt 0.302580 0.695390
vt 0.299200 0.655500
vt 0.665360 0.475240
vt 0.665750 0.480760
vt 0.576680 0.486360
vt 0.585330 0.480710
vt 0.465950 0.644070
vt 0.448570 0.681180
vt 0.494820 0.478740
vt 0.458060 0.489550
vt 0.399660 0.478450
vt 0.398080 0.488640
vt 0.342720 0.486630
vt 0.129710 0.553850
vt 0.023420 0.538310
vt 0.981260 0.555490
vt 0.645600 0.534060
vt 0.165050 0.527530
vt 0.560320 0.523130
vt 0.343870 0.476690
vt 0.321400 0.473460
vt 0.317800 0.484110
vt 0.307080 0.468200
vt 0.303040 0.480430
vt 0.287250 0.472180
vt 0.277520 0.455830
vt 0.303230 0.461310
vt 0.751490 0.474920
vt 0.366170 0.478060
vt 0.691100 0.570490
vt 0.354740 0.568780
vt 0.802310 0.590730
vt 0.655560 0.652670
vt 0.854690 0.657000
vt 0.645800 0.676670
vt 0.850510 0.684120
vt 0.916160 0.670190
vt 0.542870 0.477410
vt 0.548850 0.482020
vt 0.536140 0.482490
vt 0.555200 0.654380
vt 0.568630 0.641220
vt 0.584900 0.653550
vt 0.528640 0.477920
vt 0.519180 0.483040
vt 0.620720 0.653020
vt 0.604050 0.640400
vt 0.501850 0.483030
vt 0.640300 0.641080
vt 0.511490 0.478370
vt 0.957780 0.693690
vt 0.945150 0.682260
vt 0.785380 0.560420
vt 0.527360 0.488470
vt 0.540110 0.679140
vt 0.542090 0.641980
vt 0.031350 0.215360
vt 0.041750 0.201550
s 0
f 3/1/1 2/2/1 1/3/1
f 1/3/1 4/4/1 3/1/1
f 3/1/1 4/4/1 8/5/1
f 4/4/1 9/6/1 8/5/1
f 5/7/1 3/1/1 10/8/1
f 10/8/1 11/9/1 5/7/1
f 10/8/1 6/10/1 11/9/1
f 6/10/1 12/11/1 11/9/1
f 2/2/1 3/1/1 13/12/1
f 3/1/1 5/7/1 13/12/1
f 7/13/1 8/5/1 14/14/1
f 8/5/1 9/6/1 14/14/1
f 7/13/1 8/5/1 9/6/1
f 15/3/2 16/2/2 17/1/2
f 17/1/2 18/4/2 15/3/2
f 22/5/2 18/4/2 17/1/2
f 22/5/2 23/6/2 18/4/2
f 24/8/2 17/1/2 19/7/2
f 19/7/2 25/9/2 24/8/2
f 25/9/2 20/10/2 24/8/2
f 25/9/2 26/11/2 20/10/2
f 27/12/2 17/1/2 16/2/2
f 27/12/2 19/7/2 17/1/2
f 28/14/2 22/5/2 21/13/2
f 28/14/2 23/6/2 22/5/2
f 23/6/2 22/5/2 21/13/2
f 43/15/1 42/16/1 41/17/3
f 45/18/4 44/19/4 43/15/4
f 46/20/1 44/19/1 45/18/1
f 47/21/1 46/20/1 45/18/1
f 48/22/1 46/20/1 47/21/1
f 49/23/1 46/20/1 48/22/1
f 50/24/1 49/23/1 48/22/1
f 51/25/1 50/24/1 48/22/1
f 52/26/1 50/24/1 51/25/1
f 53/27/1 52/26/1 51/25/1
f 54/28/1 52/26/1 53/27/1
f 55/29/1 54/28/1 53/27/1
f 56/30/1 54/28/1 55/29/1
f 57/31/1 56/30/1 55/29/1
f 58/32/1 56/30/1 57/31/1
f 44/19/1 42/16/1 43/15/1
f 42/16/1 39/33/1 41/17/3
f 37/34/1 62/35/5 39/33/1
f 40/36/6 62/37/7 38/38/8
f 35/39/1 63/40/9 37/34/1
f 38/38/10 63/41/11 36/42/12
f 37/34/1 63/40/13 62/35/5
f 62/37/14 63/41/15 38/38/10
f 36/42/16 63/41/17 33/43/18
f 31/44/1 64/45/19 34/46/1
f 33/43/20 64/47/21 32/48/22
f 63/41/23 64/47/24 33/43/25
f 34/46/1 64/45/19 35/39/1
f 35/39/1 64/45/19 63/40/9
f 64/47/26 65/49/27 32/48/28
f 31/44/1 65/50/29 64/45/19
f 31/44/1 66/51/30 65/50/31
f 65/49/32 66/52/33 32/48/34
f 31/44/1 67/53/1 66/51/30
f 30/54/35 70/55/36 29/56/1
f 70/55/36 68/57/1 29/56/1
f 61/58/37 70/55/38 30/54/39
f 71/59/40 61/58/41 32/48/34
f 32/48/42 66/52/43 71/59/44
f 70/55/36 72/60/45 68/57/1
f 67/61/1 72/60/45 69/62/1
f 68/57/1 72/60/45 67/61/1
f 72/63/45 71/64/46 69/65/1
f 67/61/1 29/56/1 68/57/1
f 31/66/1 29/56/1 67/61/1
f 67/61/1 69/62/1 66/52/30
f 66/52/30 69/62/1 71/59/46
f 70/67/38 61/68/41 72/63/47
f 72/63/47 61/68/48 71/64/49
f 62/35/50 40/69/51 41/17/52
f 39/33/1 62/35/5 41/17/53
f 81/17/54 82/16/55 83/15/55
f 83/15/2 84/19/2 85/18/2
f 85/18/2 84/19/2 86/20/2
f 85/18/2 86/20/2 87/21/2
f 87/21/2 86/20/2 88/22/2
f 88/22/2 86/20/2 89/23/2
f 88/22/2 89/23/2 90/24/2
f 88/22/2 90/24/2 91/25/2
f 91/25/2 90/24/2 92/26/2
f 91/25/2 92/26/2 93/27/2
f 93/27/2 92/26/2 94/28/2
f 93/27/2 94/28/2 95/29/2
f 95/29/2 94/28/2 96/30/2
f 95/29/2 96/30/2 97/31/2
f 97/31/2 96/30/2 98/32/2
f 83/15/55 82/16/55 84/19/55
f 81/17/54 79/33/2 82/16/2
f 79/33/2 102/35/56 78/34/2
f 38/38/57 102/37/58 80/36/59
f 78/34/2 103/40/60 77/39/2
f 36/42/61 103/41/62 38/38/57
f 102/35/56 103/40/63 78/34/2
f 38/38/57 103/41/64 102/37/65
f 33/43/66 103/41/67 36/42/61
f 76/46/2 104/45/68 75/44/2
f 32/48/69 104/47/70 33/43/71
f 33/43/72 104/47/73 103/41/74
f 77/39/2 104/45/68 76/46/2
f 103/40/63 104/45/75 77/39/2
f 32/48/76 105/49/77 104/47/78
f 104/45/68 105/50/79 75/44/2
f 105/50/79 106/51/80 75/44/2
f 32/48/81 106/52/82 105/49/83
f 106/51/80 107/53/2 75/44/2
f 73/56/2 110/55/84 74/54/85
f 73/56/2 108/57/2 110/55/86
f 74/54/87 110/55/88 101/58/89
f 32/48/81 101/58/90 111/59/91
f 111/59/92 106/52/93 32/48/81
f 108/57/2 112/60/94 110/55/95
f 109/62/2 112/60/94 107/61/2
f 107/61/2 112/60/94 108/57/2
f 109/65/2 111/64/96 112/63/94
f 108/57/2 73/56/2 107/61/2
f 107/61/2 73/56/2 75/66/2
f 106/52/97 109/62/2 107/61/2
f 111/59/98 109/62/2 106/52/80
f 112/63/99 101/68/100 110/67/95
f 111/64/101 101/68/102 112/63/99
f 81/17/103 80/69/104 102/35/105
f 81/17/54 102/35/106 79/33/2
f 38/38/10 80/36/107 40/36/107
f 61/58/108 101/58/108 32/48/108
f 115/70/109 113/71/110 116/72/111
f 115/70/112 116/72/113 117/73/114
f 116/74/115 114/75/116 117/76/117
f 114/75/118 124/77/119 117/76/117
f 117/73/120 125/78/121 115/70/122
f 115/70/122 125/78/123 118/79/124
f 126/80/125 127/81/126 125/82/127
f 126/80/128 128/83/129 127/81/126
f 128/83/130 129/84/131 127/81/132
f 128/83/133 130/85/134 129/84/131
f 130/85/135 131/86/136 129/84/137
f 130/85/134 132/87/138 131/86/139
f 132/87/138 133/88/140 131/86/141
f 125/78/123 127/89/142 118/79/124
f 118/79/143 127/89/144 119/90/145
f 119/90/145 127/89/144 120/91/146
f 127/89/144 129/92/147 120/91/148
f 129/92/149 131/93/150 120/91/151
f 120/91/148 131/93/150 121/94/152
f 121/94/153 131/93/154 122/95/155
f 131/93/150 133/96/156 122/95/157
f 122/95/157 133/96/158 123/97/159
f 133/96/156 134/98/160 123/97/161
f 133/88/140 132/87/162 134/99/163
f 132/87/138 135/100/164 134/99/165
f 135/100/164 136/101/166 134/99/165
f 136/101/166 137/102/167 134/99/165
f 134/98/168 137/103/169 123/97/170
f 137/103/171 138/104/172 123/97/173
f 140/105/174 144/106/175 141/107/176
f 144/106/177 145/108/178 141/107/179
f 145/108/180 146/109/181 141/107/179
f 147/110/182 148/111/183 143/112/184
f 148/111/185 149/113/1 143/112/184
f 148/111/185 150/114/186 149/113/1
f 150/114/187 151/115/188 149/113/1
f 147/116/189 146/109/181 148/117/190
f 146/109/191 152/118/192 148/117/190
f 148/117/193 152/118/194 150/119/195
f 152/118/196 153/120/197 150/119/198
f 153/120/197 154/121/199 150/119/200
f 154/121/201 155/122/202 150/119/198
f 150/119/198 155/122/203 151/123/204
f 126/80/205 125/82/206 157/124/207
f 117/76/117 124/77/208 157/124/209
f 125/82/206 117/76/210 157/124/207
f 146/109/211 147/116/212 158/125/213
f 147/110/214 142/126/215 158/127/216
f 142/126/215 141/128/217 158/127/216
f 141/107/218 146/109/219 158/125/213
f 140/129/220 141/130/221 139/131/222
f 156/132/223 139/131/224 141/130/225
f 142/133/226 156/132/223 141/130/227
f 161/134/228 159/135/229 162/136/230
f 161/137/231 162/138/230 163/139/232
f 163/140/232 162/136/230 164/141/233
f 140/129/234 139/131/224 165/142/235
f 163/139/232 164/143/236 165/142/237
f 144/106/175 140/105/238 166/144/239
f 140/129/174 165/142/237 166/145/240
f 165/146/237 164/141/233 166/144/240
f 143/147/241 156/132/242 167/148/243
f 156/132/242 142/133/244 167/148/245
f 142/126/215 147/110/182 167/149/246
f 147/110/214 143/112/184 167/149/246
f 159/135/247 137/102/167 136/101/166
f 164/141/248 162/136/249 168/150/250
f 168/150/251 144/106/252 166/144/253
f 164/141/248 168/150/251 166/144/254
f 168/150/255 162/136/256 159/135/247
f 136/101/166 168/150/257 159/135/258
f 161/137/259 163/139/260 160/151/261
f 165/142/262 139/131/222 160/151/263
f 163/139/264 165/142/235 160/151/263
f 137/103/265 159/152/266 138/104/267
f 138/104/268 159/152/266 161/137/269
f 160/151/270 138/104/271 161/137/259
f 169/72/272 113/71/273 115/70/274
f 170/73/275 169/72/276 115/70/277
f 170/76/278 114/75/279 169/74/280
f 170/76/281 124/77/282 114/75/283
f 115/70/284 171/78/285 170/73/286
f 118/79/287 171/78/288 115/70/277
f 171/82/289 172/81/290 126/80/291
f 172/81/292 128/83/293 126/80/294
f 172/81/290 173/84/295 128/83/293
f 173/84/296 130/85/297 128/83/298
f 173/84/299 174/86/300 130/85/297
f 174/86/301 132/87/302 130/85/303
f 174/86/300 175/88/304 132/87/305
f 118/79/306 172/89/307 171/78/285
f 119/90/308 172/89/309 118/79/310
f 120/91/311 172/89/307 119/90/308
f 120/91/312 173/92/313 172/89/307
f 120/91/314 174/93/315 173/92/316
f 121/94/317 174/93/318 120/91/319
f 122/95/320 174/93/315 121/94/317
f 122/95/321 175/96/322 174/93/323
f 123/97/324 175/96/325 122/95/326
f 123/97/324 176/98/327 175/96/328
f 176/99/329 132/87/330 175/88/304
f 176/99/329 135/100/331 132/87/332
f 176/99/329 136/101/333 135/100/334
f 176/99/329 177/102/335 136/101/333
f 123/97/336 177/103/337 176/98/327
f 123/97/336 138/104/338 177/103/337
f 179/107/339 144/106/340 178/105/341
f 179/107/342 145/108/343 144/106/344
f 179/107/345 146/109/346 145/108/347
f 181/112/348 183/111/349 182/110/350
f 181/112/348 184/113/2 183/111/349
f 184/113/2 185/114/351 183/111/349
f 184/113/2 186/115/352 185/114/353
f 183/117/354 146/109/346 182/116/355
f 183/117/354 152/118/356 146/109/346
f 185/119/351 152/118/357 183/117/358
f 185/119/353 153/120/359 152/118/357
f 185/119/351 154/121/360 153/120/361
f 185/119/362 155/122/363 154/121/364
f 186/123/365 155/122/366 185/119/362
f 157/124/367 171/82/368 126/80/291
f 157/124/367 124/77/369 170/76/370
f 157/124/371 170/76/370 171/82/289
f 187/125/372 182/116/373 146/109/374
f 187/127/375 180/126/376 182/110/350
f 187/127/375 179/128/377 180/126/376
f 187/125/378 146/109/379 179/107/339
f 139/131/380 179/130/381 178/129/382
f 179/130/381 139/131/383 156/132/384
f 179/130/385 156/132/384 180/133/386
f 190/136/387 188/135/388 189/134/389
f 191/139/390 190/138/387 189/137/389
f 192/141/391 190/136/392 191/140/390
f 193/142/393 139/131/383 178/129/394
f 193/142/395 192/143/391 191/139/390
f 194/144/396 178/105/397 144/106/398
f 194/145/399 193/142/400 178/129/341
f 194/144/396 192/141/401 193/146/400
f 195/148/402 156/132/403 181/147/348
f 195/148/404 180/133/386 156/132/405
f 195/149/406 182/110/350 180/126/376
f 195/149/407 181/112/348 182/110/350
f 136/101/408 177/102/335 188/135/409
f 168/150/410 190/136/411 192/141/412
f 194/144/413 144/106/414 168/150/410
f 194/144/413 168/150/410 192/141/415
f 188/135/409 190/136/416 168/150/417
f 188/135/409 168/150/418 136/101/333
f 160/151/419 191/139/420 189/137/421
f 160/151/419 139/131/422 193/142/393
f 160/151/419 193/142/393 191/139/423
f 138/104/338 188/152/388 177/103/337
f 189/137/424 188/152/388 138/104/425
f 189/137/421 138/104/426 160/151/427
f 113/71/428 169/72/429 116/72/429
f 116/74/429 169/74/429 114/75/430
f 155/122/431 186/123/432 151/123/433
f 143/147/434 181/147/435 156/132/436
f 2/2/437 16/2/438 15/3/439
f 1/3/439 2/2/437 15/3/439
f 1/3/440 15/3/440 18/4/441
f 4/4/442 1/3/440 18/4/441
f 8/5/443 22/5/444 17/1/445
f 3/1/445 8/5/443 17/1/445
f 4/4/442 18/4/446 23/6/447
f 9/6/447 4/4/442 23/6/448
f 3/1/449 17/1/449 24/8/450
f 10/8/451 3/1/449 24/8/450
f 11/9/452 25/9/452 19/7/453
f 5/7/454 11/9/452 19/7/453
f 10/8/451 24/8/455 20/10/456
f 6/10/457 10/8/451 20/10/456
f 12/11/458 26/11/458 25/9/458
f 11/9/458 12/11/458 25/9/458
f 6/10/459 20/10/460 26/11/461
f 12/11/461 6/10/462 26/11/461
f 13/12/463 27/12/464 16/2/465
f 2/2/466 13/12/463 16/2/465
f 5/7/467 19/7/468 27/12/464
f 13/12/463 5/7/467 27/12/464
f 7/13/469 21/13/470 22/5/444
f 8/5/443 7/13/469 22/5/444
f 14/14/471 28/14/472 21/13/470
f 7/13/473 14/14/471 21/13/470
f 9/6/474 23/6/474 28/14/475
f 14/14/476 9/6/477 28/14/478
f 8/5/479 22/5/479 23/6/480
f 9/6/480 8/5/479 23/6/480
f 7/13/469 21/13/470 22/5/444
f 8/5/443 7/13/469 22/5/444
f 9/6/481 23/6/481 21/13/482
f 7/13/469 9/6/481 21/13/482
f 58/32/1 57/31/1 59/153/1
f 60/154/1 58/32/1 59/153/1
f 100/154/2 99/153/2 97/31/2
f 98/32/2 100/154/2 97/31/2
f 41/17/483 81/17/484 83/15/485
f 43/15/486 41/17/483 83/15/485
f 43/15/487 83/15/485 85/18/488
f 45/18/489 43/15/487 85/18/490
f 46/20/491 86/20/492 84/19/493
f 44/19/494 46/20/491 84/19/493
f 45/18/495 85/18/496 87/21/497
f 47/21/498 45/18/495 87/21/497
f 47/21/499 87/21/497 88/22/500
f 48/22/501 47/21/499 88/22/500
f 49/23/502 89/23/503 86/20/504
f 46/20/505 49/23/502 86/20/504
f 50/24/506 90/24/506 89/23/507
f 49/23/508 50/24/506 89/23/507
f 48/22/509 88/22/510 91/25/511
f 51/25/512 48/22/509 91/25/511
f 52/26/513 92/26/514 90/24/515
f 50/24/515 52/26/513 90/24/515
f 51/25/512 91/25/516 93/27/517
f 53/27/518 51/25/512 93/27/519
f 54/28/520 94/28/521 92/26/522
f 52/26/523 54/28/524 92/26/522
f 53/27/525 93/27/517 95/29/526
f 55/29/527 53/27/525 95/29/526
f 56/30/528 96/30/529 94/28/521
f 54/28/530 56/30/528 94/28/521
f 55/29/531 95/29/526 97/31/532
f 57/31/533 55/29/531 97/31/532
f 58/32/534 98/32/535 96/30/529
f 56/30/536 58/32/537 96/30/529
f 44/19/494 84/19/538 82/16/539
f 42/16/540 44/19/494 82/16/539
f 42/16/541 82/16/542 79/33/543
f 39/33/544 42/16/541 79/33/543
f 59/153/545 99/153/545 100/154/546
f 60/154/547 59/153/545 100/154/548
f 57/31/549 97/31/550 99/153/551
f 59/153/551 57/31/549 99/153/551
f 60/154/552 100/154/553 98/32/535
f 58/32/554 60/154/552 98/32/535
f 39/33/555 79/33/556 78/34/557
f 37/34/558 39/33/555 78/34/557
f 37/34/559 78/34/560 77/39/561
f 35/39/562 37/34/559 77/39/561
f 34/46/563 76/46/563 75/44/564
f 31/44/565 34/46/563 75/44/564
f 35/39/566 77/39/561 76/46/567
f 34/46/567 35/39/568 76/46/567
f 29/56/569 73/56/569 74/54/569
f 30/54/569 29/56/569 74/54/569
f 30/54/570 74/54/570 101/58/570
f 61/58/570 30/54/570 101/58/570
f 31/66/571 75/66/564 73/56/572
f 29/56/572 31/66/571 73/56/572
f 40/69/573 80/69/573 81/17/574
f 41/17/575 40/69/573 81/17/574
f 149/113/576 184/113/577 181/112/578
f 143/112/578 149/113/576 181/112/578
f 151/115/433 186/115/432 184/113/579
f 149/113/576 151/115/433 184/113/579
f 198/1/1 197/2/1 196/3/1
f 196/3/1 199/4/1 198/1/1
f 198/1/1 199/4/1 203/5/1
f 199/4/1 204/6/1 203/5/1
f 200/7/1 198/1/1 205/8/1
f 205/8/1 206/9/1 200/7/1
f 205/8/1 201/10/1 206/9/1
f 201/10/1 207/11/1 206/9/1
f 197/2/1 198/1/1 208/12/1
f 198/1/1 200/7/1 208/12/1
f 202/13/1 203/5/1 209/14/1
f 203/5/1 204/6/1 209/14/1
f 202/13/1 203/5/1 204/6/1
f 210/3/2 211/2/2 212/1/2
f 212/1/2 213/4/2 210/3/2
f 217/5/2 213/4/2 212/1/2
f 217/5/2 218/6/2 213/4/2
f 219/8/2 212/1/2 214/7/2
f 214/7/2 220/9/2 219/8/2
f 220/9/2 215/10/2 219/8/2
f 220/9/2 221/11/2 215/10/2
f 222/12/2 212/1/2 211/2/2
f 222/12/2 214/7/2 212/1/2
f 223/14/2 217/5/2 216/13/2
f 223/14/2 218/6/2 217/5/2
f 218/6/2 217/5/2 216/13/2
f 238/15/1 237/16/1 236/17/3
f 240/18/4 239/19/4 238/15/4
f 241/20/1 239/19/1 240/18/1
f 242/21/1 241/20/1 240/18/1
f 243/22/1 241/20/1 242/21/1
f 244/23/1 241/20/1 243/22/1
f 245/24/1 244/23/1 243/22/1
f 246/25/1 245/24/1 243/22/1
f 247/26/1 245/24/1 246/25/1
f 248/27/1 247/26/1 246/25/1
f 249/28/1 247/26/1 248/27/1
f 250/29/1 249/28/1 248/27/1
f 251/30/1 249/28/1 250/29/1
f 252/31/1 251/30/1 250/29/1
f 253/32/1 251/30/1 252/31/1
f 239/19/1 237/16/1 238/15/1
f 237/16/1 234/33/1 236/17/3
f 232/34/1 257/35/5 234/33/1
f 235/36/6 257/37/7 233/38/8
f 230/39/1 258/40/9 232/34/1
f 233/38/10 258/41/11 231/42/12
f 232/34/1 258/40/13 257/35/5
f 257/37/14 258/41/15 233/38/10
f 231/42/16 258/41/17 228/43/18
f 226/44/1 259/45/19 229/46/1
f 228/43/20 259/47/21 227/48/22
f 258/41/23 259/47/24 228/43/25
f 229/46/1 259/45/19 230/39/1
f 230/39/1 259/45/19 258/40/9
f 259/47/26 260/49/27 227/48/28
f 226/44/1 260/50/29 259/45/19
f 226/44/1 261/51/30 260/50/31
f 260/49/32 261/52/33 227/48/34
f 226/44/1 262/53/1 261/51/30
f 225/54/35 265/55/36 224/56/1
f 265/55/36 263/57/1 224/56/1
f 256/58/37 265/55/38 225/54/39
f 266/59/40 256/58/41 227/48/34
f 227/48/42 261/52/43 266/59/44
f 265/55/36 267/60/45 263/57/1
f 262/61/1 267/60/45 264/62/1
f 263/57/1 267/60/45 262/61/1
f 267/63/45 266/64/46 264/65/1
f 262/61/1 224/56/1 263/57/1
f 226/66/1 224/56/1 262/61/1
f 262/61/1 264/62/1 261/52/30
f 261/52/30 264/62/1 266/59/46
f 265/67/38 256/68/41 267/63/47
f 267/63/47 256/68/48 266/64/49
f 257/35/50 235/69/51 236/17/52
f 234/33/1 257/35/5 236/17/53
f 276/17/54 277/16/55 278/15/55
f 278/15/2 279/19/2 280/18/2
f 280/18/2 279/19/2 281/20/2
f 280/18/2 281/20/2 282/21/2
f 282/21/2 281/20/2 283/22/2
f 283/22/2 281/20/2 284/23/2
f 283/22/2 284/23/2 285/24/2
f 283/22/2 285/24/2 286/25/2
f 286/25/2 285/24/2 287/26/2
f 286/25/2 287/26/2 288/27/2
f 288/27/2 287/26/2 289/28/2
f 288/27/2 289/28/2 290/29/2
f 290/29/2 289/28/2 291/30/2
f 290/29/2 291/30/2 292/31/2
f 292/31/2 291/30/2 293/32/2
f 278/15/55 277/16/55 279/19/55
f 276/17/54 274/33/2 277/16/2
f 274/33/2 297/35/56 273/34/2
f 233/38/57 297/37/58 275/36/59
f 273/34/2 298/40/60 272/39/2
f 231/42/61 298/41/62 233/38/57
f 297/35/56 298/40/63 273/34/2
f 233/38/57 298/41/64 297/37/65
f 228/43/66 298/41/67 231/42/61
f 271/46/2 299/45/68 270/44/2
f 227/48/69 299/47/70 228/43/71
f 228/43/72 299/47/73 298/41/74
f 272/39/2 299/45/68 271/46/2
f 298/40/63 299/45/75 272/39/2
f 227/48/76 300/49/77 299/47/78
f 299/45/68 300/50/77 270/44/2
f 300/50/77 301/51/80 270/44/2
f 227/48/81 301/52/82 300/49/83
f 301/51/80 302/53/2 270/44/2
f 268/56/2 305/55/84 269/54/85
f 268/56/2 303/57/2 305/55/86
f 269/54/87 305/55/88 296/58/89
f 227/48/81 296/58/90 306/59/91
f 306/59/92 301/52/93 227/48/81
f 303/57/2 307/60/94 305/55/95
f 304/62/2 307/60/94 302/61/2
f 302/61/2 307/60/94 303/57/2
f 304/65/2 306/64/96 307/63/94
f 303/57/2 268/56/2 302/61/2
f 302/61/2 268/56/2 270/66/2
f 301/52/97 304/62/2 302/61/2
f 306/59/98 304/62/2 301/52/80
f 307/63/99 296/68/100 305/67/95
f 306/64/101 296/68/102 307/63/99
f 276/17/103 275/69/104 297/35/105
f 276/17/54 297/35/106 274/33/2
f 233/38/10 275/36/107 235/36/107
f 256/58/108 296/58/108 227/48/108
f 310/70/109 308/71/110 311/72/111
f 310/70/112 311/72/113 312/73/114
f 311/74/115 309/75/116 312/76/117
f 309/75/118 319/77/119 312/76/117
f 312/73/120 320/78/121 310/70/122
f 310/70/122 320/78/123 313/79/124
f 321/80/128 322/81/126 320/82/127
f 321/80/125 323/83/129 322/81/126
f 323/83/130 324/84/131 322/81/132
f 323/83/133 325/85/134 324/84/131
f 325/85/135 326/86/136 324/84/137
f 325/85/134 327/87/138 326/86/580
f 327/87/581 328/88/140 326/86/141
f 320/78/123 322/89/142 313/79/124
f 313/79/143 322/89/144 314/90/145
f 314/90/145 322/89/144 315/91/146
f 322/89/144 324/92/147 315/91/148
f 324/92/149 326/93/150 315/91/151
f 315/91/148 326/93/150 316/94/152
f 316/94/152 326/93/154 317/95/157
f 326/93/150 328/96/156 317/95/157
f 317/95/157 328/96/158 318/97/159
f 328/96/156 329/98/160 318/97/161
f 328/88/140 327/87/581 329/99/163
f 327/87/138 330/100/164 329/99/165
f 330/100/164 331/101/166 329/99/165
f 331/101/166 332/102/167 329/99/165
f 329/98/168 332/103/169 318/97/170
f 332/103/171 333/104/582 318/97/583
f 335/105/174 339/106/175 336/107/176
f 339/106/175 340/108/180 336/107/179
f 340/108/180 341/109/181 336/107/179
f 342/110/182 343/111/183 338/112/184
f 343/111/185 344/113/1 338/112/184
f 343/111/185 345/114/186 344/113/1
f 345/114/187 346/115/188 344/113/1
f 342/116/189 341/109/181 343/117/190
f 341/109/191 347/118/584 343/117/190
f 343/117/193 347/118/194 345/119/195
f 347/118/196 348/120/197 345/119/198
f 348/120/197 349/121/199 345/119/200
f 349/121/201 350/122/202 345/119/198
f 345/119/198 350/122/585 346/123/204
f 321/80/205 320/82/206 352/124/207
f 312/76/117 319/77/208 352/124/209
f 320/82/206 312/76/210 352/124/207
f 341/109/586 342/116/212 353/125/213
f 342/110/214 337/126/215 353/127/216
f 337/126/215 336/128/217 353/127/216
f 336/107/218 341/109/219 353/125/213
f 335/129/220 336/130/221 334/131/222
f 351/132/223 334/131/224 336/130/225
f 337/133/226 351/132/223 336/130/227
f 356/134/228 354/135/229 357/136/230
f 356/137/231 357/138/230 358/139/232
f 358/140/232 357/136/230 359/141/233
f 335/129/234 334/131/224 360/142/235
f 358/139/232 359/143/236 360/142/237
f 339/106/175 335/105/238 361/144/239
f 335/129/174 360/142/237 361/145/240
f 360/146/237 359/141/233 361/144/240
f 338/147/241 351/132/587 362/148/243
f 351/132/242 337/133/244 362/148/245
f 337/126/215 342/110/182 362/149/246
f 342/110/214 338/112/184 362/149/246
f 354/135/247 332/102/167 331/101/166
f 359/141/248 357/136/256 363/150/255
f 363/150/251 339/106/252 361/144/253
f 359/141/248 363/150/257 361/144/254
f 363/150/255 357/136/256 354/135/247
f 331/101/166 363/150/257 354/135/258
f 356/137/259 358/139/260 355/151/261
f 360/142/262 334/131/222 355/151/263
f 358/139/264 360/142/235 355/151/263
f 332/103/588 354/152/266 333/104/267
f 333/104/268 354/152/266 356/137/269
f 355/151/589 333/104/271 356/137/259
f 364/72/272 308/71/273 310/70/274
f 365/73/275 364/72/276 310/70/277
f 365/76/278 309/75/279 364/74/280
f 365/76/281 319/77/282 309/75/283
f 310/70/284 366/78/285 365/73/286
f 313/79/287 366/78/288 310/70/277
f 366/82/289 367/81/290 321/80/291
f 367/81/292 323/83/293 321/80/294
f 367/81/290 368/84/295 323/83/293
f 368/84/296 325/85/297 323/83/298
f 368/84/299 369/86/300 325/85/297
f 369/86/301 327/87/302 325/85/303
f 369/86/300 370/88/304 327/87/332
f 313/79/306 367/89/307 366/78/285
f 314/90/308 367/89/309 313/79/310
f 315/91/311 367/89/307 314/90/308
f 315/91/312 368/92/313 367/89/307
f 315/91/314 369/93/315 368/92/316
f 316/94/317 369/93/318 315/91/590
f 317/95/320 369/93/315 316/94/317
f 317/95/321 370/96/322 369/93/323
f 318/97/324 370/96/325 317/95/326
f 318/97/324 371/98/327 370/96/328
f 371/99/329 327/87/591 370/88/304
f 371/99/329 330/100/592 327/87/332
f 371/99/593 331/101/333 330/100/592
f 371/99/329 372/102/335 331/101/333
f 318/97/336 372/103/337 371/98/327
f 318/97/336 333/104/338 372/103/337
f 374/107/339 339/106/340 373/105/341
f 374/107/342 340/108/343 339/106/344
f 374/107/345 341/109/346 340/108/347
f 376/112/348 378/111/349 377/110/350
f 376/112/348 379/113/2 378/111/349
f 379/113/2 380/114/351 378/111/349
f 379/113/2 381/115/352 380/114/353
f 378/117/354 341/109/346 377/116/355
f 378/117/354 347/118/356 341/109/346
f 380/119/351 347/118/357 378/117/358
f 380/119/353 348/120/359 347/118/357
f 380/119/351 349/121/360 348/120/361
f 380/119/362 350/122/363 349/121/364
f 381/123/365 350/122/594 380/119/362
f 352/124/367 366/82/368 321/80/291
f 352/124/367 319/77/369 365/76/370
f 352/124/371 365/76/370 366/82/289
f 382/125/372 377/116/373 341/109/595
f 382/127/375 375/126/376 377/110/350
f 382/127/375 374/128/377 375/126/376
f 382/125/378 341/109/596 374/107/339
f 334/131/380 374/130/381 373/129/382
f 374/130/381 334/131/383 351/132/384
f 374/130/385 351/132/384 375/133/386
f 385/136/387 383/135/388 384/134/389
f 386/139/390 385/138/387 384/137/389
f 387/141/391 385/136/392 386/140/390
f 388/142/393 334/131/383 373/129/394
f 388/142/395 387/143/391 386/139/390
f 389/144/396 373/105/397 339/106/398
f 389/145/399 388/142/400 373/129/341
f 389/144/396 387/141/401 388/146/400
f 390/148/597 351/132/403 376/147/348
f 390/148/404 375/133/386 351/132/405
f 390/149/406 377/110/350 375/126/376
f 390/149/406 376/112/348 377/110/350
f 331/101/333 372/102/335 383/135/409
f 363/150/410 385/136/411 387/141/412
f 389/144/413 339/106/414 363/150/410
f 389/144/413 363/150/410 387/141/415
f 383/135/598 385/136/416 363/150/410
f 383/135/409 363/150/418 331/101/333
f 355/151/419 386/139/420 384/137/421
f 355/151/419 334/131/422 388/142/393
f 355/151/419 388/142/393 386/139/423
f 333/104/338 383/152/388 372/103/337
f 384/137/424 383/152/388 333/104/338
f 384/137/421 333/104/426 355/151/427
f 308/71/428 364/72/429 311/72/429
f 311/74/429 364/74/429 309/75/430
f 350/122/431 381/123/432 346/123/433
f 338/147/434 376/147/435 351/132/436
f 197/2/437 211/2/438 210/3/439
f 196/3/439 197/2/437 210/3/439
f 196/3/440 210/3/440 213/4/441
f 199/4/442 196/3/440 213/4/441
f 203/5/443 217/5/444 212/1/445
f 198/1/445 203/5/443 212/1/445
f 199/4/442 213/4/446 218/6/447
f 204/6/447 199/4/442 218/6/448
f 198/1/449 212/1/449 219/8/450
f 205/8/451 198/1/449 219/8/450
f 206/9/452 220/9/452 214/7/453
f 200/7/454 206/9/452 214/7/453
f 205/8/451 219/8/455 215/10/456
f 201/10/457 205/8/451 215/10/456
f 207/11/458 221/11/458 220/9/458
f 206/9/458 207/11/458 220/9/458
f 201/10/459 215/10/460 221/11/461
f 207/11/461 201/10/462 221/11/461
f 208/12/463 222/12/464 211/2/465
f 197/2/466 208/12/463 211/2/465
f 200/7/467 214/7/468 222/12/464
f 208/12/463 200/7/467 222/12/464
f 202/13/469 216/13/470 217/5/444
f 203/5/443 202/13/469 217/5/444
f 209/14/471 223/14/472 216/13/470
f 202/13/473 209/14/471 216/13/470
f 204/6/474 218/6/474 223/14/475
f 209/14/476 204/6/477 223/14/478
f 203/5/479 217/5/479 218/6/480
f 204/6/480 203/5/479 218/6/480
f 202/13/469 216/13/470 217/5/444
f 203/5/443 202/13/469 217/5/444
f 204/6/481 218/6/481 216/13/482
f 202/13/469 204/6/481 216/13/482
f 253/32/1 252/31/1 254/153/1
f 255/154/1 253/32/1 254/153/1
f 295/154/2 294/153/2 292/31/2
f 293/32/2 295/154/2 292/31/2
f 236/17/483 276/17/484 278/15/485
f 238/15/486 236/17/483 278/15/485
f 238/15/487 278/15/485 280/18/490
f 240/18/489 238/15/487 280/18/490
f 241/20/491 281/20/492 279/19/493
f 239/19/494 241/20/491 279/19/493
f 240/18/495 280/18/496 282/21/497
f 242/21/498 240/18/495 282/21/497
f 242/21/499 282/21/497 283/22/500
f 243/22/501 242/21/499 283/22/500
f 244/23/502 284/23/503 281/20/504
f 241/20/505 244/23/502 281/20/504
f 245/24/506 285/24/506 284/23/507
f 244/23/508 245/24/506 284/23/507
f 243/22/509 283/22/510 286/25/511
f 246/25/512 243/22/509 286/25/511
f 247/26/513 287/26/514 285/24/515
f 245/24/515 247/26/513 285/24/515
f 246/25/599 286/25/516 288/27/600
f 248/27/518 246/25/512 288/27/517
f 249/28/524 289/28/521 287/26/522
f 247/26/523 249/28/520 287/26/522
f 248/27/601 288/27/517 290/29/526
f 250/29/527 248/27/601 290/29/526
f 251/30/536 291/30/529 289/28/521
f 249/28/530 251/30/536 289/28/521
f 250/29/531 290/29/526 292/31/532
f 252/31/533 250/29/531 292/31/532
f 253/32/534 293/32/535 291/30/529
f 251/30/536 253/32/534 291/30/529
f 239/19/494 279/19/538 277/16/539
f 237/16/540 239/19/494 277/16/539
f 237/16/541 277/16/542 274/33/543
f 234/33/544 237/16/541 274/33/543
f 254/153/545 294/153/545 295/154/548
f 255/154/547 254/153/545 295/154/548
f 252/31/549 292/31/550 294/153/551
f 254/153/551 252/31/549 294/153/551
f 255/154/552 295/154/553 293/32/535
f 253/32/554 255/154/552 293/32/535
f 234/33/555 274/33/556 273/34/557
f 232/34/558 234/33/555 273/34/557
f 232/34/559 273/34/560 272/39/561
f 230/39/562 232/34/559 272/39/561
f 229/46/563 271/46/563 270/44/564
f 226/44/565 229/46/563 270/44/564
f 230/39/566 272/39/561 271/46/567
f 229/46/567 230/39/568 271/46/567
f 224/56/569 268/56/569 269/54/569
f 225/54/569 224/56/569 269/54/569
f 225/54/570 269/54/570 296/58/570
f 256/58/570 225/54/570 296/58/570
f 226/66/571 270/66/564 268/56/572
f 224/56/572 226/66/571 268/56/572
f 235/69/573 275/69/573 276/17/574
f 236/17/575 235/69/573 276/17/574
f 344/113/576 379/113/577 376/112/578
f 338/112/578 344/113/576 376/112/578
f 346/115/433 381/115/432 379/113/579
f 344/113/576 346/115/433 379/113/579
